<?xml version="1.0" standalone="no"?>
<!DOCTYPE svg PUBLIC "-//W3C//DTD SVG 20010904//EN"
 "http://www.w3.org/TR/2001/REC-SVG-20010904/DTD/svg10.dtd">
<svg version="1.0" xmlns="http://www.w3.org/2000/svg"
 width="700.000000pt" height="700.000000pt" viewBox="0 0 700.000000 700.000000"
 preserveAspectRatio="xMidYMid meet">
<metadata>
Created by potrace 1.14, written by Peter Selinger 2001-2017
</metadata>
<g transform="translate(0.000000,700.000000) scale(0.100000,-0.100000)"
fill="#000000" stroke="none">
<path d="M440 3935 l0 -2625 1530 0 1530 0 0 220 0 220 220 0 220 0 0 -220 0
-220 765 0 765 0 0 440 0 440 545 0 545 0 0 1750 0 1750 -545 0 -545 0 0 435
0 435 -1205 0 -1205 0 0 -655 0 -655 440 0 440 0 0 -220 0 -220 -655 0 -655 0
0 875 0 875 -1095 0 -1095 0 0 -2625z m3932 658 l3 -218 218 -3 217 -2 0 -215
0 -215 220 0 220 0 0 -655 0 -655 -217 -2 -218 -3 -3 -217 -2 -218 -218 -2
-217 -3 -3 -217 -2 -218 -215 0 -215 0 0 220 0 220 220 0 220 0 0 215 0 215
215 0 215 0 0 660 0 660 -215 0 -215 0 -2 218 -3 217 -217 3 -218 2 0 215 0
215 215 0 215 0 2 -217z m-872 -1308 l0 -655 -435 0 -435 0 0 655 0 655 435 0
435 0 0 -655z"/>
<path d="M440 660 l0 -220 3060 0 3060 0 0 220 0 220 -3060 0 -3060 0 0 -220z"/>
</g>
</svg>
