<?xml version="1.0" encoding="utf-8"?>
<!-- Generator: Adobe Illustrator 24.0.3, SVG Export Plug-In . SVG Version: 6.00 Build 0)  -->
<svg version="1.1" id="Layer_1" xmlns="http://www.w3.org/2000/svg" xmlns:xlink="http://www.w3.org/1999/xlink" x="0px" y="0px"
	 width="1500px" height="1500px" viewBox="0 0 1500 1500" style="enable-background:new 0 0 1500 1500;" xml:space="preserve">
<style type="text/css">
	.st0{fill:#F1AD1D;}
	.st1{fill:#1B4D25;}
	.st2{fill:#DFDDA0;}
	.st3{fill:#8FBC44;}
</style>
<path class="st0" d="M59.375,920.1c-12.426,0-22.5,10.074-22.5,22.5c0,12.427,10.074,22.5,22.5,22.5h181.25
	c12.426,0,22.5-10.073,22.5-22.5c0-12.426-10.074-22.5-22.5-22.5H59.375z"/>
<g>
	<path class="st1" d="M66.044,934.751c2.558,0,4.784,0.274,6.819,1.787c2.227,1.677,3.52,4.345,3.52,7.396s-1.265,5.691-3.685,7.396
		c-2.145,1.513-4.152,1.76-6.709,1.76H61.26v-18.34h4.784V934.751z M64.834,950.012h1.1c0.908,0,2.888-0.056,4.482-1.21
		c1.457-1.045,2.282-2.915,2.282-4.867c0-1.925-0.798-3.795-2.255-4.895c-1.484-1.1-3.3-1.21-4.51-1.21h-1.1L64.834,950.012
		L64.834,950.012z"/>
	<path class="st1" d="M98.382,943.935c0,5.582-4.015,9.568-9.788,9.568c-5.774,0-9.789-3.986-9.789-9.568s4.015-9.597,9.789-9.597
		C94.367,934.338,98.382,938.353,98.382,943.935z M94.697,943.935c0-3.712-2.529-6.352-6.104-6.352s-6.104,2.64-6.104,6.352
		s2.529,6.324,6.104,6.324C92.168,950.259,94.697,947.646,94.697,943.935z"/>
	<path class="st1" d="M101.685,953.091v-18.34h2.475l11.163,12.235v-12.235h3.575v18.34h-2.475l-11.164-12.264v12.264H101.685z"/>
	<path class="st1" d="M133.94,949.241h-7.396l-1.623,3.85h-3.877l7.892-18.34h2.805l7.672,18.34h-3.85L133.94,949.241z
		 M132.896,946.327l-2.612-6.6l-2.612,6.6H132.896z"/>
	<path class="st1" d="M146.426,937.83v15.261h-3.575V937.83h-4.124v-3.079h11.823v3.079H146.426z"/>
	<path class="st1" d="M162.98,937.83h-6.6v4.098h6.324v3.079h-6.324v5.005h6.6v3.079h-10.174v-18.34h10.174V937.83z"/>
	<path class="st1" d="M172.386,953.091v-18.34h2.475l11.163,12.235v-12.235h3.575v18.34h-2.475l-11.164-12.264v12.264H172.386z"/>
	<path class="st1" d="M212.478,943.935c0,5.582-4.015,9.568-9.788,9.568c-5.774,0-9.789-3.986-9.789-9.568s4.015-9.597,9.789-9.597
		C208.463,934.338,212.478,938.353,212.478,943.935z M208.793,943.935c0-3.712-2.529-6.352-6.104-6.352s-6.104,2.64-6.104,6.352
		s2.529,6.324,6.104,6.324C206.264,950.259,208.793,947.646,208.793,943.935z"/>
	<path class="st1" d="M223.122,953.091h-2.694l-6.38-18.34h3.795l4.097,12.483l4.482-12.648h1.979l4.234,12.648l4.399-12.483h3.795
		l-6.792,18.34h-2.694l-4.015-11.631L223.122,953.091z"/>
</g>
<g>
	<path class="st2" d="M34.174,66.413l3.225,11.322l3.898-11.322h3.249l3.899,11.322l3.024-11.322h4.549l-5.024,17.496h-4.148
		l-3.924-11.098l-3.924,11.098h-4.149l-5.224-17.496H34.174z"/>
	<path class="st2" d="M64.449,66.413v17.496H59.9V66.413H64.449z"/>
	<path class="st2" d="M77.597,69.663v14.246h-4.549l0.025-14.246h-3.749v-3.25h11.997v3.25H77.597z"/>
	<path class="st2" d="M90.223,74.111h6.573v-7.698h4.549v17.496h-4.549V77.36h-6.573l0.025,6.549h-4.549V66.413h4.549L90.223,74.111
		z"/>
	<path class="st2" d="M129.396,71.537c-1.225-0.899-2.225-1.199-3.774-1.199c-0.649,0-1.199,0.125-1.8,0.375
		c-0.55,0.199-1.124,0.55-1.524,0.949c-0.375,0.425-0.699,0.875-0.925,1.425c-0.225,0.625-0.375,1.25-0.375,1.925
		c0,0.624,0.101,1.249,0.351,1.85c0.225,0.55,0.55,1.074,0.949,1.475c0.4,0.425,0.975,0.699,1.55,0.925
		c0.899,0.425,1.949,0.449,2.949,0.324c0.45-0.05,0.85-0.125,1.25-0.3c0.175-0.05,1.35-0.475,1.35-0.649l0.024,4.398l-0.475,0.2
		c-0.675,0.225-1.25,0.399-1.874,0.524c-0.601,0.125-1.15,0.15-1.75,0.15c-1.125-0.025-2.3-0.25-3.35-0.625
		c-1.024-0.45-2.099-1.05-2.898-1.824c-0.825-0.8-1.475-1.75-1.975-2.85c-0.5-1.074-0.75-2.324-0.75-3.599
		c0-1.3,0.325-2.575,0.824-3.624c0.476-1.101,1.175-2.075,2-2.85c0.8-0.775,1.749-1.375,2.824-1.825
		c1.075-0.425,2.199-0.649,3.35-0.649c0.699,0,1.299,0.075,2.024,0.225c0.625,0.125,1.324,0.375,2.049,0.65L129.396,71.537z"/>
	<path class="st2" d="M149.72,81.535c-1.75,1.674-4.199,2.549-6.748,2.549c-2.524,0-4.999-0.875-6.724-2.549
		c-1.824-1.725-2.699-4.1-2.699-6.374s0.875-4.674,2.699-6.398c1.725-1.649,4.199-2.524,6.724-2.524
		c2.549,0,4.998,0.875,6.748,2.524c1.8,1.725,2.675,4.124,2.675,6.398S151.52,79.811,149.72,81.535z M139.522,71.887
		c-0.925,0.9-1.35,2.149-1.35,3.375c0,1.499,0.699,2.549,1.35,3.174c0.824,0.774,1.975,1.35,3.449,1.35
		c1.524,0,2.649-0.55,3.424-1.324c0.8-0.8,1.399-1.975,1.399-3.3c0-1.324-0.6-2.499-1.399-3.274c-0.95-0.899-2.249-1.35-3.424-1.35
		C141.747,70.537,140.447,70.962,139.522,71.887z"/>
	<path class="st2" d="M159.147,66.413l4.324,10.647l4.249-10.647h4.849l-7.373,17.496h-3.55l-7.348-17.496H159.147z"/>
</g>
<g>
	<path class="st2" d="M179.474,66.413v17.496h-4.549V66.413H179.474z"/>
</g>
<g>
	<path class="st2" d="M185.225,83.909V66.413h5.974c1.749,0,4.698,0.226,6.948,2.399c2.049,1.975,2.449,4.499,2.449,6.374
		c0,2.324-0.6,4.349-2.3,6.048c-1.399,1.4-3.724,2.675-6.723,2.675C191.573,83.909,185.225,83.909,185.225,83.909z M189.773,80.035
		h0.899c1.125,0,2.675-0.1,3.85-1.25c0.574-0.55,1.324-1.649,1.324-3.599c0-1.625-0.5-2.999-1.35-3.824
		c-1.075-1-2.499-1.1-3.624-1.1h-1.1L189.773,80.035L189.773,80.035z"/>
	<path class="st2" d="M203.725,74.111h6.174v3.249h-6.174V74.111z"/>
	<path class="st2" d="M219.422,66.413v17.496h-4.549V69.663h-2.474v-3.25H219.422z"/>
	<path class="st2" d="M228.848,83.909l4.049-5.999c-0.649,0.2-1.6,0.45-2.449,0.375c-1.425-0.1-3.049-0.449-4.074-1.374
		c-1.35-1.2-1.949-2.649-1.949-4.124c0-1.6,0.425-3.149,1.774-4.499c1.725-1.699,3.874-2.05,5.523-2.05
		c2.975,0,4.724,1.125,5.674,2.1c0.825,0.85,1.574,2.175,1.574,4.049c0,2.35-1.175,4.624-2.549,6.448l-3.574,5.074
		C232.847,83.909,228.848,83.909,228.848,83.909z M229.497,70.513c-0.524,0.449-0.874,1.1-0.874,1.8c0,0.499,0.199,1.1,0.874,1.649
		c0.775,0.6,1.625,0.725,2.2,0.725c0.749,0,1.574-0.25,2.124-0.675c0.6-0.45,0.95-1.1,0.95-1.625c0-0.675-0.275-1.324-0.825-1.799
		c-0.75-0.625-1.625-0.8-2.249-0.8C230.647,69.788,229.947,70.162,229.497,70.513z"/>
	<path class="st2" d="M245.698,81.335h3.549l-4.074,7.498h-2.449L245.698,81.335z"/>
</g>
<g>
	<path class="st2" d="M34.674,324.83v5.273h-4.549v-17.496h5.599c4.273,0,7.272,2.1,7.272,6.349c0,2.225-1.174,4.624-3.924,5.349
		c-0.024,0,1,1.975,3.924,1.975v3.999C36.823,330.278,34.674,324.955,34.674,324.83z M34.674,321.705h1.05
		c1.85,0,3.149-1.199,3.149-2.749c0-1.999-1.3-3.124-3.074-3.124h-1.125C34.674,315.832,34.674,321.705,34.674,321.705z"/>
</g>
<g>
	<path class="st2" d="M53.174,312.607v17.496h-4.549v-17.496H53.174z"/>
	<path class="st2" d="M60.249,325.205c0.525,0.399,1.024,0.699,1.524,0.925c0.625,0.274,1.275,0.425,1.899,0.425
		c0.7,0,1.25-0.175,1.6-0.5c0.351-0.325,0.525-0.7,0.525-1.125c0-0.25-0.05-0.475-0.125-0.649c-0.1-0.175-0.25-0.351-0.45-0.525
		c-0.225-0.149-0.5-0.3-0.824-0.425l-1.225-0.45c-0.575-0.175-1.125-0.374-1.675-0.6c-0.55-0.2-1.025-0.5-1.45-0.85
		c-0.425-0.375-0.774-0.825-1.024-1.375c-0.275-0.524-0.4-1.225-0.4-2.074c0-0.825,0.125-1.574,0.426-2.274
		c0.274-0.675,0.649-1.25,1.149-1.75c0.5-0.475,1.125-0.85,1.85-1.124c0.725-0.275,1.524-0.4,2.424-0.4
		c0.851,0,1.725,0.125,2.625,0.351c0.899,0.225,1.774,0.574,2.624,1.024l-2.249,3.049c-0.55-0.35-1.675-0.774-2.325-0.774
		c-0.574,0-1.024,0.149-1.399,0.399c-0.35,0.275-0.524,0.625-0.524,1.05c0,0.3,0.075,0.55,0.274,0.75c0.175,0.2,0.4,0.375,0.7,0.5
		c0.3,0.15,0.625,0.275,0.975,0.375c0.375,0.1,0.725,0.225,1.1,0.325c1.425,0.5,2.475,1.124,3.149,1.924c0.649,0.8,1,1.85,1,3.125
		c0,0.874-0.15,1.649-0.45,2.349c-0.274,0.726-0.7,1.325-1.274,1.825c-0.55,0.5-1.25,0.875-2.05,1.149
		c-0.825,0.275-1.749,0.425-2.774,0.425c-2.149,0-4.124-0.625-5.948-1.899L60.249,325.205z"/>
	<path class="st2" d="M79.974,312.607v17.496h-4.549v-17.496H79.974z"/>
	<path class="st2" d="M85.725,330.104v-17.496h4.549l8.373,11.373v-11.373h4.549v17.496h-4.549l-8.373-11.372v11.372H85.725z"/>
	<path class="st2" d="M116.896,320.306h8.848c0,0.925-0.05,1.774-0.124,2.5c-0.075,0.699-0.226,1.399-0.45,2.024
		c-0.3,0.875-0.725,1.674-1.25,2.35c-0.524,0.675-1.175,1.249-1.874,1.699c-0.726,0.45-1.575,0.8-2.399,1.024
		c-0.875,0.275-1.775,0.375-2.75,0.375c-1.3,0-2.549-0.225-3.624-0.649c-1.1-0.4-2.049-1-2.799-1.774c-0.8-0.75-1.45-1.7-1.95-2.75
		c-0.449-1.05-0.699-2.424-0.699-3.749c0-1.324,0.324-2.574,0.75-3.674c0.425-1.075,1.124-2,1.924-2.8
		c0.8-0.749,1.75-1.35,2.85-1.799c1.075-0.425,2.324-0.65,3.699-0.65c1.774,0,3.274,0.351,4.599,1.1
		c1.149,0.65,2.199,1.75,2.925,3.024l-3.975,2.35c-0.375-0.95-0.975-1.6-1.574-1.975c-0.625-0.399-1.175-0.6-1.975-0.6
		c-0.675-0.05-1.25,0.125-1.774,0.35c-0.525,0.225-1.1,0.55-1.475,1.05c-0.375,0.45-0.65,0.875-0.925,1.575
		c-0.25,0.649-0.4,1.399-0.4,2.124c0,0.675,0.101,1.475,0.375,2.074c0.225,0.625,0.5,1.15,0.9,1.6
		c0.374,0.425,0.749,0.75,1.374,1.05c0.55,0.275,1.2,0.375,1.949,0.375c0.476,0,0.875-0.025,1.3-0.175
		c0.375-0.125,0.675-0.3,1.025-0.525c0.324-0.225,0.524-0.499,0.75-0.85c0.249-0.399,0.449-0.975,0.449-1.425h-3.699v-3.249H116.896
		z"/>
</g>
<g>
	<path class="st2" d="M34.674,346.607v9.348c0,0.5,0.024,1.025,0.05,1.55c0.05,0.525,0.15,1,0.35,1.425
		c0.2,0.425,0.5,0.75,0.9,1.024c0.425,0.275,0.999,0.4,1.725,0.4c0.749,0,1.324-0.125,1.725-0.4c0.399-0.274,0.699-0.6,0.899-1.024
		s0.325-0.899,0.35-1.425c0.05-0.524,0.075-1.05,0.075-1.55v-9.348h4.549v9.973c-0.1,2.675-0.725,4.624-1.949,5.849
		s-3.1,1.85-5.648,1.85c-2.524,0-4.424-0.625-5.649-1.85c-1.225-1.225-1.85-3.174-1.924-5.849v-9.973H34.674z"/>
	<path class="st2" d="M51.05,364.104v-17.496h4.549l8.373,11.373v-11.373h4.549v17.496h-4.549l-8.373-11.372v11.372H51.05z"/>
	<path class="st2" d="M84.222,350.457h-5.398v3.849h5.099v3.249h-5.099v2.7h5.398v3.849h-9.947v-17.496h9.947V350.457z"/>
	<path class="st2" d="M88.725,364.104l2.974-17.496h4.199l3.799,9.998l3.774-9.998h4.199l2.975,17.496h-4.55l-1.475-10.072
		l-4.224,10.072h-1.625l-4.023-10.072l-1.475,10.072H88.725z"/>
	<path class="st2" d="M119.423,364.104h-4.549v-17.496h6.073c2.3,0,3.874,0.601,5.074,1.525c1.324,1.024,1.849,2.824,1.849,4.573
		c0,1.95-0.749,3.524-1.849,4.574c-1.3,1.05-2.55,1.524-5.074,1.524l-1.524,0.025C119.423,358.829,119.423,364.104,119.423,364.104z
		 M119.447,355.581h1.05c1.85,0,3.149-1.325,3.149-2.875c0-1.999-1.3-2.874-3.074-2.874h-1.125
		C119.447,349.832,119.447,355.581,119.447,355.581z"/>
	<path class="st2" d="M137.298,346.607v14.247h5.448v3.249h-9.997v-17.496H137.298z"/>
</g>
<g>
	<path class="st2" d="M162.071,361.729c-1.75,1.674-4.199,2.549-6.748,2.549c-2.524,0-4.999-0.875-6.724-2.549
		c-1.824-1.725-2.699-4.1-2.699-6.374s0.875-4.674,2.699-6.398c1.725-1.649,4.199-2.524,6.724-2.524
		c2.549,0,4.998,0.875,6.748,2.524c1.8,1.725,2.675,4.124,2.675,6.398S163.871,360.005,162.071,361.729z M151.874,352.081
		c-0.925,0.9-1.35,2.149-1.35,3.375c0,1.499,0.699,2.549,1.35,3.174c0.824,0.774,1.975,1.35,3.449,1.35
		c1.524,0,2.649-0.55,3.424-1.324c0.8-0.8,1.399-1.975,1.399-3.3c0-1.324-0.6-2.499-1.399-3.274c-0.95-0.899-2.249-1.35-3.424-1.35
		C154.099,350.731,152.799,351.156,151.874,352.081z"/>
</g>
<g>
	<path class="st2" d="M172.398,357.555L166,346.607h4.849l3.849,6.648l3.375-6.648h4.849l-5.974,10.947v6.549h-4.549v-6.548H172.398
		z"/>
	<path class="st2" d="M184.3,364.104l2.974-17.496h4.199l3.799,9.998l3.774-9.998h4.199l2.975,17.496h-4.55l-1.475-10.072
		l-4.224,10.072h-1.624l-4.024-10.072l-1.475,10.072H184.3z"/>
	<path class="st2" d="M220.672,350.457h-5.398v3.849h5.099v3.249h-5.099v2.7h5.398v3.849h-9.947v-17.496h9.947V350.457z"/>
	<path class="st2" d="M226.425,364.104v-17.496h4.549l8.373,11.373v-11.373h4.549v17.496h-4.549l-8.373-11.372v11.372H226.425z"/>
	<path class="st2" d="M256.672,349.857v14.246h-4.549l0.025-14.246h-3.749v-3.25h11.997v3.25H256.672z"/>
	<path class="st2" d="M264.648,361.529h3.549l-4.074,7.498h-2.449L264.648,361.529z"/>
</g>
<g>
	<path class="st2" d="M30.125,580.2v-17.496h5.974c1.749,0,4.698,0.226,6.948,2.399c2.049,1.975,2.449,4.499,2.449,6.374
		c0,2.324-0.6,4.349-2.3,6.048c-1.399,1.4-3.724,2.675-6.723,2.675H30.125z M34.674,576.326h0.899c1.125,0,2.675-0.1,3.85-1.25
		c0.574-0.55,1.324-1.649,1.324-3.599c0-1.625-0.5-2.999-1.35-3.824c-1.075-1-2.499-1.1-3.624-1.1h-1.1L34.674,576.326
		L34.674,576.326z"/>
	<path class="st2" d="M65.421,577.826c-1.75,1.674-4.199,2.549-6.748,2.549c-2.524,0-4.999-0.875-6.724-2.549
		c-1.824-1.725-2.699-4.1-2.699-6.374s0.875-4.674,2.699-6.398c1.725-1.649,4.199-2.524,6.724-2.524
		c2.549,0,4.998,0.875,6.748,2.524c1.8,1.725,2.675,4.124,2.675,6.398S67.221,576.102,65.421,577.826z M55.224,568.178
		c-0.925,0.9-1.35,2.149-1.35,3.375c0,1.499,0.699,2.549,1.35,3.174c0.824,0.774,1.975,1.35,3.449,1.35
		c1.524,0,2.649-0.55,3.424-1.324c0.8-0.8,1.399-1.975,1.399-3.3c0-1.324-0.6-2.499-1.399-3.274c-0.95-0.899-2.249-1.35-3.424-1.35
		C57.448,566.828,56.148,567.253,55.224,568.178z"/>
</g>
<g>
	<path class="st2" d="M72.35,580.2v-17.496h4.549l8.373,11.373v-11.373h4.549V580.2h-4.549l-8.373-11.372V580.2H72.35z"/>
</g>
<g>
	<path class="st2" d="M105.322,576.326h-5.674l-1.475,3.874h-4.849l6.748-17.496h4.974l6.573,17.496h-4.849L105.322,576.326z
		 M104.422,573.077l-1.924-5.199l-1.85,5.199H104.422z"/>
</g>
<g>
	<path class="st2" d="M121.272,565.954V580.2h-4.549l0.025-14.246H113v-3.25h11.997v3.25L121.272,565.954L121.272,565.954z"/>
	<path class="st2" d="M139.697,566.554h-5.398v3.849h5.099v3.249h-5.099v2.7h5.398v3.849h-9.947v-17.496h9.947V566.554z"/>
</g>
<g>
	<path class="st2" d="M162.723,565.954V580.2h-4.549l0.025-14.246h-3.749v-3.25h11.997v3.25L162.723,565.954L162.723,565.954z"/>
</g>
<g>
	<path class="st2" d="M185.746,577.826c-1.75,1.674-4.199,2.549-6.748,2.549c-2.524,0-4.999-0.875-6.724-2.549
		c-1.824-1.725-2.699-4.1-2.699-6.374s0.875-4.674,2.699-6.398c1.725-1.649,4.199-2.524,6.724-2.524
		c2.549,0,4.998,0.875,6.748,2.524c1.8,1.725,2.675,4.124,2.675,6.398S187.546,576.102,185.746,577.826z M175.549,568.178
		c-0.925,0.9-1.35,2.149-1.35,3.375c0,1.499,0.699,2.549,1.35,3.174c0.824,0.774,1.975,1.35,3.449,1.35
		c1.524,0,2.649-0.55,3.424-1.324c0.8-0.8,1.399-1.975,1.399-3.3c0-1.324-0.6-2.499-1.399-3.274c-0.95-0.899-2.249-1.35-3.424-1.35
		C177.773,566.828,176.474,567.253,175.549,568.178z"/>
</g>
<g>
	<path class="st2" d="M31.949,609.302c0.525,0.399,1.024,0.699,1.524,0.925c0.625,0.274,1.275,0.425,1.899,0.425
		c0.7,0,1.25-0.175,1.6-0.5c0.351-0.325,0.525-0.7,0.525-1.125c0-0.25-0.05-0.475-0.125-0.649c-0.1-0.176-0.25-0.351-0.45-0.525
		c-0.225-0.149-0.5-0.3-0.824-0.425l-1.225-0.45c-0.575-0.175-1.125-0.375-1.675-0.6c-0.55-0.2-1.025-0.5-1.45-0.85
		c-0.425-0.375-0.774-0.825-1.024-1.375c-0.275-0.524-0.4-1.225-0.4-2.074c0-0.825,0.125-1.574,0.426-2.274
		c0.274-0.675,0.649-1.25,1.149-1.75c0.5-0.475,1.125-0.85,1.85-1.124c0.725-0.275,1.524-0.4,2.424-0.4
		c0.851,0,1.725,0.125,2.625,0.351c0.899,0.225,1.774,0.574,2.624,1.024l-2.249,3.049c-0.55-0.35-1.675-0.774-2.325-0.774
		c-0.574,0-1.024,0.149-1.399,0.399c-0.35,0.275-0.524,0.625-0.524,1.05c0,0.3,0.074,0.55,0.274,0.75c0.175,0.2,0.4,0.375,0.7,0.5
		c0.3,0.15,0.625,0.275,0.975,0.375c0.375,0.1,0.725,0.225,1.1,0.325c1.425,0.5,2.475,1.124,3.149,1.924c0.649,0.8,1,1.85,1,3.125
		c0,0.874-0.15,1.649-0.45,2.349c-0.275,0.726-0.7,1.325-1.274,1.825c-0.55,0.5-1.25,0.875-2.05,1.149
		c-0.825,0.275-1.75,0.425-2.774,0.425c-2.149,0-4.124-0.625-5.948-1.899L31.949,609.302z"/>
	<path class="st2" d="M50.924,596.704v9.348c0,0.5,0.024,1.025,0.05,1.55c0.05,0.525,0.15,1,0.35,1.425
		c0.2,0.425,0.5,0.75,0.9,1.024c0.425,0.275,0.999,0.4,1.725,0.4c0.749,0,1.324-0.125,1.725-0.4c0.399-0.274,0.699-0.6,0.899-1.024
		s0.325-0.899,0.35-1.425c0.05-0.524,0.075-1.05,0.075-1.55v-9.348h4.549v9.973c-0.1,2.675-0.725,4.624-1.949,5.849
		s-3.1,1.85-5.648,1.85c-2.524,0-4.424-0.625-5.649-1.85s-1.85-3.174-1.924-5.849v-9.973H50.924z"/>
	<path class="st2" d="M70.974,614.2h-4.549v-17.496h6.073c2.3,0,3.874,0.601,5.074,1.525c1.324,1.024,1.849,2.824,1.849,4.573
		c0,1.95-0.749,3.524-1.849,4.574c-1.3,1.05-2.55,1.524-5.074,1.524l-1.524,0.025V614.2z M70.998,605.678h1.05
		c1.85,0,3.149-1.325,3.149-2.875c0-1.999-1.3-2.874-3.074-2.874h-1.125C70.998,599.929,70.998,605.678,70.998,605.678z"/>
	<path class="st2" d="M88.849,614.2H84.3v-17.496h6.073c2.3,0,3.874,0.601,5.074,1.525c1.324,1.024,1.849,2.824,1.849,4.573
		c0,1.95-0.749,3.524-1.849,4.574c-1.3,1.05-2.55,1.524-5.074,1.524l-1.524,0.025V614.2z M88.873,605.678h1.05
		c1.85,0,3.149-1.325,3.149-2.875c0-1.999-1.3-2.874-3.074-2.874h-1.125C88.873,599.929,88.873,605.678,88.873,605.678z"/>
</g>
<g>
	<path class="st2" d="M116.596,611.826c-1.75,1.674-4.199,2.549-6.748,2.549c-2.524,0-4.999-0.875-6.724-2.549
		c-1.824-1.725-2.699-4.1-2.699-6.374s0.875-4.674,2.699-6.398c1.725-1.649,4.199-2.524,6.724-2.524
		c2.549,0,4.998,0.875,6.748,2.524c1.8,1.725,2.675,4.124,2.675,6.398S118.396,610.102,116.596,611.826z M106.398,602.178
		c-0.925,0.9-1.35,2.149-1.35,3.375c0,1.499,0.699,2.549,1.35,3.174c0.824,0.774,1.975,1.35,3.449,1.35
		c1.524,0,2.649-0.55,3.424-1.324c0.8-0.8,1.399-1.975,1.399-3.3c0-1.324-0.6-2.499-1.399-3.274c-0.95-0.899-2.249-1.35-3.424-1.35
		C108.623,600.828,107.323,601.253,106.398,602.178z"/>
</g>
<g>
	<path class="st2" d="M128.074,608.927v5.273h-4.549v-17.496h5.599c4.273,0,7.272,2.1,7.272,6.349c0,2.225-1.174,4.624-3.924,5.349
		c-0.024,0,1,1.975,3.924,1.975v3.999C130.224,614.375,128.074,609.052,128.074,608.927z M128.074,605.803h1.05
		c1.85,0,3.149-1.2,3.149-2.75c0-1.999-1.3-3.124-3.074-3.124h-1.125V605.803z"/>
	<path class="st2" d="M148.897,599.954V614.2h-4.549l0.025-14.246h-3.749v-3.25h11.997v3.25L148.897,599.954L148.897,599.954z"/>
</g>
<g>
	<path class="st3" d="M337.647,103.663v14.246h-4.549l0.025-14.246h-3.749v-3.25h11.997v3.25H337.647z"/>
	<path class="st3" d="M350.273,108.111h6.573v-7.698h4.549v17.496h-4.549v-6.549h-6.573l0.025,6.549h-4.549v-17.496h4.549
		L350.273,108.111z"/>
	<path class="st3" d="M377.097,104.263h-5.398v3.849h5.099v3.249h-5.099v2.7h5.398v3.849h-9.947v-17.496h9.947V104.263z"/>
	<path class="st3" d="M392.599,117.909v-17.496h4.549l8.373,11.373v-11.373h4.549v17.496h-4.549l-8.373-11.372v11.372H392.599z"/>
	<path class="st3" d="M425.771,104.263h-5.398v3.849h5.099v3.249h-5.099v2.7h5.398v3.849h-9.947v-17.496h9.947V104.263z"/>
	<path class="st3" d="M441.471,104.263h-5.398v3.849h5.099v3.249h-5.099v2.7h5.398v3.849h-9.947v-17.496h9.947V104.263z"/>
</g>
<g>
	<path class="st3" d="M446.975,117.909v-17.496h5.974c1.749,0,4.698,0.226,6.948,2.399c2.049,1.975,2.449,4.499,2.449,6.374
		c0,2.324-0.6,4.349-2.3,6.048c-1.399,1.4-3.724,2.675-6.723,2.675H446.975z M451.523,114.035h0.899c1.125,0,2.675-0.1,3.85-1.25
		c0.574-0.55,1.324-1.649,1.324-3.599c0-1.625-0.5-2.999-1.35-3.824c-1.075-1-2.499-1.1-3.624-1.1h-1.1v9.773H451.523z"/>
</g>
<g>
	<path class="st3" d="M340.147,138.263h-5.474v3.849h4.999v3.249h-4.999v6.549h-4.549v-17.496h10.022v3.849H340.147z"/>
</g>
<g>
	<path class="st3" d="M360.696,149.535c-1.75,1.674-4.199,2.549-6.748,2.549c-2.524,0-4.999-0.875-6.724-2.549
		c-1.824-1.725-2.699-4.1-2.699-6.374s0.875-4.674,2.699-6.398c1.725-1.649,4.199-2.524,6.724-2.524
		c2.549,0,4.998,0.875,6.748,2.524c1.8,1.725,2.675,4.124,2.675,6.398S362.496,147.811,360.696,149.535z M350.499,139.887
		c-0.925,0.9-1.35,2.149-1.35,3.375c0,1.499,0.699,2.549,1.35,3.174c0.824,0.774,1.975,1.35,3.449,1.35
		c1.524,0,2.649-0.55,3.424-1.324c0.8-0.8,1.399-1.975,1.399-3.3c0-1.324-0.6-2.499-1.399-3.274c-0.95-0.899-2.249-1.35-3.424-1.35
		C352.724,138.537,351.424,138.962,350.499,139.887z"/>
</g>
<g>
	<path class="st3" d="M372.174,146.636v5.273h-4.549v-17.496h5.599c4.273,0,7.272,2.1,7.272,6.349c0,2.225-1.174,4.624-3.924,5.349
		c-0.024,0,1,1.975,3.924,1.975v3.999C374.323,152.084,372.174,146.761,372.174,146.636z M372.174,143.512h1.05
		c1.85,0,3.149-1.2,3.149-2.75c0-1.999-1.3-3.124-3.074-3.124h-1.125L372.174,143.512L372.174,143.512z"/>
	<path class="st3" d="M406.022,138.263h-5.474v3.849h4.999v3.249h-4.999v6.549H396v-17.496h10.022V138.263z"/>
</g>
<g>
	<path class="st3" d="M426.57,149.535c-1.75,1.674-4.199,2.549-6.748,2.549c-2.524,0-4.999-0.875-6.724-2.549
		c-1.824-1.725-2.699-4.1-2.699-6.374s0.875-4.674,2.699-6.398c1.725-1.649,4.199-2.524,6.724-2.524
		c2.549,0,4.998,0.875,6.748,2.524c1.8,1.725,2.675,4.124,2.675,6.398S428.37,147.811,426.57,149.535z M416.373,139.887
		c-0.925,0.9-1.35,2.149-1.35,3.375c0,1.499,0.699,2.549,1.35,3.174c0.824,0.774,1.975,1.35,3.449,1.35
		c1.524,0,2.649-0.55,3.424-1.324c0.8-0.8,1.399-1.975,1.399-3.3c0-1.324-0.6-2.499-1.399-3.274c-0.95-0.899-2.249-1.35-3.424-1.35
		C418.598,138.537,417.298,138.962,416.373,139.887z"/>
	<path class="st3" d="M449.295,149.535c-1.75,1.674-4.199,2.549-6.748,2.549c-2.524,0-4.999-0.875-6.724-2.549
		c-1.824-1.725-2.699-4.1-2.699-6.374s0.875-4.674,2.699-6.398c1.725-1.649,4.199-2.524,6.724-2.524
		c2.549,0,4.998,0.875,6.748,2.524c1.8,1.725,2.675,4.124,2.675,6.398S451.095,147.811,449.295,149.535z M439.098,139.887
		c-0.925,0.9-1.35,2.149-1.35,3.375c0,1.499,0.699,2.549,1.35,3.174c0.824,0.774,1.975,1.35,3.449,1.35
		c1.524,0,2.649-0.55,3.424-1.324c0.8-0.8,1.399-1.975,1.399-3.3c0-1.324-0.6-2.499-1.399-3.274c-0.95-0.899-2.249-1.35-3.424-1.35
		C441.322,138.537,440.022,138.962,439.098,139.887z"/>
	<path class="st3" d="M456.849,151.909v-17.496h5.974c1.749,0,4.698,0.226,6.948,2.399c2.049,1.975,2.449,4.499,2.449,6.374
		c0,2.324-0.6,4.349-2.3,6.048c-1.399,1.4-3.724,2.675-6.723,2.675H456.849z M461.397,148.035h0.899c1.125,0,2.675-0.1,3.85-1.25
		c0.574-0.55,1.324-1.649,1.324-3.599c0-1.625-0.5-2.999-1.35-3.824c-1.075-1-2.499-1.1-3.624-1.1h-1.1v9.773H461.397z"/>
</g>
<g>
	<path class="st3" d="M334.674,168.413v17.496h-4.549v-17.496H334.674z"/>
	<path class="st3" d="M341.749,181.011c0.525,0.399,1.024,0.699,1.524,0.925c0.625,0.274,1.275,0.425,1.899,0.425
		c0.7,0,1.25-0.175,1.6-0.5c0.351-0.325,0.525-0.7,0.525-1.125c0-0.25-0.05-0.475-0.125-0.649c-0.1-0.176-0.25-0.351-0.45-0.525
		c-0.225-0.149-0.5-0.3-0.824-0.425l-1.225-0.45c-0.575-0.175-1.125-0.375-1.675-0.6c-0.55-0.2-1.025-0.5-1.45-0.85
		c-0.425-0.375-0.774-0.825-1.024-1.375c-0.275-0.524-0.4-1.225-0.4-2.074c0-0.825,0.125-1.574,0.426-2.274
		c0.274-0.675,0.649-1.25,1.149-1.75c0.5-0.475,1.125-0.85,1.85-1.124c0.725-0.275,1.524-0.4,2.424-0.4
		c0.851,0,1.725,0.125,2.625,0.351c0.899,0.225,1.774,0.574,2.624,1.024l-2.249,3.049c-0.55-0.35-1.675-0.774-2.325-0.774
		c-0.574,0-1.024,0.149-1.399,0.399c-0.35,0.275-0.524,0.625-0.524,1.05c0,0.3,0.075,0.55,0.274,0.75c0.175,0.2,0.4,0.375,0.7,0.5
		c0.3,0.15,0.625,0.275,0.975,0.375c0.375,0.1,0.725,0.225,1.1,0.325c1.425,0.5,2.475,1.124,3.149,1.924c0.649,0.8,1,1.85,1,3.125
		c0,0.874-0.15,1.649-0.45,2.349c-0.274,0.726-0.7,1.325-1.274,1.825c-0.55,0.5-1.25,0.875-2.05,1.149
		c-0.825,0.275-1.749,0.425-2.774,0.425c-2.149,0-4.124-0.625-5.948-1.899L341.749,181.011z"/>
	<path class="st3" d="M375.622,176.111h8.849c0,0.925-0.051,1.774-0.125,2.5c-0.075,0.699-0.226,1.399-0.45,2.024
		c-0.3,0.874-0.725,1.675-1.25,2.35c-0.524,0.675-1.175,1.249-1.874,1.699c-0.726,0.45-1.575,0.8-2.399,1.024
		c-0.875,0.275-1.775,0.375-2.75,0.375c-1.3,0-2.549-0.225-3.624-0.649c-1.1-0.4-2.049-1-2.799-1.774c-0.8-0.75-1.45-1.7-1.95-2.75
		c-0.449-1.05-0.699-2.424-0.699-3.749c0-1.324,0.325-2.574,0.75-3.674c0.425-1.075,1.124-2,1.924-2.8
		c0.8-0.749,1.75-1.35,2.85-1.799c1.075-0.425,2.324-0.65,3.699-0.65c1.774,0,3.274,0.351,4.599,1.1
		c1.149,0.65,2.199,1.75,2.925,3.024l-3.975,2.35c-0.375-0.95-0.975-1.6-1.574-1.975c-0.625-0.399-1.175-0.6-1.975-0.6
		c-0.675-0.05-1.25,0.125-1.774,0.35c-0.525,0.226-1.1,0.55-1.475,1.05c-0.375,0.45-0.65,0.875-0.925,1.574
		c-0.25,0.65-0.4,1.4-0.4,2.125c0,0.675,0.101,1.475,0.375,2.074c0.225,0.625,0.5,1.15,0.899,1.6c0.375,0.425,0.75,0.75,1.375,1.05
		c0.55,0.275,1.2,0.375,1.949,0.375c0.476,0,0.875-0.024,1.3-0.175c0.375-0.125,0.675-0.3,1.025-0.525
		c0.324-0.225,0.524-0.499,0.749-0.85c0.25-0.399,0.45-0.975,0.45-1.425h-3.699L375.622,176.111L375.622,176.111z"/>
	<path class="st3" d="M393.873,180.636v5.273h-4.549v-17.496h5.599c4.273,0,7.272,2.1,7.272,6.349c0,2.225-1.174,4.624-3.924,5.349
		c-0.024,0,1,1.975,3.924,1.975v3.999C396.022,186.084,393.873,180.761,393.873,180.636z M393.873,177.512h1.05
		c1.85,0,3.149-1.2,3.149-2.75c0-1.999-1.3-3.124-3.074-3.124h-1.125L393.873,177.512L393.873,177.512z"/>
</g>
<g>
	<path class="st3" d="M422.521,183.535c-1.75,1.674-4.199,2.549-6.748,2.549c-2.524,0-4.999-0.875-6.724-2.549
		c-1.824-1.725-2.699-4.1-2.699-6.374s0.875-4.674,2.699-6.398c1.725-1.649,4.199-2.524,6.724-2.524
		c2.549,0,4.998,0.875,6.748,2.524c1.8,1.725,2.675,4.124,2.675,6.398S424.32,181.811,422.521,183.535z M412.323,173.887
		c-0.925,0.9-1.35,2.149-1.35,3.375c0,1.499,0.699,2.549,1.35,3.174c0.824,0.774,1.975,1.35,3.449,1.35
		c1.524,0,2.649-0.55,3.424-1.324c0.8-0.8,1.399-1.975,1.399-3.3c0-1.324-0.6-2.499-1.399-3.274c-0.95-0.899-2.249-1.35-3.424-1.35
		C414.548,172.537,413.248,172.962,412.323,173.887z"/>
	<path class="st3" d="M432.273,168.413l3.225,11.322l3.898-11.322h3.249l3.899,11.322l3.024-11.322h4.549l-5.024,17.496h-4.148
		l-3.924-11.098l-3.924,11.098h-4.149l-5.224-17.496H432.273z"/>
</g>
<g>
	<path class="st3" d="M462.523,168.413v17.496h-4.549v-17.496H462.523z"/>
	<path class="st3" d="M468.274,185.909v-17.496h4.549l8.373,11.373v-11.373h4.549v17.496h-4.549l-8.373-11.372v11.372H468.274z"/>
	<path class="st3" d="M499.446,176.111h8.849c0,0.925-0.051,1.774-0.125,2.5c-0.075,0.699-0.226,1.399-0.45,2.024
		c-0.3,0.874-0.725,1.675-1.25,2.35c-0.524,0.675-1.175,1.249-1.874,1.699c-0.726,0.45-1.575,0.8-2.399,1.024
		c-0.875,0.275-1.775,0.375-2.75,0.375c-1.3,0-2.549-0.225-3.624-0.649c-1.1-0.4-2.049-1-2.799-1.774c-0.8-0.75-1.45-1.7-1.95-2.75
		c-0.449-1.05-0.699-2.424-0.699-3.749c0-1.324,0.325-2.574,0.75-3.674c0.425-1.075,1.124-2,1.924-2.8
		c0.8-0.749,1.75-1.35,2.85-1.799c1.075-0.425,2.324-0.65,3.699-0.65c1.774,0,3.274,0.351,4.599,1.1
		c1.149,0.65,2.199,1.75,2.925,3.024l-3.975,2.35c-0.375-0.95-0.975-1.6-1.574-1.975c-0.625-0.399-1.175-0.6-1.975-0.6
		c-0.675-0.05-1.25,0.125-1.774,0.35c-0.525,0.226-1.1,0.55-1.475,1.05c-0.375,0.45-0.65,0.875-0.925,1.574
		c-0.25,0.65-0.4,1.4-0.4,2.125c0,0.675,0.101,1.475,0.375,2.074c0.225,0.625,0.5,1.15,0.899,1.6c0.375,0.425,0.75,0.75,1.375,1.05
		c0.55,0.275,1.2,0.375,1.949,0.375c0.476,0,0.875-0.024,1.3-0.175c0.375-0.125,0.675-0.3,1.025-0.525
		c0.324-0.225,0.524-0.499,0.749-0.85c0.25-0.399,0.45-0.975,0.45-1.425h-3.699L499.446,176.111L499.446,176.111z"/>
	<path class="st3" d="M511.599,185.31c-0.3-0.375-0.8-0.975-0.8-1.875c0-0.949,0.5-1.524,0.8-1.899
		c0.649-0.575,1.324-0.75,1.85-0.75c0.649,0,1.324,0.226,1.925,0.8c0.425,0.425,0.725,1,0.725,1.85c0,0.8-0.3,1.375-0.775,1.875
		c-0.55,0.524-1.174,0.774-1.874,0.774C512.923,186.084,512.248,185.884,511.599,185.31z"/>
</g>
<g>
	<path class="st3" d="M343.472,394.305v3.999c-6.224,0-8.798-5.349-8.798-5.474v5.349h-4.549v-17.571h4.549v9.098l4.249-9.098h4.549
		l-4.849,10.998C338.572,391.63,340.272,394.305,343.472,394.305z"/>
	<path class="st3" d="M353.273,380.607v17.496h-4.549v-17.496H353.273z"/>
</g>
<g>
	<path class="st3" d="M359.025,398.104v-17.496h5.974c1.749,0,4.698,0.226,6.948,2.399c2.049,1.975,2.449,4.499,2.449,6.374
		c0,2.324-0.6,4.349-2.3,6.048c-1.399,1.4-3.724,2.675-6.723,2.675L359.025,398.104L359.025,398.104z M363.574,394.229h0.899
		c1.125,0,2.675-0.1,3.85-1.25c0.574-0.55,1.324-1.649,1.324-3.599c0-1.625-0.5-2.999-1.35-3.824c-1.075-1-2.499-1.1-3.624-1.1h-1.1
		v9.773H363.574z"/>
</g>
<g>
	<path class="st3" d="M380.474,393.205c0.525,0.399,1.024,0.699,1.524,0.925c0.625,0.274,1.275,0.425,1.899,0.425
		c0.7,0,1.25-0.175,1.6-0.5c0.351-0.325,0.525-0.7,0.525-1.125c0-0.25-0.05-0.475-0.125-0.649c-0.1-0.175-0.25-0.351-0.45-0.525
		c-0.225-0.149-0.5-0.3-0.824-0.425l-1.225-0.45c-0.575-0.175-1.125-0.374-1.675-0.6c-0.55-0.2-1.025-0.5-1.45-0.85
		c-0.425-0.375-0.774-0.825-1.024-1.375c-0.275-0.524-0.4-1.225-0.4-2.074c0-0.825,0.125-1.574,0.426-2.274
		c0.274-0.675,0.649-1.25,1.149-1.75c0.5-0.475,1.125-0.85,1.85-1.124c0.725-0.275,1.524-0.4,2.424-0.4
		c0.851,0,1.725,0.125,2.625,0.351c0.899,0.225,1.774,0.574,2.624,1.024l-2.249,3.049c-0.55-0.35-1.675-0.774-2.325-0.774
		c-0.574,0-1.024,0.149-1.399,0.399c-0.35,0.275-0.524,0.625-0.524,1.05c0,0.3,0.075,0.55,0.274,0.75c0.175,0.2,0.4,0.375,0.7,0.5
		c0.3,0.15,0.625,0.275,0.975,0.375c0.375,0.1,0.725,0.225,1.1,0.325c1.425,0.5,2.475,1.124,3.149,1.924c0.649,0.8,1,1.85,1,3.125
		c0,0.874-0.15,1.649-0.45,2.349c-0.274,0.726-0.7,1.325-1.274,1.825c-0.55,0.5-1.25,0.875-2.05,1.149
		c-0.825,0.275-1.749,0.425-2.774,0.425c-2.149,0-4.124-0.625-5.948-1.899L380.474,393.205z"/>
</g>
<g>
	<path class="st3" d="M421.195,395.729c-1.75,1.674-4.199,2.549-6.748,2.549c-2.524,0-4.999-0.875-6.724-2.549
		c-1.824-1.725-2.699-4.1-2.699-6.374s0.875-4.674,2.699-6.398c1.725-1.649,4.199-2.524,6.724-2.524
		c2.549,0,4.998,0.875,6.748,2.524c1.8,1.725,2.675,4.124,2.675,6.398S422.995,394.005,421.195,395.729z M410.998,386.081
		c-0.925,0.9-1.35,2.149-1.35,3.375c0,1.499,0.699,2.549,1.35,3.174c0.824,0.774,1.975,1.35,3.449,1.35
		c1.524,0,2.649-0.55,3.424-1.324c0.8-0.8,1.399-1.975,1.399-3.3c0-1.324-0.6-2.499-1.399-3.274c-0.95-0.899-2.249-1.35-3.424-1.35
		C413.223,384.731,411.923,385.156,410.998,386.081z"/>
</g>
<g>
	<path class="st3" d="M432.674,380.607v9.348c0,0.5,0.024,1.025,0.05,1.55c0.05,0.525,0.15,1,0.35,1.425s0.5,0.75,0.9,1.024
		c0.425,0.275,0.999,0.4,1.725,0.4c0.749,0,1.324-0.125,1.725-0.4c0.399-0.274,0.699-0.6,0.899-1.024s0.325-0.899,0.35-1.425
		c0.05-0.524,0.075-1.05,0.075-1.55v-9.348h4.549v9.973c-0.1,2.675-0.725,4.624-1.949,5.849s-3.1,1.85-5.648,1.85
		c-2.524,0-4.424-0.625-5.649-1.85c-1.225-1.225-1.85-3.174-1.924-5.849v-9.973H432.674z"/>
	<path class="st3" d="M455.697,383.857v14.246h-4.549l0.025-14.246h-3.749v-3.25h11.997v3.25H455.697z"/>
</g>
<g>
	<path class="st3" d="M489.971,395.729c-1.75,1.674-4.199,2.549-6.748,2.549c-2.524,0-4.999-0.875-6.724-2.549
		c-1.824-1.725-2.699-4.1-2.699-6.374s0.875-4.674,2.699-6.398c1.725-1.649,4.199-2.524,6.724-2.524
		c2.549,0,4.998,0.875,6.748,2.524c1.8,1.725,2.675,4.124,2.675,6.398S491.771,394.005,489.971,395.729z M479.773,386.081
		c-0.925,0.9-1.35,2.149-1.35,3.375c0,1.499,0.699,2.549,1.35,3.174c0.824,0.774,1.975,1.35,3.449,1.35
		c1.524,0,2.649-0.55,3.424-1.324c0.8-0.8,1.399-1.975,1.399-3.3c0-1.324-0.6-2.499-1.399-3.274c-0.95-0.899-2.249-1.35-3.424-1.35
		C481.998,384.731,480.698,385.156,479.773,386.081z"/>
</g>
<g>
	<path class="st3" d="M507.547,384.457h-5.474v3.849h4.999v3.249h-4.999v6.549h-4.549v-17.496h10.022v3.849H507.547z"/>
</g>
<g>
	<path class="st3" d="M331.949,427.205c0.525,0.399,1.024,0.699,1.524,0.925c0.625,0.274,1.275,0.425,1.899,0.425
		c0.7,0,1.25-0.175,1.6-0.5c0.351-0.325,0.525-0.7,0.525-1.125c0-0.25-0.05-0.475-0.125-0.649c-0.1-0.175-0.25-0.351-0.45-0.525
		c-0.225-0.149-0.5-0.3-0.824-0.425l-1.225-0.45c-0.575-0.175-1.125-0.374-1.675-0.6c-0.55-0.2-1.025-0.5-1.45-0.85
		c-0.425-0.375-0.774-0.825-1.024-1.375c-0.275-0.524-0.4-1.225-0.4-2.074c0-0.825,0.125-1.574,0.426-2.274
		c0.274-0.675,0.649-1.25,1.149-1.75c0.5-0.475,1.125-0.85,1.85-1.124c0.725-0.275,1.524-0.4,2.424-0.4
		c0.851,0,1.725,0.125,2.625,0.351c0.899,0.225,1.774,0.574,2.624,1.024l-2.249,3.049c-0.55-0.35-1.675-0.774-2.325-0.774
		c-0.574,0-1.024,0.149-1.399,0.399c-0.35,0.275-0.524,0.625-0.524,1.05c0,0.3,0.074,0.55,0.274,0.75c0.175,0.2,0.4,0.375,0.7,0.5
		c0.3,0.15,0.625,0.275,0.975,0.375c0.375,0.1,0.725,0.225,1.1,0.325c1.425,0.5,2.475,1.124,3.149,1.924c0.649,0.8,1,1.85,1,3.125
		c0,0.874-0.15,1.649-0.45,2.349c-0.275,0.726-0.7,1.325-1.274,1.825c-0.55,0.5-1.25,0.875-2.05,1.149
		c-0.825,0.275-1.75,0.425-2.774,0.425c-2.149,0-4.124-0.625-5.948-1.899L331.949,427.205z"/>
</g>
<g>
	<path class="st3" d="M358.922,419.731c-1.225-0.899-2.225-1.199-3.774-1.199c-0.649,0-1.199,0.125-1.8,0.374
		c-0.55,0.2-1.124,0.551-1.524,0.95c-0.375,0.425-0.699,0.875-0.925,1.425c-0.225,0.625-0.375,1.25-0.375,1.925
		c0,0.624,0.101,1.249,0.351,1.85c0.225,0.55,0.55,1.074,0.949,1.475c0.4,0.425,0.975,0.699,1.55,0.925
		c0.899,0.425,1.949,0.449,2.949,0.324c0.45-0.05,0.85-0.125,1.25-0.3c0.175-0.05,1.35-0.475,1.35-0.649l0.024,4.398l-0.475,0.2
		c-0.675,0.225-1.25,0.399-1.874,0.524c-0.601,0.125-1.15,0.15-1.75,0.15c-1.125-0.025-2.3-0.25-3.35-0.625
		c-1.024-0.45-2.099-1.05-2.898-1.824c-0.825-0.8-1.475-1.75-1.975-2.85c-0.5-1.074-0.75-2.324-0.75-3.599
		c0-1.3,0.325-2.575,0.824-3.624c0.476-1.101,1.175-2.075,2-2.85c0.8-0.775,1.75-1.375,2.824-1.824
		c1.075-0.426,2.199-0.65,3.35-0.65c0.699,0,1.299,0.075,2.024,0.225c0.625,0.125,1.324,0.375,2.049,0.65L358.922,419.731z"/>
</g>
<g>
	<path class="st3" d="M368.724,422.306h6.573v-7.698h4.549v17.496h-4.549v-6.549h-6.573l0.025,6.549H364.2v-17.496h4.549
		L368.724,422.306z"/>
</g>
<g>
	<path class="st3" d="M400.396,429.729c-1.75,1.674-4.199,2.549-6.748,2.549c-2.524,0-4.999-0.875-6.724-2.549
		c-1.824-1.725-2.699-4.1-2.699-6.374s0.875-4.674,2.699-6.398c1.725-1.649,4.199-2.524,6.724-2.524
		c2.549,0,4.998,0.875,6.748,2.524c1.8,1.725,2.675,4.124,2.675,6.398S402.196,428.005,400.396,429.729z M390.199,420.081
		c-0.925,0.9-1.35,2.149-1.35,3.375c0,1.499,0.699,2.549,1.35,3.174c0.824,0.774,1.975,1.35,3.449,1.35
		c1.524,0,2.649-0.55,3.424-1.324c0.8-0.8,1.399-1.975,1.399-3.3c0-1.324-0.6-2.499-1.399-3.274c-0.95-0.899-2.249-1.35-3.424-1.35
		C392.424,418.731,391.124,419.156,390.199,420.081z"/>
	<path class="st3" d="M423.121,429.729c-1.75,1.674-4.199,2.549-6.748,2.549c-2.524,0-4.999-0.875-6.724-2.549
		c-1.824-1.725-2.699-4.1-2.699-6.374s0.875-4.674,2.699-6.398c1.725-1.649,4.199-2.524,6.724-2.524
		c2.549,0,4.998,0.875,6.748,2.524c1.8,1.725,2.675,4.124,2.675,6.398S424.921,428.005,423.121,429.729z M412.924,420.081
		c-0.925,0.9-1.35,2.149-1.35,3.375c0,1.499,0.699,2.549,1.35,3.174c0.824,0.774,1.975,1.35,3.449,1.35
		c1.524,0,2.649-0.55,3.424-1.324c0.8-0.8,1.399-1.975,1.399-3.3c0-1.324-0.6-2.499-1.399-3.274c-0.95-0.899-2.249-1.35-3.424-1.35
		C415.148,418.731,413.849,419.156,412.924,420.081z"/>
</g>
<g>
	<path class="st3" d="M435.474,414.607v14.247h5.448v3.249h-9.997v-17.496H435.474z"/>
	<path class="st3" d="M445.475,431.504c-0.3-0.375-0.8-0.975-0.8-1.875c0-0.949,0.5-1.524,0.8-1.899
		c0.649-0.575,1.324-0.75,1.85-0.75c0.649,0,1.324,0.226,1.925,0.8c0.425,0.425,0.725,1,0.725,1.85c0,0.8-0.3,1.375-0.775,1.875
		c-0.55,0.524-1.174,0.774-1.874,0.774C446.799,432.278,446.124,432.078,445.475,431.504z"/>
</g>
<g>
	<path class="st3" d="M345.796,645.826c-1.75,1.674-4.199,2.549-6.748,2.549c-2.524,0-4.999-0.875-6.724-2.549
		c-1.824-1.725-2.699-4.1-2.699-6.374s0.875-4.674,2.699-6.398c1.725-1.649,4.199-2.524,6.724-2.524
		c2.549,0,4.998,0.875,6.748,2.524c1.8,1.725,2.675,4.124,2.675,6.398S347.596,644.102,345.796,645.826z M335.599,636.178
		c-0.925,0.9-1.35,2.149-1.35,3.375c0,1.499,0.699,2.549,1.35,3.174c0.824,0.774,1.975,1.35,3.449,1.35
		c1.524,0,2.649-0.55,3.424-1.324c0.8-0.8,1.399-1.975,1.399-3.3c0-1.324-0.6-2.499-1.399-3.274c-0.95-0.899-2.249-1.35-3.424-1.35
		C337.823,634.828,336.523,635.253,335.599,636.178z"/>
</g>
<g>
	<path class="st3" d="M357.273,630.704v9.348c0,0.5,0.024,1.025,0.05,1.55c0.05,0.525,0.15,1,0.35,1.425s0.5,0.75,0.9,1.024
		c0.425,0.275,0.999,0.4,1.725,0.4c0.749,0,1.324-0.125,1.725-0.4c0.399-0.274,0.699-0.6,0.899-1.024s0.325-0.899,0.35-1.425
		c0.05-0.524,0.075-1.05,0.075-1.55v-9.348h4.549v9.973c-0.1,2.675-0.725,4.624-1.949,5.849s-3.1,1.85-5.648,1.85
		c-2.524,0-4.424-0.625-5.649-1.85c-1.225-1.225-1.85-3.174-1.924-5.849v-9.973H357.273z"/>
	<path class="st3" d="M377.698,642.927v5.273h-4.549v-17.496h5.599c4.273,0,7.273,2.1,7.273,6.349c0,2.225-1.175,4.624-3.925,5.349
		c-0.024,0,1,1.975,3.925,1.975v3.999C379.848,648.375,377.698,643.052,377.698,642.927z M377.698,639.803h1.05
		c1.85,0,3.149-1.2,3.149-2.75c0-1.999-1.3-3.124-3.075-3.124h-1.124L377.698,639.803L377.698,639.803z"/>
</g>
<g>
	<path class="st3" d="M414.071,635.828c-1.225-0.899-2.225-1.199-3.774-1.199c-0.649,0-1.199,0.125-1.8,0.375
		c-0.55,0.199-1.124,0.55-1.524,0.949c-0.375,0.425-0.699,0.875-0.925,1.425c-0.225,0.625-0.375,1.25-0.375,1.925
		c0,0.624,0.101,1.249,0.351,1.85c0.225,0.55,0.55,1.074,0.949,1.475c0.4,0.425,0.975,0.699,1.55,0.925
		c0.899,0.425,1.949,0.449,2.949,0.324c0.45-0.05,0.85-0.125,1.25-0.3c0.175-0.05,1.35-0.475,1.35-0.649l0.024,4.398l-0.475,0.2
		c-0.675,0.225-1.25,0.399-1.874,0.524c-0.601,0.125-1.15,0.15-1.75,0.15c-1.125-0.025-2.3-0.25-3.35-0.625
		c-1.024-0.45-2.099-1.05-2.898-1.824c-0.825-0.8-1.475-1.75-1.975-2.85c-0.5-1.074-0.75-2.324-0.75-3.599
		c0-1.3,0.325-2.575,0.824-3.624c0.476-1.101,1.175-2.075,2-2.85c0.8-0.775,1.749-1.375,2.824-1.825
		c1.075-0.425,2.199-0.649,3.35-0.649c0.699,0,1.299,0.075,2.024,0.225c0.625,0.125,1.324,0.375,2.049,0.65L414.071,635.828z"/>
	<path class="st3" d="M434.395,645.826c-1.75,1.674-4.199,2.549-6.748,2.549c-2.524,0-4.999-0.875-6.724-2.549
		c-1.824-1.725-2.699-4.1-2.699-6.374s0.875-4.674,2.699-6.398c1.725-1.649,4.199-2.524,6.724-2.524
		c2.549,0,4.998,0.875,6.748,2.524c1.8,1.725,2.675,4.124,2.675,6.398S436.194,644.102,434.395,645.826z M424.197,636.178
		c-0.925,0.9-1.35,2.149-1.35,3.375c0,1.499,0.699,2.549,1.35,3.174c0.824,0.774,1.975,1.35,3.449,1.35
		c1.524,0,2.649-0.55,3.424-1.324c0.8-0.8,1.399-1.975,1.399-3.3c0-1.324-0.6-2.499-1.399-3.274c-0.95-0.899-2.249-1.35-3.424-1.35
		C426.422,634.828,425.122,635.253,424.197,636.178z"/>
	<path class="st3" d="M443.822,630.704l4.324,10.647l4.249-10.647h4.849l-7.373,17.496h-3.55l-7.348-17.496H443.822z"/>
</g>
<g>
	<path class="st3" d="M464.148,630.704V648.2H459.6v-17.496L464.148,630.704L464.148,630.704z"/>
</g>
<g>
	<path class="st3" d="M469.9,648.2v-17.496h5.974c1.749,0,4.698,0.226,6.948,2.399c2.049,1.975,2.449,4.499,2.449,6.374
		c0,2.324-0.6,4.349-2.3,6.048c-1.399,1.4-3.724,2.675-6.723,2.675H469.9z M474.449,644.326h0.899c1.125,0,2.675-0.1,3.85-1.25
		c0.574-0.55,1.324-1.649,1.324-3.599c0-1.625-0.5-2.999-1.35-3.824c-1.075-1-2.499-1.1-3.624-1.1h-1.1v9.773H474.449z"/>
	<path class="st3" d="M488.4,638.402h6.174v3.249H488.4V638.402z"/>
	<path class="st3" d="M504.098,630.704V648.2h-4.549v-14.246h-2.474v-3.25L504.098,630.704L504.098,630.704z"/>
	<path class="st3" d="M513.523,648.2l4.049-5.999c-0.649,0.2-1.6,0.45-2.449,0.375c-1.425-0.1-3.049-0.449-4.074-1.374
		c-1.35-1.2-1.949-2.649-1.949-4.124c0-1.6,0.425-3.149,1.774-4.499c1.725-1.699,3.874-2.05,5.523-2.05
		c2.975,0,4.724,1.125,5.674,2.1c0.825,0.85,1.574,2.175,1.574,4.049c0,2.35-1.175,4.624-2.549,6.448l-3.574,5.074L513.523,648.2
		L513.523,648.2z M514.173,634.804c-0.524,0.449-0.874,1.1-0.874,1.8c0,0.499,0.199,1.1,0.874,1.649
		c0.775,0.6,1.625,0.725,2.2,0.725c0.749,0,1.574-0.25,2.124-0.675c0.6-0.45,0.95-1.1,0.95-1.625c0-0.675-0.275-1.324-0.825-1.799
		c-0.75-0.625-1.625-0.8-2.249-0.8C515.323,634.079,514.623,634.453,514.173,634.804z"/>
</g>
<g>
	<path class="st3" d="M334.674,676.927v5.273h-4.549v-17.496h5.599c4.273,0,7.272,2.1,7.272,6.349c0,2.225-1.174,4.624-3.924,5.349
		c-0.024,0,1,1.975,3.924,1.975v3.999C336.823,682.375,334.674,677.052,334.674,676.927z M334.674,673.803h1.05
		c1.85,0,3.149-1.2,3.149-2.75c0-1.999-1.3-3.124-3.074-3.124h-1.125L334.674,673.803L334.674,673.803z"/>
	<path class="st3" d="M358.072,668.554h-5.398v3.849h5.099v3.249h-5.099v2.7h5.398v3.849h-9.947v-17.496h9.947V668.554z"/>
	<path class="st3" d="M364.774,677.302c0.525,0.399,1.024,0.699,1.524,0.925c0.625,0.274,1.275,0.425,1.899,0.425
		c0.7,0,1.25-0.175,1.6-0.5c0.351-0.325,0.525-0.7,0.525-1.125c0-0.25-0.05-0.475-0.125-0.649c-0.1-0.176-0.25-0.351-0.45-0.525
		c-0.225-0.149-0.5-0.3-0.824-0.425l-1.225-0.45c-0.575-0.175-1.125-0.375-1.675-0.6c-0.55-0.2-1.025-0.5-1.45-0.85
		c-0.425-0.375-0.774-0.825-1.024-1.375c-0.275-0.524-0.4-1.225-0.4-2.074c0-0.825,0.125-1.574,0.426-2.274
		c0.274-0.675,0.649-1.25,1.149-1.75c0.5-0.475,1.125-0.85,1.85-1.124c0.725-0.275,1.524-0.4,2.424-0.4
		c0.851,0,1.725,0.125,2.625,0.351c0.899,0.225,1.774,0.574,2.624,1.024l-2.249,3.049c-0.55-0.35-1.675-0.774-2.325-0.774
		c-0.574,0-1.024,0.149-1.399,0.399c-0.35,0.275-0.524,0.625-0.524,1.05c0,0.3,0.075,0.55,0.274,0.75c0.175,0.2,0.4,0.375,0.7,0.5
		c0.3,0.15,0.625,0.275,0.975,0.375c0.375,0.1,0.725,0.225,1.1,0.325c1.425,0.5,2.475,1.124,3.149,1.924c0.649,0.8,1,1.85,1,3.125
		c0,0.874-0.15,1.649-0.45,2.349c-0.274,0.726-0.7,1.325-1.274,1.825c-0.55,0.5-1.25,0.875-2.05,1.149
		c-0.825,0.275-1.749,0.425-2.774,0.425c-2.149,0-4.124-0.625-5.948-1.899L364.774,677.302z"/>
	<path class="st3" d="M383.999,682.2h-4.549v-17.496h6.073c2.3,0,3.874,0.601,5.074,1.525c1.324,1.024,1.849,2.824,1.849,4.573
		c0,1.95-0.749,3.524-1.849,4.574c-1.3,1.05-2.55,1.524-5.074,1.524l-1.524,0.025V682.2z M384.023,673.678h1.05
		c1.85,0,3.149-1.325,3.149-2.875c0-1.999-1.3-2.874-3.074-2.874h-1.125L384.023,673.678L384.023,673.678z"/>
</g>
<g>
	<path class="st3" d="M411.746,679.826c-1.75,1.674-4.199,2.549-6.748,2.549c-2.524,0-4.999-0.875-6.724-2.549
		c-1.824-1.725-2.699-4.1-2.699-6.374s0.875-4.674,2.699-6.398c1.725-1.649,4.199-2.524,6.724-2.524
		c2.549,0,4.998,0.875,6.748,2.524c1.8,1.725,2.675,4.124,2.675,6.398S413.546,678.102,411.746,679.826z M401.549,670.178
		c-0.925,0.9-1.35,2.149-1.35,3.375c0,1.499,0.699,2.549,1.35,3.174c0.824,0.774,1.975,1.35,3.449,1.35
		c1.524,0,2.649-0.55,3.424-1.324c0.8-0.8,1.399-1.975,1.399-3.3c0-1.324-0.6-2.499-1.399-3.274c-0.95-0.899-2.249-1.35-3.424-1.35
		C403.773,668.828,402.474,669.253,401.549,670.178z"/>
</g>
<g>
	<path class="st3" d="M418.675,682.2v-17.496h4.549l8.373,11.373v-11.373h4.549V682.2h-4.549l-8.373-11.372V682.2H418.675z"/>
	<path class="st3" d="M443.099,677.302c0.525,0.399,1.024,0.699,1.524,0.925c0.625,0.274,1.275,0.425,1.899,0.425
		c0.7,0,1.25-0.175,1.6-0.5c0.351-0.325,0.525-0.7,0.525-1.125c0-0.25-0.05-0.475-0.125-0.649c-0.1-0.176-0.25-0.351-0.45-0.525
		c-0.225-0.149-0.5-0.3-0.824-0.425l-1.225-0.45c-0.575-0.175-1.125-0.375-1.675-0.6c-0.55-0.2-1.025-0.5-1.45-0.85
		c-0.425-0.375-0.774-0.825-1.024-1.375c-0.275-0.524-0.4-1.225-0.4-2.074c0-0.825,0.125-1.574,0.426-2.274
		c0.274-0.675,0.649-1.25,1.149-1.75c0.5-0.475,1.125-0.85,1.85-1.124c0.725-0.275,1.524-0.4,2.424-0.4
		c0.851,0,1.725,0.125,2.625,0.351c0.899,0.225,1.774,0.574,2.624,1.024l-2.249,3.049c-0.55-0.35-1.675-0.774-2.325-0.774
		c-0.574,0-1.024,0.149-1.399,0.399c-0.35,0.275-0.524,0.625-0.524,1.05c0,0.3,0.075,0.55,0.274,0.75c0.175,0.2,0.4,0.375,0.7,0.5
		c0.3,0.15,0.625,0.275,0.975,0.375c0.375,0.1,0.725,0.225,1.1,0.325c1.425,0.5,2.475,1.124,3.149,1.924c0.649,0.8,1,1.85,1,3.125
		c0,0.874-0.15,1.649-0.45,2.349c-0.274,0.726-0.7,1.325-1.274,1.825c-0.55,0.5-1.25,0.875-2.05,1.149
		c-0.825,0.275-1.749,0.425-2.774,0.425c-2.149,0-4.124-0.625-5.948-1.899L443.099,677.302z"/>
	<path class="st3" d="M467.472,668.554h-5.398v3.849h5.099v3.249h-5.099v2.7h5.398v3.849h-9.947v-17.496h9.947V668.554z"/>
</g>
<path class="st3" d="M471.399,681.601c-0.3-0.375-0.8-0.975-0.8-1.875c0-0.949,0.5-1.524,0.8-1.899
	c0.649-0.575,1.324-0.75,1.85-0.75c0.649,0,1.324,0.226,1.925,0.8c0.425,0.425,0.725,1,0.725,1.85c0,0.8-0.3,1.375-0.775,1.875
	c-0.55,0.524-1.174,0.774-1.874,0.774C472.724,682.375,472.049,682.175,471.399,681.601z"/>
</svg>
