<?xml version="1.0" encoding="utf-8"?>
<!-- Generator: Adobe Illustrator 21.1.0, SVG Export Plug-In . SVG Version: 6.00 Build 0)  -->
<svg version="1.1" id="Layer_1" xmlns="http://www.w3.org/2000/svg" xmlns:xlink="http://www.w3.org/1999/xlink" x="0px" y="0px"
	 width="1500px" height="750px" viewBox="0 0 1500 750" style="enable-background:new 0 0 1500 750;" xml:space="preserve">
<style type="text/css">
	.st0{fill:#FFFFFF;}
	.st1{fill:#8ED8F8;}
</style>
<g>
	<path class="st0" d="M490.3,64.9h1.6v-4.3c0-1.1,0.7-1.9,1.8-1.9c0.9,0,1.4,0.5,1.4,1.6v4.6h1.6v-5c0-1.6-1-2.5-2.6-2.5
		c-1,0-1.8,0.5-2.2,1.1h0v-3.7h-1.6V64.9z M484.9,58.9h1.2v4.3c0,1.2,0.3,1.8,2,1.8c0.4,0,0.7-0.1,1-0.1v-1.2
		c-0.2,0.1-0.4,0.1-0.7,0.1c-0.7,0-0.8-0.3-0.8-1v-3.9h1.4v-1.2h-1.4v-2.2h-1.6v2.2h-1.2V58.9z M482.3,56.4h1.6v-1.5h-1.6V56.4z
		 M482.3,64.9h1.6v-7.2h-1.6V64.9z M473,64.9h1.7l1.3-5.4h0l1.3,5.4h1.6l2.3-7.2h-1.6l-1.5,5.4h0l-1.3-5.4h-1.6l-1.4,5.4h0l-1.4-5.4
		h-1.7L473,64.9z M459.9,62.6c0,1.7,1.4,2.5,3.2,2.5c1.5,0,3.2-0.6,3.2-2.4c0-1.4-1.2-1.8-2.3-2.1c-1.2-0.3-2.4-0.4-2.4-1.2
		c0-0.6,0.9-0.7,1.3-0.7c0.7,0,1.3,0.2,1.5,1h1.7c-0.2-1.6-1.5-2.2-3-2.2c-1.3,0-3,0.5-3,2.1c0,1.5,1.1,1.9,2.3,2.1
		c1.2,0.3,2.3,0.4,2.4,1.2c0,0.8-1,1-1.6,1c-0.9,0-1.6-0.3-1.6-1.3H459.9z M454.9,58.9h1.2v4.3c0,1.2,0.3,1.8,2,1.8
		c0.4,0,0.7-0.1,1-0.1v-1.2c-0.2,0.1-0.4,0.1-0.7,0.1c-0.7,0-0.8-0.3-0.8-1v-3.9h1.4v-1.2h-1.4v-2.2h-1.6v2.2h-1.2V58.9z
		 M447.6,64.9h1.6v-4.3c0-1.1,0.7-1.9,1.8-1.9c0.9,0,1.4,0.5,1.4,1.6v4.6h1.6v-5c0-1.6-1-2.5-2.6-2.5c-1,0-1.8,0.5-2.3,1.3l0,0v-1.1
		h-1.5V64.9z M441,60.7c0-1.1,0.8-1.9,1.9-1.9c1.1,0,1.8,0.9,1.8,1.9H441z M446.3,61.7c0.3-2.2-1.1-4.2-3.4-4.2
		c-2.2,0-3.5,1.8-3.5,3.8c0,2.2,1.3,3.8,3.5,3.8c1.6,0,2.9-0.9,3.3-2.5h-1.5c-0.3,0.8-0.8,1.2-1.8,1.2c-1.3,0-1.9-1-1.9-2.1H446.3z
		 M436.4,56.4h1.6v-1.5h-1.6V56.4z M436.4,64.9h1.6v-7.2h-1.6V64.9z M431,58.9h1.2v4.3c0,1.2,0.3,1.8,2,1.8c0.4,0,0.7-0.1,1-0.1
		v-1.2c-0.2,0.1-0.4,0.1-0.7,0.1c-0.7,0-0.8-0.3-0.8-1v-3.9h1.4v-1.2h-1.4v-2.2h-1.6v2.2H431V58.9z M430,59.6c0-1.5-1.5-2.1-2.9-2.1
		c-1.6,0-3.2,0.5-3.3,2.4h1.6c0.1-0.8,0.7-1.1,1.6-1.1c0.6,0,1.5,0.2,1.5,1c0,0.9-1,0.8-2.2,1c-1.3,0.2-2.8,0.4-2.8,2.3
		c0,1.4,1.2,2.1,2.5,2.1c0.9,0,1.9-0.3,2.5-0.9c0.1,0.7,0.6,0.9,1.2,0.9c0.3,0,0.8-0.1,1-0.2v-1.1c-0.2,0-0.3,0-0.4,0
		c-0.3,0-0.4-0.2-0.4-0.5V59.6z M428.4,62.5c0,1-1.1,1.4-1.8,1.4c-0.6,0-1.5-0.2-1.5-0.9c0-0.8,0.6-1.1,1.3-1.2
		c0.7-0.1,1.5-0.1,2-0.4V62.5z M415.4,67.6h1.6V64h0c0.5,0.8,1.5,1.1,2.4,1.1c2.1,0,3.1-1.8,3.1-3.8c0-2.1-1.1-3.9-3.4-3.9
		c-0.9,0-1.8,0.4-2.2,1.2h0v-1h-1.5V67.6z M421,61.3c0,1.3-0.5,2.5-2,2.5c-1.3,0-2-1.1-2-2.5c0-1.5,0.7-2.6,2-2.6
		C420.3,58.7,421,60,421,61.3 M409.9,57.7h-1.6v1h0c-0.4-0.8-1.2-1.2-2.1-1.2c-2.1,0-3.3,1.7-3.3,3.6c0,2.1,1,3.8,3.2,3.8
		c0.9,0,1.7-0.5,2.2-1.3h0v1.1c0,1.2-0.6,1.8-1.9,1.8c-0.8,0-1.5-0.2-1.7-1.1h-1.6c0.1,1.7,1.8,2.3,3.2,2.3c2.3,0,3.6-1.1,3.6-3.2
		V57.7z M406.4,63.7c-1.3,0-1.9-1.2-1.9-2.4c0-1.2,0.5-2.5,1.9-2.5c1.4,0,1.9,1.1,1.9,2.4C408.3,62.4,407.8,63.7,406.4,63.7
		 M395.2,64.9h1.6v-4.3c0-1.1,0.7-1.9,1.8-1.9c0.9,0,1.4,0.5,1.4,1.6v4.6h1.6v-5c0-1.6-1-2.5-2.6-2.5c-1,0-1.8,0.5-2.3,1.3l0,0v-1.1
		h-1.5V64.9z M391.8,56.4h1.6v-1.5h-1.6V56.4z M391.8,64.9h1.6v-7.2h-1.6V64.9z M383.3,67.6h1.6V64h0c0.5,0.8,1.5,1.1,2.4,1.1
		c2.1,0,3.1-1.8,3.1-3.8c0-2.1-1.1-3.9-3.4-3.9c-0.9,0-1.8,0.4-2.2,1.2h0v-1h-1.5V67.6z M388.9,61.3c0,1.3-0.5,2.5-2,2.5
		c-1.3,0-2-1.1-2-2.5c0-1.5,0.7-2.6,2-2.6C388.2,58.7,388.9,60,388.9,61.3 M379.9,64.9h1.6v-10h-1.6V64.9z M373.3,60.7
		c0-1.1,0.8-1.9,1.9-1.9c1.1,0,1.8,0.9,1.8,1.9H373.3z M378.7,61.7c0.3-2.2-1.1-4.2-3.4-4.2c-2.2,0-3.5,1.8-3.5,3.8
		c0,2.2,1.3,3.8,3.5,3.8c1.6,0,2.9-0.9,3.3-2.5H377c-0.3,0.8-0.8,1.2-1.8,1.2c-1.3,0-1.9-1-1.9-2.1H378.7z M364,64.9h1.6v-4.3
		c0-1.1,0.7-1.9,1.8-1.9c0.9,0,1.4,0.5,1.4,1.6v4.6h1.6v-5c0-1.6-1-2.5-2.6-2.5c-1,0-1.8,0.5-2.2,1.1h0v-3.7H364V64.9z M353.6,60.7
		c0-1.1,0.8-1.9,1.9-1.9c1.1,0,1.8,0.9,1.8,1.9H353.6z M358.9,61.7c0.3-2.2-1.1-4.2-3.4-4.2c-2.2,0-3.5,1.8-3.5,3.8
		c0,2.2,1.3,3.8,3.5,3.8c1.6,0,2.9-0.9,3.3-2.5h-1.5c-0.3,0.8-0.8,1.2-1.8,1.2c-1.3,0-1.9-1-1.9-2.1H358.9z M347.7,64.9h1.6v-3.4
		c0-1.6,0.9-2.5,2-2.5c0.2,0,0.5,0,0.7,0.1v-1.5c-0.1,0-0.2,0-0.6,0c-1,0-1.9,0.8-2.1,1.6h0v-1.4h-1.5V64.9z M344,58.9
		c1.1-0.1,1.8-1,1.8-2.1v-1.9H344v1.9h0.9c0,0.6-0.2,1.2-0.9,1.2V58.9z M337.3,60.7c0-1.1,0.8-1.9,1.9-1.9c1.1,0,1.8,0.9,1.8,1.9
		H337.3z M342.6,61.7c0.3-2.2-1.1-4.2-3.4-4.2c-2.2,0-3.5,1.8-3.5,3.8c0,2.2,1.3,3.8,3.5,3.8c1.6,0,2.9-0.9,3.3-2.5H341
		c-0.3,0.8-0.8,1.2-1.8,1.2c-1.3,0-1.9-1-1.9-2.1H342.6z M324.9,64.9h1.8l2-7.6h0l2,7.6h1.8l2.8-10h-1.8l-1.9,7.6h0l-2-7.6h-1.8
		l-2,7.6h0l-1.8-7.6h-1.8L324.9,64.9z"/>
</g>
<g>
	<path class="st1" d="M659.1,102.1h3.3V91.4h0l6.6,10.6h3.5V86.2h-3.3v10.7h0l-6.6-10.7h-3.5V102.1z M644.3,88.9h3.3
		c1.2,0,2.4,0.3,2.4,1.8c0,1.3-0.9,1.9-2.1,1.9h-3.5V88.9z M640.8,102.1h7.7c2.9,0,5.6-1.4,5.6-4.6c0-2-1-3.5-2.9-4
		c1.4-0.7,2.2-1.8,2.2-3.3c0-3-2-3.9-5.1-3.9h-7.5V102.1z M644.3,95h3.8c1.5,0,2.5,0.6,2.5,2.3c0,1.6-1.2,2.1-2.6,2.1h-3.7V95z
		 M629.8,90.1L629.8,90.1l2,5.8h-4.1L629.8,90.1z M622,102.1h3.5l1.2-3.5h5.9l1.2,3.5h3.6l-5.9-15.9h-3.6L622,102.1z"/>
</g>
<g>
	<path class="st1" d="M1070.2,102.1h11.2v-2.9h-7.7V86.2h-3.5V102.1z M1056.1,90.1L1056.1,90.1l2,5.8h-4.1L1056.1,90.1z
		 M1048.4,102.1h3.5l1.2-3.5h5.9l1.2,3.5h3.6l-5.9-15.9h-3.6L1048.4,102.1z M1025.9,102.1h3.3V90.9h0l3.9,11.1h2.7l3.9-11.3h0v11.3
		h3.3V86.2h-4.9l-3.5,10.9h0l-3.7-10.9h-4.9V102.1z M1011.5,88.9h3.8c1.6,0,2.4,0.7,2.4,2.2c0,1.6-0.8,2.3-2.4,2.3h-3.8V88.9z
		 M1008,102.1h3.5v-6.2h3.5c1.8,0,2.4,0.7,2.6,2.4c0.2,1.3,0.1,2.8,0.6,3.8h3.5c-0.6-0.9-0.6-2.8-0.7-3.8c-0.1-1.6-0.6-3.3-2.3-3.7
		v0c1.8-0.7,2.5-2.1,2.5-4c0-2.4-1.8-4.4-4.6-4.4h-8.6V102.1z M991.7,94.2c0-2.8,1.2-5.5,4.3-5.5c3.1,0,4.3,2.7,4.3,5.5
		c0,2.6-1.2,5.3-4.3,5.3C992.9,99.5,991.7,96.8,991.7,94.2 M988.3,94.2c0,4.6,2.9,8.3,7.8,8.3s7.8-3.7,7.8-8.3
		c0-4.7-2.9-8.4-7.8-8.4S988.3,89.5,988.3,94.2"/>
</g>
<g>
	<path class="st0" d="M1437.7,90.1L1437.7,90.1l2,5.8h-4.1L1437.7,90.1z M1429.9,102.1h3.5l1.2-3.5h5.9l1.2,3.5h3.6l-5.9-15.9h-3.6
		L1429.9,102.1z M1414.9,102.1h12.1v-2.9h-8.6v-3.9h7.7v-2.7h-7.7v-3.4h8.4v-2.9h-11.9V102.1z M1395.8,102.1h3.5v-6.9h6.4v6.9h3.5
		V86.2h-3.5v6.1h-6.4v-6.1h-3.5V102.1z"/>
</g>
<g>
	<path class="st0" d="M577.1,352.1h3.5v-12.9h4.8v-2.9h-13v2.9h4.8V352.1z M560.1,338.9h3.8c1.6,0,2.4,0.7,2.4,2.2
		c0,1.6-0.8,2.3-2.4,2.3h-3.8V338.9z M556.6,352.1h3.5v-6.2h3.5c1.8,0,2.4,0.7,2.6,2.4c0.2,1.3,0.1,2.8,0.6,3.8h3.5
		c-0.6-0.9-0.6-2.8-0.7-3.8c-0.1-1.6-0.6-3.3-2.3-3.7v0c1.8-0.7,2.5-2.1,2.5-4c0-2.4-1.8-4.4-4.6-4.4h-8.6V352.1z"/>
</g>
<g>
	<path class="st1" d="M775.1,379.5h3.5v-6.1l5.9-9.8h-3.9l-3.7,6.3l-3.7-6.3h-3.9l5.9,9.7V379.5z M751.4,379.5h3.5v-6.9h6.4v6.9h3.5
		v-15.9h-3.5v6.1h-6.4v-6.1h-3.5V379.5z M735.3,366.3h3.8c1.6,0,2.4,0.7,2.4,2.2c0,1.6-0.8,2.3-2.4,2.3h-3.8V366.3z M731.8,379.5
		h3.5v-6.2h3.5c1.8,0,2.4,0.7,2.6,2.4c0.2,1.3,0.1,2.8,0.6,3.8h3.5c-0.6-0.9-0.6-2.8-0.7-3.8c-0.1-1.6-0.6-3.3-2.3-3.7v0
		c1.8-0.7,2.5-2.1,2.5-4c0-2.4-1.8-4.4-4.6-4.4h-8.6V379.5z"/>
</g>
<g>
	<path class="st1" d="M1153.8,374.2c0,3.9,3.2,5.7,6.8,5.7c4.3,0,6.6-2.2,6.6-5.1c0-3.6-3.6-4.3-4.7-4.6c-4-1-4.7-1.2-4.7-2.4
		c0-1.3,1.3-1.8,2.4-1.8c1.7,0,3,0.5,3.1,2.4h3.4c0-3.7-3-5.1-6.4-5.1c-2.9,0-5.9,1.6-5.9,4.8c0,3,2.4,3.9,4.7,4.5
		c2.3,0.6,4.7,0.9,4.7,2.6c0,1.6-1.9,2-3.1,2c-1.9,0-3.5-0.8-3.5-2.9H1153.8z M1131.5,379.5h3.3v-11.1h0l3.9,11.1h2.7l3.9-11.3h0
		v11.3h3.3v-15.9h-4.9l-3.5,10.9h0l-3.7-10.9h-4.9V379.5z M1111,379.5h3.5v-6.9h6.4v6.9h3.5v-15.9h-3.5v6.1h-6.4v-6.1h-3.5V379.5z
		 M1098.7,379.5h3.5v-12.9h4.8v-2.9h-13v2.9h4.8V379.5z"/>
</g>
<g>
	<path class="st0" d="M1482.9,410.9h1.9V409h-1.9V410.9z M1479.1,410.9h1.6v-10h-1.6V410.9z M1477.1,405.6c0-1.5-1.5-2.1-2.9-2.1
		c-1.6,0-3.2,0.5-3.3,2.4h1.6c0.1-0.8,0.7-1.1,1.6-1.1c0.6,0,1.5,0.2,1.5,1c0,0.9-1,0.8-2.2,1c-1.3,0.2-2.8,0.4-2.8,2.3
		c0,1.4,1.2,2.1,2.5,2.1c0.9,0,1.9-0.3,2.5-0.9c0.1,0.7,0.6,0.9,1.2,0.9c0.3,0,0.8-0.1,1-0.2v-1.1c-0.2,0-0.3,0-0.4,0
		c-0.3,0-0.4-0.2-0.4-0.5V405.6z M1475.5,408.5c0,1-1.1,1.4-1.8,1.4c-0.6,0-1.5-0.2-1.5-0.9c0-0.8,0.6-1.1,1.3-1.2
		c0.7-0.1,1.5-0.1,2-0.4V408.5z M1458.6,410.9h1.6v-4.3c0-1.2,0.8-1.9,1.6-1.9c1,0,1.3,0.5,1.3,1.5v4.7h1.6v-4.2
		c0-1.2,0.5-1.9,1.5-1.9c1.2,0,1.3,0.8,1.3,1.9v4.2h1.6v-5c0-1.8-0.9-2.4-2.4-2.4c-1.1,0-1.7,0.5-2.3,1.2c-0.3-0.8-1.1-1.2-2-1.2
		c-1.1,0-1.8,0.5-2.2,1.2h0v-1h-1.5V410.9z M1453.4,410.9h1.6v-3.4c0-1.6,0.9-2.5,2-2.5c0.2,0,0.5,0,0.7,0.1v-1.5
		c-0.1,0-0.2,0-0.6,0c-1,0-1.9,0.8-2.1,1.6h0v-1.4h-1.5V410.9z M1448.1,411.1c2.3,0,3.7-1.6,3.7-3.8c0-2.2-1.3-3.8-3.7-3.8
		s-3.7,1.6-3.7,3.8C1444.4,409.5,1445.8,411.1,1448.1,411.1 M1448.1,409.9c-1.4,0-2.1-1.3-2.1-2.6c0-1.2,0.6-2.5,2.1-2.5
		s2.1,1.3,2.1,2.5C1450.2,408.5,1449.5,409.9,1448.1,409.9 M1436.5,410.9h1.6v-4.3c0-1.1,0.7-1.9,1.8-1.9c0.9,0,1.4,0.5,1.4,1.6v4.6
		h1.6v-5c0-1.6-1-2.5-2.6-2.5c-1,0-1.8,0.5-2.3,1.3l0,0v-1.1h-1.5V410.9z M1427,411.1c2.3,0,3.7-1.6,3.7-3.8c0-2.2-1.3-3.8-3.7-3.8
		c-2.3,0-3.7,1.6-3.7,3.8C1423.4,409.5,1424.7,411.1,1427,411.1 M1427,409.9c-1.4,0-2.1-1.3-2.1-2.6c0-1.2,0.6-2.5,2.1-2.5
		c1.4,0,2.1,1.3,2.1,2.5C1429.1,408.5,1428.5,409.9,1427,409.9 M1418,404.9h1.2v4.3c0,1.2,0.3,1.8,2,1.8c0.4,0,0.7-0.1,1-0.1v-1.2
		c-0.2,0.1-0.4,0.1-0.7,0.1c-0.7,0-0.8-0.3-0.8-1v-3.9h1.4v-1.2h-1.4v-2.2h-1.6v2.2h-1.2V404.9z M1406.8,410.9h1.6v-2.6l1-0.9
		l2.2,3.5h1.9l-3-4.6l2.8-2.7h-2l-2.9,2.9v-5.7h-1.6V410.9z M1405.2,406.1c-0.2-1.8-1.6-2.6-3.3-2.6c-2.4,0-3.6,1.7-3.6,3.9
		c0,2.1,1.2,3.7,3.5,3.7c1.9,0,3-1,3.3-2.9h-1.6c-0.2,1-0.8,1.7-1.7,1.7c-1.4,0-1.9-1.3-1.9-2.5c0-2.2,1.2-2.6,2-2.6
		c0.9,0,1.5,0.5,1.7,1.4H1405.2z M1396.7,405.6c0-1.5-1.5-2.1-2.9-2.1c-1.6,0-3.2,0.5-3.3,2.4h1.6c0.1-0.8,0.7-1.1,1.6-1.1
		c0.6,0,1.5,0.2,1.5,1c0,0.9-1,0.8-2.2,1c-1.3,0.2-2.8,0.4-2.8,2.3c0,1.4,1.2,2.1,2.5,2.1c0.9,0,1.9-0.3,2.5-0.9
		c0.1,0.7,0.6,0.9,1.2,0.9c0.3,0,0.8-0.1,1-0.2v-1.1c-0.2,0-0.3,0-0.4,0c-0.3,0-0.4-0.2-0.4-0.5V405.6z M1395.1,408.5
		c0,1-1.1,1.4-1.8,1.4c-0.6,0-1.5-0.2-1.5-0.9c0-0.8,0.6-1.1,1.3-1.2c0.7-0.1,1.5-0.1,2-0.4V408.5z M1381.9,410.9h1.5v-1h0
		c0.5,1,1.5,1.2,2.5,1.2c2.1,0,3.1-1.8,3.1-3.8c0-2.1-1.1-3.9-3.4-3.9c-0.8,0-1.7,0.4-2.2,1.1h0v-3.7h-1.6V410.9z M1387.4,407.3
		c0,1.3-0.5,2.5-2,2.5c-1.3,0-2-1.1-2-2.5c0-1.5,0.7-2.6,2-2.6C1386.8,404.7,1387.4,406,1387.4,407.3 M1372,404.9h1.2v4.3
		c0,1.2,0.3,1.8,2,1.8c0.3,0,0.7-0.1,1-0.1v-1.2c-0.2,0.1-0.4,0.1-0.7,0.1c-0.7,0-0.8-0.3-0.8-1v-3.9h1.4v-1.2h-1.4v-2.2h-1.6v2.2
		h-1.2V404.9z M1365.9,406.7c0-1.1,0.8-1.9,1.9-1.9c1.1,0,1.8,0.9,1.8,1.9H1365.9z M1371.2,407.7c0.3-2.2-1.1-4.2-3.4-4.2
		c-2.2,0-3.5,1.8-3.5,3.8c0,2.2,1.3,3.8,3.5,3.8c1.6,0,2.9-0.9,3.3-2.5h-1.5c-0.3,0.8-0.8,1.2-1.8,1.2c-1.3,0-1.9-1-1.9-2.1H1371.2z
		 M1362.8,403.7h-1.6v1h0c-0.4-0.8-1.2-1.2-2.1-1.2c-2.1,0-3.3,1.7-3.3,3.6c0,2.1,1,3.8,3.2,3.8c0.9,0,1.7-0.5,2.2-1.3h0v1.1
		c0,1.2-0.6,1.8-1.9,1.8c-0.8,0-1.5-0.2-1.7-1.1h-1.6c0.1,1.7,1.8,2.3,3.2,2.3c2.3,0,3.6-1.1,3.6-3.2V403.7z M1359.2,409.7
		c-1.3,0-1.9-1.2-1.9-2.4c0-1.2,0.5-2.5,1.9-2.5c1.4,0,1.9,1.1,1.9,2.4C1361.2,408.4,1360.6,409.7,1359.2,409.7"/>
</g>
<g>
	<g>
		<path class="st1" d="M265.3,531.2c0-0.6,0.4-1.6,1.8-1.6c1,0,1.5,0.6,1.7,1.6H265.3z M270.9,532.5c0.2-2.4-1.1-4.6-3.8-4.6
			c-2.4,0-4,1.8-4,4.1c0,2.4,1.5,4.1,4,4.1c1.8,0,3-0.8,3.6-2.6h-1.9c-0.1,0.5-0.8,1-1.7,1c-1.2,0-1.8-0.6-1.9-2H270.9z M261,525.8
			h-2.1v2.3h-1.3v1.4h1.3v4.6c0,1.5,1.1,1.8,2.4,1.8c0.4,0,0.9,0,1.2-0.1v-1.7c-0.2,0-0.4,0.1-0.7,0.1c-0.7,0-0.9-0.2-0.9-0.9v-3.8
			h1.6v-1.4H261V525.8z M256.7,528.1h-2.1v4.1c0,1.6-0.5,2.2-1.7,2.2c-1,0-1.4-0.6-1.4-1.9v-4.4h-2.1v4.8c0,1.9,0.6,3.2,2.8,3.2
			c0.9,0,1.8-0.4,2.4-1.3h0v1.1h2V528.1z M246.8,525.8h-2.1v2.3h-1.3v1.4h1.3v4.6c0,1.5,1.1,1.8,2.4,1.8c0.4,0,0.9,0,1.2-0.1v-1.7
			c-0.2,0-0.4,0.1-0.7,0.1c-0.7,0-0.9-0.2-0.9-0.9v-3.8h1.6v-1.4h-1.6V525.8z M242.4,525.2h-2.1v1.8h2.1V525.2z M240.3,535.9h2.1
			v-7.8h-2.1V535.9z M237.7,525.8h-2.1v2.3h-1.3v1.4h1.3v4.6c0,1.5,1.1,1.8,2.4,1.8c0.4,0,0.9,0,1.2-0.1v-1.7
			c-0.2,0-0.4,0.1-0.7,0.1c-0.7,0-0.9-0.2-0.9-0.9v-3.8h1.6v-1.4h-1.6V525.8z M226.5,533.4c0.1,2.1,1.8,2.7,3.6,2.7
			c1.8,0,3.5-0.7,3.5-2.7c0-1.4-1.2-1.9-2.5-2.2c-1.2-0.3-2.4-0.4-2.4-1.2c0-0.6,0.7-0.7,1.2-0.7c0.8,0,1.4,0.2,1.5,1.1h2
			c-0.2-1.9-1.7-2.5-3.4-2.5c-1.7,0-3.4,0.5-3.4,2.5c0,1.4,1.2,1.8,2.5,2.1c1.5,0.3,2.4,0.6,2.4,1.2c0,0.8-0.8,1-1.4,1
			c-0.8,0-1.6-0.4-1.6-1.3H226.5z M218,535.9h2.1v-4.1c0-1.6,0.5-2.2,1.7-2.2c1,0,1.4,0.6,1.4,1.9v4.4h2.1v-4.8
			c0-1.9-0.6-3.2-2.8-3.2c-0.9,0-1.8,0.4-2.4,1.3h0v-1.1h-2V535.9z M213.8,535.9h2.4v-10.7h-2.4V535.9z M203.6,535.9h2.1v-3.5
			c0-1.4,0.5-2.5,2.1-2.5c0.3,0,0.6,0,0.8,0.1v-2c-0.1,0-0.3-0.1-0.5-0.1c-1,0-2.1,0.7-2.5,1.7h0v-1.4h-2V535.9z M197,530.5
			c0.1-0.8,0.6-1.2,1.4-1.2c0.8,0,1.4,0.1,1.4,1.1c0,0.9-1.2,0.8-2.5,1c-1.3,0.2-2.6,0.6-2.6,2.4c0,1.6,1.2,2.3,2.6,2.3
			c0.9,0,1.9-0.3,2.6-1c0,0.3,0.1,0.5,0.2,0.8h2.2c-0.2-0.3-0.3-1-0.3-1.7v-4c0-1.9-1.9-2.2-3.4-2.2c-1.7,0-3.5,0.6-3.6,2.6H197z
			 M199.8,532.9c0,0.5-0.1,1.8-1.7,1.8c-0.7,0-1.3-0.2-1.3-1c0-0.8,0.6-1,1.3-1.1c0.7-0.1,1.4-0.1,1.8-0.5V532.9z M191.2,535.9h2.1
			v-10.7h-2.1V535.9z M189.5,528.1h-2.1v4.1c0,1.6-0.5,2.2-1.6,2.2c-1,0-1.4-0.6-1.4-1.9v-4.4h-2.1v4.8c0,1.9,0.6,3.2,2.8,3.2
			c0.9,0,1.8-0.4,2.4-1.3h0v1.1h2V528.1z M181,530.9c-0.1-2-1.8-2.9-3.6-2.9c-2.5,0-4,1.8-4,4.2c0,2.3,1.6,4,3.9,4
			c2,0,3.5-1.1,3.7-3.2H179c-0.1,0.9-0.7,1.6-1.7,1.6c-1.3,0-1.8-1.3-1.8-2.4c0-1.1,0.5-2.5,1.8-2.5c0.9,0,1.4,0.5,1.6,1.3H181z
			 M165.2,533.4c0.1,2.1,1.8,2.7,3.6,2.7c1.8,0,3.5-0.7,3.5-2.7c0-1.4-1.2-1.9-2.5-2.2c-1.2-0.3-2.4-0.4-2.4-1.2
			c0-0.6,0.7-0.7,1.2-0.7c0.8,0,1.4,0.2,1.5,1.1h2c-0.2-1.9-1.7-2.5-3.4-2.5c-1.7,0-3.4,0.5-3.4,2.5c0,1.4,1.2,1.8,2.5,2.1
			c1.5,0.3,2.4,0.6,2.4,1.2c0,0.8-0.8,1-1.4,1c-0.8,0-1.6-0.4-1.6-1.3H165.2z M159,530.5c0.1-0.8,0.6-1.2,1.4-1.2
			c0.8,0,1.4,0.1,1.4,1.1c0,0.9-1.2,0.8-2.5,1c-1.3,0.2-2.6,0.6-2.6,2.4c0,1.6,1.2,2.3,2.6,2.3c0.9,0,1.9-0.3,2.6-1
			c0,0.3,0.1,0.5,0.2,0.8h2.2c-0.2-0.3-0.3-1-0.3-1.7v-4c0-1.9-1.9-2.2-3.4-2.2c-1.7,0-3.5,0.6-3.6,2.6H159z M161.8,532.9
			c0,0.5-0.1,1.8-1.7,1.8c-0.7,0-1.3-0.2-1.3-1c0-0.8,0.6-1,1.3-1.1c0.7-0.1,1.4-0.1,1.8-0.5V532.9z M156,528.1h-2.1l-1.6,5.3h0
			l-1.6-5.3h-2.2l2.7,7.8h2.4L156,528.1z M141.9,532c0-1.2,0.4-2.5,1.9-2.5c1.5,0,1.9,1.2,1.9,2.5c0,1.2-0.4,2.5-1.9,2.5
			C142.3,534.5,141.9,533.3,141.9,532 M139.7,532c0,2.5,1.6,4.1,4,4.1c2.4,0,4-1.6,4-4.1c0-2.5-1.6-4.1-4-4.1
			C141.3,527.9,139.7,529.6,139.7,532 M138.3,525.2h-2.1v1.8h2.1V525.2z M136.2,535.9h2.1v-7.8h-2.1V535.9z M132.4,532
			c0,1.3-0.4,2.5-1.8,2.5c-1.3,0-1.9-1.3-1.9-2.5c0-1.3,0.5-2.5,1.9-2.5C132,529.5,132.4,530.7,132.4,532 M132.5,535.9h2v-10.7h-2.1
			v3.9h0h0c-0.5-0.8-1.4-1.2-2.3-1.2c-2.3,0-3.4,1.9-3.4,4c0,2.1,1.1,4.2,3.5,4.2c1,0,1.9-0.4,2.4-1.2h0V535.9z M121.4,535.9h2.1
			v-3.5c0-1.4,0.5-2.5,2.1-2.5c0.3,0,0.6,0,0.8,0.1v-2c-0.1,0-0.3-0.1-0.5-0.1c-1,0-2.1,0.7-2.5,1.7h0v-1.4h-2V535.9z M114.8,530.5
			c0.1-0.8,0.6-1.2,1.4-1.2c0.8,0,1.4,0.1,1.4,1.1c0,0.9-1.2,0.8-2.5,1c-1.3,0.2-2.6,0.6-2.6,2.4c0,1.6,1.2,2.3,2.6,2.3
			c0.9,0,1.9-0.3,2.6-1c0,0.3,0.1,0.5,0.1,0.8h2.2c-0.2-0.3-0.3-1-0.3-1.7v-4c0-1.9-1.9-2.2-3.4-2.2c-1.7,0-3.5,0.6-3.6,2.6H114.8z
			 M117.6,532.9c0,0.5-0.1,1.8-1.7,1.8c-0.7,0-1.3-0.2-1.3-1c0-0.8,0.6-1,1.3-1.1c0.7-0.1,1.4-0.1,1.8-0.5V532.9z M111.3,528.8
			c-0.3-2.5-2.3-3.9-4.6-3.9c-3.3,0-5.3,2.5-5.3,5.7c0,3.1,2,5.6,5.3,5.6c2.6,0,4.5-1.7,4.7-4.4h-2.3c-0.2,1.4-1,2.4-2.4,2.4
			c-2.1,0-2.9-1.8-2.9-3.6c0-1.9,0.8-3.7,2.9-3.7c1.2,0,2.2,0.8,2.3,1.9H111.3z M90.6,531.2c0-0.6,0.4-1.6,1.8-1.6
			c1,0,1.5,0.6,1.7,1.6H90.6z M96.2,532.5c0.1-2.4-1.1-4.6-3.8-4.6c-2.4,0-4,1.8-4,4.1c0,2.4,1.5,4.1,4,4.1c1.8,0,3-0.8,3.6-2.6
			h-1.9c-0.1,0.5-0.8,1-1.7,1c-1.2,0-1.8-0.6-1.9-2H96.2z M83.3,535.9h2.1v-3.5c0-1.4,0.5-2.5,2.1-2.5c0.3,0,0.6,0,0.8,0.1v-2
			c-0.1,0-0.3-0.1-0.5-0.1c-1,0-2.1,0.7-2.5,1.7h0v-1.4h-2V535.9z M76,532c0-1.2,0.4-2.5,1.9-2.5c1.5,0,1.9,1.2,1.9,2.5
			c0,1.2-0.4,2.5-1.9,2.5C76.5,534.5,76,533.3,76,532 M73.9,532c0,2.5,1.6,4.1,4,4.1c2.4,0,4-1.6,4-4.1c0-2.5-1.6-4.1-4-4.1
			C75.5,527.9,73.9,529.6,73.9,532 M65.2,535.9h2.1v-4.1c0-1.6,0.5-2.2,1.6-2.2c1,0,1.4,0.6,1.4,1.9v4.4h2.1v-4.8
			c0-1.9-0.6-3.2-2.8-3.2c-0.8,0-1.7,0.4-2.3,1.3h0v-4h-2.1V535.9z M55.1,532.3c0,2.6,2.2,3.8,4.6,3.8c2.9,0,4.5-1.5,4.5-3.4
			c0-2.4-2.4-2.9-3.2-3.1c-2.7-0.7-3.2-0.8-3.2-1.6c0-0.9,0.9-1.2,1.6-1.2c1.1,0,2,0.3,2.1,1.6h2.3c0-2.5-2.1-3.5-4.3-3.5
			c-1.9,0-4,1-4,3.2c0,2,1.6,2.6,3.2,3c1.6,0.4,3.2,0.6,3.2,1.8c0,1.1-1.3,1.3-2.1,1.3c-1.3,0-2.4-0.6-2.4-2H55.1z M46.6,535.9h2.1
			v-4.1c0-1.6,0.5-2.2,1.6-2.2c1,0,1.4,0.6,1.4,1.9v4.4h2.1v-4.8c0-1.9-0.6-3.2-2.8-3.2c-0.8,0-1.7,0.4-2.3,1.3h0v-4h-2.1V535.9z
			 M44,525.8h-2.1v2.3h-1.3v1.4h1.3v4.6c0,1.5,1.1,1.8,2.4,1.8c0.4,0,0.9,0,1.2-0.1v-1.7c-0.2,0-0.4,0.1-0.7,0.1
			c-0.7,0-0.9-0.2-0.9-0.9v-3.8h1.6v-1.4H44V525.8z M35.5,535.9h2.1v-3.5c0-1.4,0.5-2.5,2.1-2.5c0.3,0,0.6,0,0.8,0.1v-2
			c-0.1,0-0.3-0.1-0.5-0.1c-1,0-2.1,0.7-2.5,1.7h0v-1.4h-2V535.9z M28.2,532c0-1.2,0.4-2.5,1.9-2.5c1.5,0,1.9,1.2,1.9,2.5
			c0,1.2-0.4,2.5-1.9,2.5C28.7,534.5,28.2,533.3,28.2,532 M26.1,532c0,2.5,1.6,4.1,4,4.1c2.4,0,4-1.6,4-4.1c0-2.5-1.6-4.1-4-4.1
			C27.7,527.9,26.1,529.6,26.1,532 M15.4,535.9h2.2v-7.2h0l4.5,7.2h2.4v-10.7h-2.2v7.2h0l-4.5-7.2h-2.3V535.9z"/>
	</g>
</g>
<g>
	<g>
		<path class="st0" d="M777.4,599.1h-1.5l-2.5,7.2h0l-2.6-7.2h-1.6l3.5,8.7l-0.6,1.5c-0.3,0.5-0.6,0.8-1.2,0.8
			c-0.3,0-0.6-0.1-0.8-0.2v1.3c0.3,0.1,0.7,0.2,1,0.2c1.3,0,1.9-0.6,2.5-2.3L777.4,599.1z M767.9,599.1h-1.4v1.3h0h0
			c-0.5-1-1.5-1.5-2.6-1.5c-3,0-4.1,2.6-4.1,4.6c0,2.4,1.3,4.5,3.9,4.5c1.1,0,2.3-0.5,2.7-1.6h0v0.6c0,2-0.7,3.3-2.6,3.3
			c-1,0-2.2-0.4-2.3-1.4h-1.4c0.1,1.9,2,2.6,3.6,2.6c2.8,0,4.1-1.5,4.1-4.3V599.1z M763.9,606.7c-1.9,0-2.5-1.8-2.5-3.3
			c0-1.7,0.7-3.2,2.6-3.2c1.8,0,2.5,1.6,2.5,3.1C766.5,605,765.8,606.7,763.9,606.7 M751.6,603.5c0-2.1,1.2-3.3,2.7-3.3
			c1.5,0,2.7,1.2,2.7,3.3c0,2.1-1.2,3.3-2.7,3.3C752.8,606.8,751.6,605.6,751.6,603.5 M750.1,603.5c0,2.6,1.5,4.6,4.3,4.6
			c2.8,0,4.3-2,4.3-4.6c0-2.6-1.5-4.6-4.3-4.6C751.6,598.9,750.1,600.9,750.1,603.5 M746.9,607.9h1.4v-12.1h-1.4V607.9z
			 M738.1,603.5c0-2.1,1.2-3.3,2.7-3.3s2.7,1.2,2.7,3.3c0,2.1-1.2,3.3-2.7,3.3S738.1,605.6,738.1,603.5 M736.6,603.5
			c0,2.6,1.5,4.6,4.3,4.6c2.8,0,4.3-2,4.3-4.6c0-2.6-1.5-4.6-4.3-4.6C738,598.9,736.6,600.9,736.6,603.5 M727.6,607.9h1.4v-5
			c0-1.6,0.8-2.8,2.6-2.8c1.1,0,1.8,0.7,1.8,1.8v5.9h1.4v-5.8c0-1.9-0.7-3.2-3-3.2c-1.3,0-2.2,0.5-2.9,1.6h0v-1.4h-1.4V607.9z
			 M718.1,607.9h1.4v-5c0-1.6,0.8-2.8,2.6-2.8c1.1,0,1.8,0.7,1.8,1.8v5.9h1.4v-5.8c0-1.9-0.7-3.2-3-3.2c-1.1,0-2.3,0.4-2.8,1.5h0
			v-4.6h-1.4V607.9z M716.5,601.9c-0.2-2.1-1.8-3-3.8-3c-2.8,0-4.1,2.1-4.1,4.7c0,2.6,1.4,4.5,4.1,4.5c2.2,0,3.6-1.3,3.9-3.4H715
			c-0.2,1.3-1,2.1-2.4,2.1c-1.8,0-2.6-1.6-2.6-3.2c0-1.8,0.6-3.4,2.7-3.4c1.2,0,2,0.6,2.2,1.8H716.5z M700.9,602.7
			c0.1-1.3,1-2.5,2.5-2.5c1.4,0,2.5,1.1,2.5,2.5H700.9z M705.9,605.1c-0.3,1.1-1.1,1.7-2.3,1.7c-1.9,0-2.8-1.4-2.7-2.9h6.6
			c0.1-2.1-0.9-5-4-5c-2.4,0-4.1,1.9-4.1,4.6c0.1,2.7,1.4,4.6,4.2,4.6c2,0,3.4-1.1,3.8-3H705.9z M696.5,596.5h-1.4v2.6h-1.5v1.3h1.5
			v5.6c0,1.6,0.6,1.9,2.1,1.9h1.1v-1.3h-0.7c-0.9,0-1.1-0.1-1.1-0.8v-5.5h1.8v-1.3h-1.8V596.5z M686.4,596.5H685v2.6h-1.5v1.3h1.5
			v5.6c0,1.6,0.6,1.9,2.1,1.9h1.1v-1.3h-0.7c-0.9,0-1.1-0.1-1.1-0.8v-5.5h1.8v-1.3h-1.8V596.5z M675.4,605.1c0.1,2.2,1.8,3,3.7,3
			c1.8,0,3.7-0.7,3.7-2.8c0-1.7-1.4-2.2-2.9-2.5c-1.3-0.3-2.9-0.5-2.9-1.5c0-0.9,1-1.1,1.9-1.1c1,0,1.9,0.4,2,1.5h1.4
			c-0.1-2.1-1.7-2.8-3.6-2.8c-1.5,0-3.3,0.7-3.3,2.5c0,1.7,1.4,2.2,2.9,2.5c1.4,0.3,2.9,0.5,2.9,1.6c0,1.1-1.2,1.3-2.1,1.3
			c-1.2,0-2.3-0.4-2.4-1.7H675.4z M667.9,602.7c0.1-1.3,1-2.5,2.5-2.5c1.4,0,2.5,1.1,2.5,2.5H667.9z M672.9,605.1
			c-0.3,1.1-1.1,1.7-2.3,1.7c-1.9,0-2.8-1.4-2.7-2.9h6.6c0.1-2.1-0.9-5-4-5c-2.4,0-4.1,1.9-4.1,4.6c0.1,2.7,1.4,4.6,4.2,4.6
			c2,0,3.4-1.1,3.8-3H672.9z M663.5,596.5H662v2.6h-1.5v1.3h1.5v5.6c0,1.6,0.6,1.9,2.1,1.9h1.1v-1.3h-0.7c-0.9,0-1.1-0.1-1.1-0.8
			v-5.5h1.8v-1.3h-1.8V596.5z M660.1,606.7c-0.2,0.1-0.3,0.1-0.4,0.1c-0.5,0-0.5-0.3-0.5-1v-4.5c0-2.1-1.7-2.4-3.3-2.4
			c-2,0-3.6,0.8-3.7,2.9h1.4c0.1-1.3,1-1.7,2.2-1.7c0.9,0,2,0.2,2,1.5c0,1.1-1.4,1-3,1.3c-1.5,0.3-3,0.7-3,2.7
			c0,1.8,1.3,2.5,2.9,2.5c1.2,0,2.3-0.4,3.1-1.4c0,1,0.5,1.4,1.2,1.4c0.5,0,0.8-0.1,1-0.2V606.7z M657.8,604.8c0,0.8-0.8,2-2.7,2
			c-0.9,0-1.7-0.3-1.7-1.3c0-1.1,0.8-1.4,1.8-1.6c1-0.2,2.1-0.2,2.6-0.6V604.8z M648.6,607.9h1.4v-12.1h-1.4V607.9z M635.8,602.7
			c0.1-1.3,1-2.5,2.5-2.5c1.4,0,2.5,1.1,2.5,2.5H635.8z M640.8,605.1c-0.3,1.1-1.1,1.7-2.3,1.7c-1.9,0-2.8-1.4-2.7-2.9h6.6
			c0.1-2.1-0.9-5-4-5c-2.4,0-4.1,1.9-4.1,4.6c0.1,2.7,1.4,4.6,4.2,4.6c2,0,3.4-1.1,3.8-3H640.8z M625.2,607.9h1.4v-5
			c0-1.6,0.8-2.8,2.6-2.8c1.1,0,1.8,0.7,1.8,1.8v5.9h1.4v-5.8c0-1.9-0.7-3.2-3-3.2c-1.1,0-2.3,0.4-2.8,1.5h0v-4.6h-1.4V607.9z
			 M618.5,607.9h1.6v-10.8h4v-1.4h-9.7v1.4h4V607.9z"/>
	</g>
</g>
<g>
	<g>
		<path class="st0" d="M1129.4,635.5c0.1,2.2,1.8,3,3.7,3c1.8,0,3.7-0.7,3.7-2.8c0-1.7-1.4-2.2-2.9-2.5c-1.3-0.3-2.9-0.5-2.9-1.5
			c0-0.9,1-1.1,1.9-1.1c1,0,1.9,0.4,2,1.5h1.4c-0.1-2.1-1.7-2.8-3.6-2.8c-1.5,0-3.3,0.7-3.3,2.5c0,1.7,1.4,2.2,2.9,2.5
			c1.4,0.3,2.9,0.5,2.9,1.6c0,1.1-1.2,1.3-2.1,1.3c-1.2,0-2.3-0.4-2.4-1.7H1129.4z M1126.6,626.9h-1.4v2.6h-1.5v1.3h1.5v5.6
			c0,1.6,0.6,1.9,2.1,1.9h1.1V637h-0.7c-0.9,0-1.1-0.1-1.1-0.8v-5.5h1.8v-1.3h-1.8V626.9z M1115.1,638.3h1.4v-5
			c0-1.6,0.8-2.8,2.6-2.8c1.1,0,1.8,0.7,1.8,1.8v5.9h1.4v-5.8c0-1.9-0.7-3.2-3-3.2c-1.3,0-2.2,0.5-2.9,1.6h0v-1.4h-1.4V638.3z
			 M1107.1,633.1c0.1-1.3,1-2.5,2.5-2.5c1.4,0,2.5,1.1,2.5,2.5H1107.1z M1112.1,635.5c-0.3,1.1-1.1,1.7-2.3,1.7
			c-1.9,0-2.8-1.4-2.7-2.9h6.6c0.1-2.1-0.9-5-4-5c-2.4,0-4.1,1.9-4.1,4.6c0.1,2.7,1.4,4.6,4.2,4.6c2,0,3.4-1.1,3.8-3H1112.1z
			 M1091.5,638.3h1.4v-5.5c0-0.7,0.6-2.2,2.3-2.2c1.3,0,1.6,0.8,1.6,2v5.8h1.4v-5.5c0-1.4,0.9-2.2,2.3-2.2c1.4,0,1.7,0.9,1.7,2v5.8
			h1.4v-6.4c0-1.8-1.2-2.5-2.9-2.5c-1.1,0-2.2,0.6-2.8,1.5c-0.4-1.1-1.3-1.5-2.4-1.5c-1.2,0-2.2,0.5-2.8,1.5h0v-1.3h-1.4V638.3z
			 M1088.2,626.9h-1.4v2.6h-1.5v1.3h1.5v5.6c0,1.6,0.6,1.9,2.1,1.9h1.1V637h-0.7c-0.9,0-1.1-0.1-1.1-0.8v-5.5h1.8v-1.3h-1.8V626.9z
			 M1084.8,637.1c-0.2,0.1-0.3,0.1-0.4,0.1c-0.5,0-0.5-0.3-0.5-1v-4.5c0-2.1-1.7-2.4-3.3-2.4c-2,0-3.6,0.8-3.7,2.9h1.4
			c0.1-1.3,1-1.7,2.2-1.7c0.9,0,2,0.2,2,1.5c0,1.1-1.4,1-3,1.3c-1.5,0.3-3,0.7-3,2.7c0,1.8,1.3,2.5,2.9,2.5c1.2,0,2.3-0.4,3.1-1.4
			c0,1,0.5,1.4,1.2,1.4c0.5,0,0.8-0.1,1-0.2V637.1z M1082.5,635.2c0,0.8-0.8,2-2.7,2c-0.9,0-1.7-0.3-1.7-1.3c0-1.1,0.8-1.4,1.8-1.6
			c1-0.2,2.1-0.2,2.6-0.6V635.2z M1068.9,633.1c0.1-1.3,1-2.5,2.5-2.5c1.4,0,2.5,1.1,2.5,2.5H1068.9z M1074,635.5
			c-0.3,1.1-1.1,1.7-2.3,1.7c-1.9,0-2.8-1.4-2.7-2.9h6.6c0.1-2.1-0.9-5-4-5c-2.4,0-4.1,1.9-4.1,4.6c0.1,2.7,1.4,4.6,4.2,4.6
			c2,0,3.4-1.1,3.8-3H1074z M1062.5,638.3h1.4v-3.9c0-2.2,0.8-3.6,3.2-3.6v-1.5c-1.6-0.1-2.5,0.6-3.2,2.1h0v-1.9h-1.4V638.3z
			 M1059.2,626.9h-1.4v2.6h-1.5v1.3h1.5v5.6c0,1.6,0.6,1.9,2.1,1.9h1.1V637h-0.7c-0.9,0-1.1-0.1-1.1-0.8v-5.5h1.8v-1.3h-1.8V626.9z
			 M1044.4,633.1c0.1-1.3,1-2.5,2.5-2.5c1.4,0,2.5,1.1,2.5,2.5H1044.4z M1049.4,635.5c-0.3,1.1-1.1,1.7-2.3,1.7
			c-1.9,0-2.8-1.4-2.7-2.9h6.6c0.1-2.1-0.9-5-4-5c-2.4,0-4.1,1.9-4.1,4.6c0.1,2.7,1.4,4.6,4.2,4.6c2,0,3.4-1.1,3.8-3H1049.4z
			 M1042,629.5h-1.5l-2.4,7.3h0l-2.5-7.3h-1.6l3.3,8.8h1.5L1042,629.5z M1032.6,626.2h-1.4v1.8h1.4V626.2z M1031.1,638.3h1.4v-8.8
			h-1.4V638.3z M1022,635.5c0.1,2.2,1.8,3,3.7,3c1.8,0,3.7-0.7,3.7-2.8c0-1.7-1.4-2.2-2.9-2.5c-1.3-0.3-2.9-0.5-2.9-1.5
			c0-0.9,1-1.1,1.9-1.1c1,0,1.9,0.4,2,1.5h1.4c-0.1-2.1-1.7-2.8-3.6-2.8c-1.5,0-3.3,0.7-3.3,2.5c0,1.7,1.4,2.2,2.9,2.5
			c1.4,0.3,2.9,0.5,2.9,1.6c0,1.1-1.2,1.3-2.1,1.3c-1.2,0-2.3-0.4-2.4-1.7H1022z M1021.2,637.1c-0.2,0.1-0.3,0.1-0.4,0.1
			c-0.5,0-0.5-0.3-0.5-1v-4.5c0-2.1-1.7-2.4-3.3-2.4c-2,0-3.6,0.8-3.7,2.9h1.4c0.1-1.3,1-1.7,2.2-1.7c0.9,0,2,0.2,2,1.5
			c0,1.1-1.4,1-3,1.3c-1.5,0.3-3,0.7-3,2.7c0,1.8,1.3,2.5,2.9,2.5c1.2,0,2.3-0.4,3.1-1.4c0,1,0.5,1.4,1.2,1.4c0.5,0,0.8-0.1,1-0.2
			V637.1z M1018.9,635.2c0,0.8-0.8,2-2.7,2c-0.9,0-1.7-0.3-1.7-1.3c0-1.1,0.8-1.4,1.8-1.6c1-0.2,2.1-0.2,2.6-0.6V635.2z
			 M1012.1,629.5h-1.5l-2.4,7.3h0l-2.5-7.3h-1.6l3.3,8.8h1.5L1012.1,629.5z M995.5,638.3h1.4v-5c0-1.6,0.9-2.8,2.6-2.8
			c1.1,0,1.8,0.7,1.8,1.8v5.9h1.4v-5.8c0-1.9-0.7-3.2-3-3.2c-1.3,0-2.2,0.5-2.9,1.6h0v-1.4h-1.4V638.3z M993.2,626.2h-1.4v1.8h1.4
			V626.2z M991.8,638.3h1.4v-8.8h-1.4V638.3z M985.7,629.5h-1.5l-2.5,7.2h0l-2.6-7.2h-1.6l3.5,8.7l-0.6,1.5
			c-0.3,0.5-0.6,0.8-1.2,0.8c-0.3,0-0.6-0.1-0.9-0.2v1.3c0.3,0.1,0.7,0.2,1,0.2c1.3,0,1.9-0.6,2.6-2.3L985.7,629.5z M974.8,638.3
			h1.4v-12.1h-1.4V638.3z M971,638.3h1.4v-12.1H971V638.3z M969.6,637.1c-0.2,0.1-0.3,0.1-0.4,0.1c-0.5,0-0.5-0.3-0.5-1v-4.5
			c0-2.1-1.7-2.4-3.3-2.4c-2,0-3.6,0.8-3.7,2.9h1.4c0.1-1.3,1-1.7,2.2-1.7c0.9,0,2,0.2,2,1.5c0,1.1-1.4,1-3,1.3
			c-1.5,0.3-3,0.7-3,2.7c0,1.8,1.3,2.5,2.9,2.5c1.2,0,2.3-0.4,3.1-1.4c0,1,0.5,1.4,1.2,1.4c0.5,0,0.8-0.1,1-0.2V637.1z M967.2,635.2
			c0,0.8-0.8,2-2.7,2c-0.9,0-1.7-0.3-1.7-1.3c0-1.1,0.8-1.4,1.8-1.6c1-0.2,2.1-0.2,2.6-0.6V635.2z M947.3,638.3h1.4v-5.5
			c0-0.7,0.6-2.2,2.3-2.2c1.3,0,1.6,0.8,1.6,2v5.8h1.4v-5.5c0-1.4,0.9-2.2,2.3-2.2c1.4,0,1.7,0.9,1.7,2v5.8h1.4v-6.4
			c0-1.8-1.2-2.5-2.9-2.5c-1.1,0-2.2,0.6-2.8,1.5c-0.4-1.1-1.3-1.5-2.4-1.5c-1.2,0-2.2,0.5-2.8,1.5h0v-1.3h-1.4V638.3z M945.1,626.2
			h-1.4v1.8h1.4V626.2z M943.6,638.3h1.4v-8.8h-1.4V638.3z M934.1,638.3h1.4v-5c0-1.6,0.8-2.8,2.6-2.8c1.1,0,1.8,0.7,1.8,1.8v5.9
			h1.4v-5.8c0-1.9-0.7-3.2-3-3.2c-1.3,0-2.2,0.5-2.9,1.6h0v-1.4h-1.4V638.3z M931.8,626.2h-1.4v1.8h1.4V626.2z M930.4,638.3h1.4
			v-8.8h-1.4V638.3z M915.8,638.3h1.5v-10.1h0l3.8,10.1h1.4l3.8-10.1h0v10.1h1.5v-12.1h-2.2l-3.8,10.2l-3.8-10.2h-2.2V638.3z"/>
	</g>
</g>
<g>
	<g>
		<path class="st0" d="M1479,669.8l6.1-2.4V666l-6.1-2.4v1.4l4.4,1.8l-4.4,1.8V669.8z M1472.7,669.7h1.7v-8.6h-1.7V669.7z
			 M1467.4,665.4c0.1-0.7,0.5-0.9,1.1-0.9c0.6,0,1.1,0.1,1.1,0.8c0,0.7-1,0.7-2,0.8c-1.1,0.1-2.1,0.5-2.1,1.9c0,1.3,0.9,1.9,2.1,1.9
			c0.8,0,1.5-0.2,2.1-0.8c0,0.2,0.1,0.4,0.1,0.6h1.7c-0.2-0.3-0.2-0.8-0.2-1.4v-3.2c0-1.5-1.5-1.8-2.7-1.8c-1.4,0-2.8,0.5-2.9,2.1
			H1467.4z M1469.6,667.3c0,0.4,0,1.4-1.4,1.4c-0.6,0-1-0.2-1-0.8c0-0.6,0.5-0.8,1-0.9c0.5-0.1,1.1-0.1,1.4-0.4V667.3z
			 M1454.9,669.7h1.7v-3.6c0-1.2,0.8-1.4,1.2-1.4c1.1,0,1,0.8,1,1.5v3.5h1.7v-3.5c0-0.8,0.2-1.6,1.1-1.6c1,0,1,0.7,1,1.5v3.5h1.7
			v-4.1c0-1.6-0.9-2.2-2.3-2.2c-0.9,0-1.5,0.5-1.9,1c-0.3-0.7-1-1-1.8-1c-0.8,0-1.5,0.4-1.9,1h0v-0.8h-1.6V669.7z M1450.2,669.7h1.7
			v-2.8c0-1.1,0.4-2,1.7-2c0.2,0,0.5,0,0.6,0.1v-1.6c-0.1,0-0.3-0.1-0.4-0.1c-0.8,0-1.7,0.5-2,1.3h0v-1.2h-1.6V669.7z M1444.4,666.6
			c0-1,0.3-2,1.5-2c1.2,0,1.5,1,1.5,2c0,1-0.3,2-1.5,2C1444.7,668.6,1444.4,667.6,1444.4,666.6 M1442.7,666.6c0,2,1.3,3.3,3.2,3.3
			c2,0,3.2-1.3,3.2-3.3c0-2-1.3-3.3-3.2-3.3C1443.9,663.3,1442.7,664.6,1442.7,666.6 M1435.7,669.7h1.7v-3.2c0-1.3,0.4-1.8,1.3-1.8
			c0.8,0,1.1,0.5,1.1,1.5v3.5h1.7v-3.8c0-1.5-0.5-2.6-2.3-2.6c-0.7,0-1.5,0.3-1.9,1h0v-0.9h-1.6V669.7z M1426.6,666.6
			c0-1,0.3-2,1.5-2c1.2,0,1.5,1,1.5,2c0,1-0.3,2-1.5,2C1426.9,668.6,1426.6,667.6,1426.6,666.6 M1424.9,666.6c0,2,1.3,3.3,3.2,3.3
			c2,0,3.2-1.3,3.2-3.3c0-2-1.3-3.3-3.2-3.3C1426.1,663.3,1424.9,664.6,1424.9,666.6 M1423,661.6h-1.7v1.9h-1v1.1h1v3.7
			c0,1.2,0.9,1.5,2,1.5c0.3,0,0.7,0,1-0.1v-1.3c-0.2,0-0.3,0-0.5,0c-0.6,0-0.7-0.1-0.7-0.7v-3.1h1.2v-1.1h-1.2V661.6z M1410.8,669.7
			h1.7v-2.1l0.7-0.6l1.7,2.8h2.1l-2.6-3.9l2.3-2.3h-2l-2.1,2.2v-4.6h-1.7V669.7z M1409.6,665.7c-0.1-1.6-1.5-2.3-2.9-2.3
			c-2,0-3.2,1.4-3.2,3.4c0,1.9,1.3,3.2,3.1,3.2c1.6,0,2.8-0.9,3-2.5h-1.6c-0.1,0.8-0.6,1.3-1.4,1.3c-1.1,0-1.4-1.1-1.4-2
			c0-0.9,0.4-2,1.5-2c0.7,0,1.2,0.4,1.3,1.1H1409.6z M1398.5,665.4c0.1-0.7,0.5-0.9,1.1-0.9c0.6,0,1.1,0.1,1.1,0.8
			c0,0.7-1,0.7-2,0.8c-1.1,0.1-2.1,0.5-2.1,1.9c0,1.3,0.9,1.9,2.1,1.9c0.8,0,1.5-0.2,2.1-0.8c0,0.2,0.1,0.4,0.1,0.6h1.7
			c-0.2-0.3-0.2-0.8-0.2-1.4v-3.2c0-1.5-1.5-1.8-2.7-1.8c-1.4,0-2.8,0.5-2.9,2.1H1398.5z M1400.7,667.3c0,0.4,0,1.4-1.4,1.4
			c-0.6,0-1-0.2-1-0.8c0-0.6,0.5-0.8,1-0.9c0.5-0.1,1.1-0.1,1.4-0.4V667.3z M1394.1,666.6c0,1-0.4,2-1.5,2c-1,0-1.5-0.9-1.5-2
			c0-1,0.4-2,1.5-2C1393.6,664.6,1394.1,665.6,1394.1,666.6 M1389.5,669.7h1.6v-0.8h0c0.4,0.7,1.1,1,2,1c1.2,0,2.6-1,2.6-3.3
			c0-2.3-1.3-3.3-2.6-3.3c-0.8,0-1.5,0.3-2,0.9h0v-3.1h-1.7V669.7z M1384.1,661.6h-1.7v1.9h-1v1.1h1v3.7c0,1.2,0.9,1.5,2,1.5
			c0.3,0,0.7,0,1-0.1v-1.3c-0.2,0-0.3,0-0.5,0c-0.6,0-0.7-0.1-0.7-0.7v-3.1h1.2v-1.1h-1.2V661.6z M1376.5,665.9
			c0-0.5,0.3-1.3,1.4-1.3c0.8,0,1.2,0.5,1.4,1.3H1376.5z M1380.9,667c0.1-1.9-0.9-3.7-3-3.7c-1.9,0-3.2,1.4-3.2,3.3
			c0,1.9,1.2,3.3,3.2,3.3c1.4,0,2.4-0.6,2.9-2.1h-1.5c-0.1,0.4-0.7,0.8-1.3,0.8c-0.9,0-1.5-0.5-1.5-1.6H1380.9z M1372.5,669.7h1.2
			v-4.6h-3.6v1.4h1.9c-0.1,1.2-0.8,1.8-2,1.8c-1.7,0-2.3-1.4-2.3-2.9c0-1.5,0.6-2.9,2.3-2.9c0.9,0,1.6,0.5,1.8,1.4h1.8
			c-0.2-1.9-1.9-3-3.6-3c-2.7,0-4.2,2-4.2,4.5c0,2.5,1.6,4.5,4.2,4.5c0.8,0,1.7-0.3,2.4-1.2L1372.5,669.7z"/>
	</g>
</g>
<g>
	<path class="st0" d="M37.7,214.1c-0.9,0-1.1-0.6-1.1-2.1v-8.7l6.3,7.2c0.6,0.7,1.2,1.4,1.2,2.4c0,0.7-0.4,1.1-1.1,1.2v0.5h4.2v-0.5
		c-0.9,0-1.2-0.6-1.2-2.1v-8.6c0-1.5,0.3-2.1,1.2-2.1v-0.5H43v0.5c0.9,0,1.3,0.6,1.3,2.1v2.7l-2.3-2.8c-0.3-0.3-0.8-0.9-0.8-1.3
		c0-0.3,0.3-0.5,0.5-0.6v-0.5h-8v0.5c0.9,0,1.2,0.6,1.2,2.1v8.6c0,1.5-0.3,2.1-1.2,2.1v0.5h4.1V214.1z M49.2,213.9
		c1,0.7,2.5,1,3.8,1c2.9,0,5.5-1.6,5.5-4.7c0-3.2-2.4-4.8-5.3-4.8c-3,0-5.6,1.7-5.6,5C47.4,211.7,48,213.1,49.2,213.9z M52.9,206.7
		c1.5,0,1.9,2.3,1.9,3.7c0,0.8-0.2,3.1-1.6,3.1c-1.6,0-2-2.5-2-3.7C51.1,208.6,51.4,206.7,52.9,206.7z M64.3,214.1
		c-0.7,0-1.1-0.5-1.1-1.5v-2.2c0-0.7-0.1-1.3,0.3-2c0.3-0.6,0.8-1,1.5-1c0.6,0,1,0.1,1.3,0.5l0.6-2.5c-0.3-0.1-0.6-0.1-0.9-0.1
		c-1.2,0-2.4,1-2.9,2.1c-0.1-0.7-0.1-1.4-0.6-2l-3.9,0.3v0.5c0.7,0,1,0.5,1,1.5v5.1c0,1-0.3,1.5-1,1.5v0.5h5.5V214.1z M68.5,211.6
		c0,0.8,0,1.7,0.6,2.4c0.5,0.6,1.5,0.9,2.3,0.9c1,0,2-0.2,2.9-0.6l0.9-2.6l-0.4-0.1c-0.3,0.8-0.9,1.6-1.8,1.6
		c-1.1,0-1.1-1.2-1.1-1.9v-4.3h1.2c0.3,0,0.6,0,0.8,0.1l0.6-1.5c-0.2,0.1-0.5,0.2-1.1,0.2H72v-3.8c-1,0.6-2.1,1.1-3.3,1.3
		c0.1,0.3,0.1,0.6,0.1,1c0,1-0.5,1.9-1.5,2.2v0.5h1.3V211.6z M76,204.4v8.3c0,1-0.3,1.4-1,1.5v0.5h5.4v-0.5c-0.7,0-1-0.5-1-1.5
		l0-2.2c0-0.7,0-1.4,0.3-2.1c0.3-0.6,0.8-1.1,1.5-1.1c0.9,0,0.9,0.9,0.9,1.5v3.9c0,1-0.4,1.4-1,1.5v0.5h5.4v-0.5c-0.7,0-1-0.5-1-1.5
		v-4.3c0-0.7,0-1.6-0.5-2.2c-0.5-0.6-1.1-0.9-1.9-0.9c-1.4,0-2.8,0.7-3.8,1.8v-4.9l-4.4,0.3v0.5C75.7,202.9,76,203.4,76,204.4z
		 M88.8,214.4c0.4,0,1,0.1,1.4,0.2c1.1,0.2,1.9,0.3,2.9,0.3c4.3,0,7-1.6,7-5.1c0-1.8-1.6-3.2-3.5-3.7l-2.5-0.7
		c-0.8-0.2-2.2-0.5-2.2-1.6c-0.1-1.2,1.5-1.7,2.3-1.7c1.7,0,3.4,1.3,4,2.9l0.4-0.1l-0.5-4.6c-0.3,0.4-0.9,0.5-1.3,0.5
		c-0.3,0-0.8-0.1-1.5-0.3c-0.7-0.1-1.6-0.2-2.3-0.2c-1.8,0-5.3,0.8-5.3,4.6c0,1,0.5,1.9,1.2,2.5c0.7,0.5,1.6,0.9,2.4,1.1l2.1,0.7
		c0.9,0.3,2.2,0.6,2.2,1.7c0,1.7-1.6,2.1-3.1,2.1c-2.5,0-4.5-1.8-4.9-4.3l-0.5,0.1l0.5,5.9C88,214.6,88.3,214.4,88.8,214.4z
		 M105.6,214.1c-0.7,0-1-0.5-1-1.5l0-2.2c0-0.7,0-1.4,0.3-2.1c0.3-0.6,0.8-1.1,1.5-1.1c0.9,0,0.9,0.9,0.9,1.5v3.9c0,1-0.4,1.4-1,1.5
		v0.5h5.4v-0.5c-0.7,0-1-0.5-1-1.5v-4.3c0-0.7,0-1.6-0.5-2.2c-0.5-0.6-1.1-0.9-1.9-0.9c-1.4,0-2.8,0.7-3.8,1.8v-4.9l-4.4,0.3v0.5
		c0.7,0,1,0.5,1,1.5v8.3c0,1-0.3,1.4-1,1.5v0.5h5.4V214.1z M113.8,213.9c1,0.7,2.5,1,3.8,1c2.9,0,5.5-1.6,5.5-4.7
		c0-3.2-2.4-4.8-5.3-4.8c-3,0-5.6,1.7-5.6,5C112,211.7,112.6,213.1,113.8,213.9z M117.5,206.7c1.5,0,1.9,2.3,1.9,3.7
		c0,0.8-0.2,3.1-1.6,3.1c-1.6,0-2-2.5-2-3.7C115.7,208.6,116,206.7,117.5,206.7z M128.8,214.1c-0.7,0-1.1-0.5-1.1-1.5v-2.2
		c0-0.7-0.1-1.3,0.3-2c0.3-0.6,0.8-1,1.5-1c0.6,0,1,0.1,1.3,0.5l0.6-2.5c-0.3-0.1-0.6-0.1-0.9-0.1c-1.2,0-2.4,1-2.9,2.1
		c-0.1-0.7-0.1-1.4-0.6-2l-3.9,0.3v0.5c0.7,0,1,0.5,1,1.5v5.1c0,1-0.3,1.5-1,1.5v0.5h5.5V214.1z M138,213.3c-1.7,0-2.6-1.4-2.8-3
		l6.6-1.3c-0.4-2.5-2.5-3.7-4.9-3.7c-2.9,0-5.5,1.6-5.5,4.7c0,1.5,0.7,2.9,1.9,3.8c1.1,0.8,2.5,1.1,3.8,1.1c0.8,0,1.6-0.1,2.3-0.2
		c0.1,0,0.3-0.1,0.4-0.1c0.2,0,0.4,0.1,0.6,0.2l1.1-3.5l-0.4-0.1C140.6,212.4,139.4,213.3,138,213.3z M136.6,206.7
		c0.9,0,1.5,0.7,1.5,1.6l0,0.3l-3,0.6C135,208.2,135.4,206.7,136.6,206.7z M20.4,221c0,0.4,0,0.8,0.4,1c0.3,0.2,0.8,0.3,1.1,0.3
		c0.9,0,1.6-0.3,1.6-1.7V219c0-0.3,0-0.7,0.4-0.7v-0.1h-1.2v0.1c0.4,0,0.4,0.3,0.4,0.7v1.9c0,0.6-0.3,1.1-1.1,1.1c-0.6,0-1-0.3-1-1
		v-2c0-0.4,0-0.7,0.4-0.7v-0.1H20l0,0.1c0.4,0,0.4,0.4,0.4,0.7V221z M28.5,222.2L28.5,222.2l1.4,0.1v-0.1c-0.4,0-0.4-0.4-0.4-0.7
		v-1.3c0-0.6-0.1-1-0.8-1c-0.5,0-0.9,0.4-1.2,0.7c0-0.2,0-0.4-0.2-0.6l-0.8,0.1v0.1c0.3,0,0.3,0.4,0.3,0.7v1.4c0,0.3,0,0.7-0.4,0.7
		v0.1h1.4v0c-0.4,0-0.4-0.4-0.4-0.7v-0.6c0-0.3,0-0.6,0.2-0.8c0.2-0.2,0.5-0.4,0.7-0.4c0.4,0,0.5,0.3,0.5,0.8v1.1
		C28.9,221.8,28.9,222.2,28.5,222.2z M33.7,218.4c0-0.2-0.2-0.4-0.4-0.4c-0.3,0-0.4,0.2-0.4,0.5c0,0.2,0.2,0.4,0.4,0.4
		S33.7,218.6,33.7,218.4z M32.6,222.2L32.6,222.2l1.4,0.1v-0.1c-0.4,0-0.4-0.4-0.4-0.7v-2.3l-1,0.1v0.1c0.4,0,0.4,0.4,0.4,0.7v1.4
		C33,221.8,33,222.2,32.6,222.2z M39.3,219.8c0.1-0.2,0.2-0.5,0.4-0.5v-0.1h-0.9v0.1c0.3,0,0.2,0.2,0.1,0.4l-0.8,2l-0.6-1.9
		c-0.1-0.3-0.2-0.5,0.1-0.6v-0.1h-1.2v0.1c0.2,0,0.3,0.3,0.4,0.5l0.7,2c0.1,0.2,0.1,0.4-0.1,0.4v0.1h1v-0.1c-0.2,0-0.2-0.2,0-0.4
		L39.3,219.8z M44.1,222.3c0.6,0,0.9-0.1,1.1,0l0.3-1l-0.1,0c-0.1,0.2-0.2,0.3-0.3,0.5c-0.2,0.2-0.5,0.3-0.7,0.3
		c-0.6,0-1.2-0.5-1.3-1.1l2.3-0.6c-0.2-0.7-0.8-1.1-1.4-1.1c-0.9,0-1.6,0.7-1.6,1.6C42.4,221.9,43.6,222.3,44.1,222.3z M43.9,219.5
		c0.4,0,0.7,0.3,0.8,0.7l-1.7,0.5C43,220.1,43.3,219.5,43.9,219.5z M49.9,219.7c0.1,0,0.3,0.1,0.4,0.1l0.1-0.6c-0.1,0-0.1,0-0.3,0
		c-0.4,0-0.8,0.3-1,0.7c0-0.2,0-0.5-0.1-0.7l-0.8,0.1v0.1c0.4,0,0.4,0.4,0.4,0.7v1.4c0,0.3,0,0.7-0.4,0.7v0.1h1.4v-0.1
		c-0.4-0.1-0.4-0.3-0.4-0.8v-0.5C49.2,220.3,49.3,219.7,49.9,219.7z M54.1,222c-0.6,0-1.1-0.4-1.2-1l0,0l0,1.2l0.2-0.1
		c0.1,0,0.6,0.2,1.2,0.2c0.6,0,1.3-0.3,1.3-1c0-1.1-1.9-0.8-1.9-1.4c0-0.3,0.4-0.4,0.6-0.4c0.5,0,1,0.3,1.1,0.8l0,0l0-1l-0.1,0
		c-0.1,0-0.5-0.1-1-0.1c-0.5,0-1.1,0.2-1.1,0.8c0,1.1,1.9,0.8,1.9,1.5C54.9,221.8,54.4,222,54.1,222z M58.2,222.2L58.2,222.2
		l1.4,0.1v-0.1c-0.4,0-0.4-0.4-0.4-0.7v-2.3l-1,0.1v0.1c0.4,0,0.4,0.4,0.4,0.7v1.4C58.6,221.8,58.6,222.2,58.2,222.2z M59.3,218.4
		c0-0.2-0.2-0.4-0.4-0.4c-0.3,0-0.4,0.2-0.4,0.5c0,0.2,0.2,0.4,0.4,0.4S59.3,218.6,59.3,218.4z M63.2,222.3c0.3,0,0.5,0,0.8-0.1
		l0.2-0.5l0,0c-0.2,0.2-0.3,0.3-0.6,0.3c-0.4,0-0.4-0.2-0.4-0.6v-1.8h0.4l0.3,0.1l0.2-0.4c-0.1,0.1-0.2,0.1-0.4,0.1h-0.5v-1.1
		l-0.6,0.2c0,0.1,0,0.2,0,0.3c0,0.4-0.2,0.7-0.5,0.8v0.1h0.4v1.9C62.5,221.9,62.6,222.3,63.2,222.3z M66.9,222.5l-0.4,0.8
		c0.2,0.1,0.4,0.2,0.6,0.2c0.7,0,0.9-0.5,1.1-1l1-2.7c0.1-0.2,0.2-0.5,0.5-0.6v-0.1h-0.9v0.1c0.3,0,0.2,0.3,0.1,0.7l-0.6,1.5
		l-0.6-1.7c-0.1-0.2-0.2-0.5,0.1-0.5v-0.1h-1.2v0.1c0.2,0,0.3,0.3,0.4,0.5l0.7,1.6c0.1,0.3,0.3,0.6,0.3,0.9c0,0.3-0.2,0.8-0.6,0.8
		C66.9,223.1,66.8,222.8,66.9,222.5L66.9,222.5z M79.4,218.3L79.4,218.3l-1.5-0.1v0.1c0.4,0,0.4,0.4,0.4,0.7v0.3h-1.8V219
		c0-0.3,0-0.7,0.4-0.7v-0.1h-1.5v0.1c0.4,0.1,0.4,0.4,0.4,0.7v2.5c0,0.3,0,0.6-0.4,0.7v0.1h1.5v-0.1c-0.4,0-0.4-0.4-0.4-0.7v-1.8
		h1.8v1.9c0,0.3,0,0.7-0.4,0.7v0.1h1.5v-0.1c-0.4,0-0.4-0.4-0.4-0.7V219C79,218.7,79,218.3,79.4,218.3z M84.9,221.7
		c-0.2,0.2-0.5,0.3-0.7,0.3c-0.6,0-1.2-0.5-1.3-1.1l2.3-0.6c-0.2-0.7-0.8-1.1-1.4-1.1c-0.9,0-1.6,0.7-1.6,1.6c0,1.2,1.2,1.6,1.7,1.6
		c0.6,0,0.9-0.1,1.1,0l0.3-1l-0.1,0C85.1,221.4,85.1,221.6,84.9,221.7z M83.7,219.5c0.4,0,0.7,0.3,0.8,0.7l-1.7,0.5
		C82.8,220.1,83.1,219.5,83.7,219.5z M88,221.6c0,0.5,0.4,0.7,1,0.7c0.5,0,1-0.2,1.2-0.6c0,0.2,0.1,0.4,0.2,0.6h0.8v-0.1
		c-0.4-0.1-0.4-0.5-0.4-0.8v-1.2c0-0.8-0.3-1-1-1c-0.4,0-0.7,0.1-1.1,0.2c-0.2,0.1-0.3,0.1-0.4,0l-0.1,1c0.2-0.5,0.7-0.8,1.3-0.8
		c0.5,0,0.6,0.2,0.6,0.6v0.1C89.5,220.4,88,220.6,88,221.6z M90.2,220.7c0,0.6-0.2,1.3-0.9,1.3c-0.3,0-0.5-0.2-0.5-0.5
		c0-0.6,1-0.9,1.4-1V220.7z M93.8,222.2L93.8,222.2l1.4,0.1v-0.1c-0.4,0-0.4-0.4-0.4-0.7v-3.4l-1,0.2v0.1c0.4,0,0.4,0.4,0.4,0.7v2.5
		C94.1,221.8,94.1,222.2,93.8,222.2z M98.7,222.3c0.3,0,0.5,0,0.8-0.1l0.2-0.5l0,0c-0.2,0.2-0.3,0.3-0.6,0.3c-0.4,0-0.4-0.2-0.4-0.6
		v-1.8h0.4l0.3,0.1l0.2-0.4c-0.1,0.1-0.2,0.1-0.4,0.1h-0.5v-1.1l-0.6,0.2c0,0.1,0,0.2,0,0.3c0,0.4-0.2,0.7-0.5,0.8v0.1H98v1.9
		C98,221.9,98.2,222.3,98.7,222.3z M105.6,222.2c-0.4,0-0.4-0.4-0.4-0.7v-1.4c0-0.6-0.2-1-0.7-1c-0.5,0-1,0.3-1.3,0.7v-1.8l-1,0.2
		v0.1c0.4,0,0.4,0.4,0.4,0.7v2.5c0,0.3,0,0.7-0.4,0.7v0.1h1.4v0c-0.4,0-0.4-0.4-0.4-0.7v-0.6c0-0.3,0-0.6,0.2-0.8
		c0.2-0.2,0.5-0.4,0.7-0.4c0.5,0,0.5,0.5,0.5,0.8v1.1c0,0.3,0,0.7-0.4,0.7v0L105.6,222.2L105.6,222.2z M110,222
		c-0.8,0-1.4-0.6-1.6-1.3l-0.1,0l0.4,1.5c0.1-0.1,0.1-0.1,0.2-0.1c0.3,0,0.7,0.2,1.2,0.2c1,0,1.7-0.5,1.7-1.5c0-0.5-0.3-1-1.1-1.2
		l-0.9-0.3c-0.2-0.1-0.6-0.2-0.6-0.5c0-0.4,0.4-0.5,0.8-0.5c0.6,0,1.2,0.4,1.4,0.9l0,0l-0.2-1.2c-0.1,0.1-0.1,0.1-0.2,0.1
		c-0.4,0-0.6-0.2-1.1-0.2c-0.6,0-1.3,0.3-1.3,1c0,0.6,0.4,0.8,0.9,0.9l0.8,0.3c0.4,0.1,0.9,0.3,0.9,0.8
		C111.1,221.7,110.8,222,110,222z M114.7,222.5l-0.4,0.8c0.2,0.1,0.4,0.2,0.6,0.2c0.7,0,0.9-0.5,1.1-1l1-2.7
		c0.1-0.2,0.2-0.5,0.5-0.6v-0.1h-0.9v0.1c0.4,0,0.2,0.3,0.1,0.7l-0.6,1.5l-0.6-1.7c-0.1-0.2-0.2-0.5,0.1-0.5v-0.1h-1.2v0.1
		c0.2,0,0.3,0.3,0.4,0.5l0.7,1.6c0.1,0.3,0.3,0.6,0.3,0.9c0,0.3-0.2,0.8-0.6,0.8C114.7,223.1,114.6,222.8,114.7,222.5L114.7,222.5z
		 M120.6,219.9c0-0.3,0.4-0.4,0.6-0.4c0.5,0,1,0.3,1.1,0.8l0,0l0-1l-0.1,0c-0.1,0-0.5-0.1-1-0.1c-0.5,0-1.1,0.2-1.1,0.8
		c0,1.1,1.9,0.8,1.9,1.5c0,0.4-0.5,0.6-0.8,0.6c-0.6,0-1.1-0.4-1.2-1l0,0l0,1.2l0.2-0.1c0.1,0,0.6,0.2,1.2,0.2c0.6,0,1.3-0.3,1.3-1
		C122.6,220.2,120.6,220.5,120.6,219.9z M126.6,222c-0.4,0-0.4-0.2-0.4-0.6v-1.8h0.4l0.3,0.1l0.2-0.4c-0.1,0.1-0.2,0.1-0.4,0.1h-0.5
		v-1.1l-0.6,0.2c0,0.1,0,0.2,0,0.3c0,0.4-0.2,0.7-0.5,0.8v0.1h0.4v1.9c0,0.5,0.1,0.9,0.7,0.9c0.3,0,0.5,0,0.8-0.1l0.2-0.5l0,0
		C127,221.9,126.8,222,126.6,222z M132.5,221.7c-0.2,0.2-0.5,0.3-0.7,0.3c-0.6,0-1.2-0.5-1.3-1.1l2.3-0.6c-0.2-0.7-0.8-1.1-1.4-1.1
		c-0.9,0-1.6,0.7-1.6,1.6c0,1.2,1.2,1.6,1.7,1.6c0.6,0,0.9-0.1,1.1,0l0.3-1l-0.1,0C132.7,221.4,132.6,221.6,132.5,221.7z
		 M131.3,219.5c0.4,0,0.6,0.3,0.8,0.7l-1.7,0.5C130.4,220.1,130.7,219.5,131.3,219.5z M140.6,221.5v-1.4c0-0.6-0.2-1-0.7-1
		c-0.5,0-1,0.4-1.3,0.7c0-0.4-0.3-0.7-0.7-0.7c-0.5,0-1,0.4-1.3,0.7c0-0.2,0-0.5-0.2-0.7l-0.8,0.1v0.1c0.4,0,0.4,0.4,0.4,0.7v1.4
		c0,0.3,0,0.7-0.4,0.7v0.1h1.4v-0.1c-0.4,0-0.4-0.4-0.4-0.7v-0.7c0-0.3,0-0.6,0.3-0.9c0.2-0.2,0.4-0.3,0.7-0.3
		c0.4,0,0.5,0.4,0.5,0.8v1.1c0,0.3,0,0.7-0.4,0.7v0.1h1.4v-0.1c-0.4,0-0.4-0.4-0.4-0.7V221c0-0.3,0-0.7,0.2-1
		c0.2-0.2,0.4-0.4,0.7-0.4c0.4,0,0.5,0.4,0.5,0.8v1.1c0,0.3,0,0.7-0.3,0.7v0.1h1.3v-0.1C140.6,222.2,140.6,221.8,140.6,221.5z
		 M140.5,215.8H20.3v0.6h120.2V215.8z M22.9,207.5c1,0,2.3-0.2,3.7-0.8c1.5-0.6,2.8-0.8,3.9-0.8c1.4,0,2.4,0.3,3,0.6v-1.1l-0.1-0.1
		c-0.1-0.1-0.3-0.2-0.6-0.3c-0.5-0.2-1.3-0.4-2.3-0.4s-2.2,0.2-3.7,0.8c-1.5,0.6-2.8,0.8-3.8,0.8c-1.4,0-2.4-0.4-2.9-0.6v1.3
		c0.1,0.1,0.3,0.2,0.6,0.2C21.1,207.3,21.9,207.5,22.9,207.5z M22.9,209.1c1,0,2.3-0.2,3.7-0.8c1.5-0.6,2.8-0.8,3.9-0.8
		c1.4,0,2.4,0.3,3,0.6V207c-0.1-0.1-0.3-0.2-0.6-0.3c-0.5-0.2-1.3-0.4-2.4-0.4c-1,0-2.3,0.2-3.7,0.8c-1.5,0.6-2.8,0.8-3.9,0.8
		c-1.4,0-2.3-0.3-2.9-0.6v1.2c0.1,0.1,0.3,0.2,0.6,0.2C21.1,209,21.9,209.1,22.9,209.1z M20.7,210.4c0.5,0.2,1.3,0.4,2.3,0.4
		c1,0,2.2-0.2,3.7-0.8c1.5-0.6,2.8-0.8,3.8-0.8c1.5,0,2.5,0.4,3,0.6v-1.2c-0.1-0.1-0.3-0.2-0.6-0.3c-0.5-0.2-1.3-0.4-2.4-0.4
		c-1,0-2.3,0.2-3.7,0.8c-1.5,0.6-2.8,0.8-3.9,0.8c-1.4,0-2.3-0.3-2.9-0.6v1.1l0.1,0.1C20.3,210.2,20.5,210.3,20.7,210.4z
		 M29.3,204.3V201h-5.1v4.7c0.7-0.1,1.5-0.3,2.4-0.7C27.6,204.6,28.5,204.4,29.3,204.3z M26.8,210.4c-1,0.4-1.8,0.6-2.6,0.7v3.3h5.1
		v-4.7C28.5,209.9,27.7,210.1,26.8,210.4z M30.5,236.8v-1.5c0-0.4,0-1-0.4-1.3c-0.3-0.2-0.9-0.3-1.2-0.3c-0.5,0-1,0.1-1.5,0.2
		c-0.1,0-0.2,0-0.3,0c-0.1,0-0.2-0.1-0.3-0.1l-0.2,1.5l0.2,0c0.3-0.6,0.8-1,1.5-1c0.2,0,0.5,0,0.6,0.2c0.1,0.2,0.1,0.4,0.1,0.6v0.1
		c-1,0.1-2.7,0.5-2.7,1.8c0,0.7,0.6,1,1.2,1c0.5,0,1.2-0.2,1.5-0.7c0.1,0.2,0.1,0.4,0.3,0.6H31v-0.2
		C30.5,237.7,30.5,237.2,30.5,236.8z M28.2,237.2c-0.3,0-0.4-0.3-0.4-0.5c0-0.3,0.3-0.6,0.5-0.8c0.2-0.1,0.5-0.2,0.7-0.2
		C29,236.2,28.9,237.2,28.2,237.2z M24.1,237.3c-0.6,0-1.2-0.3-1.6-0.8c-0.3-0.5-0.5-1.1-0.5-1.6c0-0.9,0.5-1.9,1.6-1.9
		c0.9,0,1.6,0.8,1.9,1.6l0.2,0l-0.5-2.3c-0.1,0.2-0.2,0.2-0.4,0.2c-0.1,0-0.2,0-0.3,0c-0.4-0.1-0.8-0.1-1.2-0.1c-1.7,0-3,1-3,2.7
		c0,2,1.7,3,3.5,3l1.2-0.1c0.2,0,0.3,0,0.4,0.1l0.7-1.8l-0.2-0.1C25.5,236.9,24.9,237.3,24.1,237.3z M34.5,233.8
		c-0.5,0-1.1,0.5-1.3,0.9c0-0.3-0.1-0.6-0.2-0.9l-1.8,0.1v0.2c0.3,0,0.4,0.2,0.5,0.7v2.3c0,0.4-0.1,0.7-0.5,0.7v0.2h2.5v-0.2
		c-0.3,0-0.5-0.2-0.5-0.7v-1c0-0.3,0-0.6,0.1-0.9c0.1-0.3,0.4-0.4,0.7-0.4c0.2,0,0.4,0.1,0.6,0.2l0.3-1.1
		C34.8,233.8,34.7,233.8,34.5,233.8z M39.6,237v-4.7l-2.1,0.1v0.2c0.6,0,0.5,0.5,0.5,0.9v0.2l-0.6,0c-1.4,0-2.6,0.7-2.6,2.3
		c0,0.6,0.2,1.2,0.8,1.6c0.5,0.3,1.1,0.4,1.7,0.3l0.8,0l1.9,0v-0.2C39.8,237.7,39.6,237.5,39.6,237z M37.6,237.4c-0.7,0-1-0.8-1-1.5
		c0-0.4,0.1-0.8,0.3-1.1c0.2-0.3,0.6-0.6,0.9-0.6l0.2,0v2.3C38.1,237,38.1,237.4,37.6,237.4z M42.4,237v-3.3l-2,0.1v0.2
		c0.3,0,0.4,0.2,0.4,0.7v2.3c0,0.4-0.1,0.7-0.4,0.7v0.2h2.4v-0.2C42.5,237.7,42.4,237.5,42.4,237z M71.7,237v-3.3l-2,0.1v0.2
		c0.5,0,0.5,0.5,0.5,0.9v0.5c0,0.4,0,0.8-0.2,1.1c-0.1,0.3-0.3,0.5-0.7,0.5c-0.4,0-0.4-0.5-0.4-0.8v-2.6l-2,0.1v0.2
		c0.3,0,0.4,0.2,0.5,0.7v1.9c0,0.3,0,0.7,0.2,1c0.2,0.3,0.5,0.4,0.8,0.4c0.7,0,1.3-0.4,1.7-0.9c0,0.3,0,0.5,0.1,0.7h1.9v-0.2
		C71.9,237.7,71.7,237.5,71.7,237z M45.7,233.7c-1.3,0-2.5,0.8-2.5,2.2c0,0.6,0.2,1.3,0.8,1.6c0.5,0.3,1.1,0.4,1.7,0.4
		c1.3,0,2.5-0.7,2.5-2.1C48.1,234.5,47,233.7,45.7,233.7z M46.2,236.9c-0.1,0.2-0.3,0.5-0.6,0.5v0c-0.7,0-0.9-1.1-0.9-1.7
		c0-0.5,0.1-1.4,0.8-1.4c0.3,0,0.5,0.2,0.6,0.5c0.2,0.3,0.2,0.8,0.2,1.2C46.4,236.3,46.4,236.6,46.2,236.9z M51.3,234
		c0.2,0,0.3,0.1,0.3,0.3c0,0.2-0.1,0.3-0.1,0.4l-0.7,1.9l-0.6-1.9c0-0.1-0.1-0.3-0.1-0.4c0-0.2,0.2-0.2,0.3-0.3v-0.2h-2.5v0.2
		c0.4,0,0.5,0.4,0.6,0.7l0.9,2.5l0.1,0.2l0,0.1c0,0.1-0.1,0.2-0.2,0.2v0.2h1.9v-0.2c-0.1,0-0.2-0.1-0.2-0.2c0-0.1,0.1-0.4,0.2-0.5
		l0.8-2c0.1-0.3,0.3-0.9,0.7-1v-0.2h-1.4V234z M57,236.8v-1.5c0-0.4,0-1-0.4-1.3c-0.3-0.2-0.9-0.3-1.2-0.3c-0.5,0-1,0.1-1.5,0.2
		c-0.1,0-0.2,0-0.3,0c-0.1,0-0.2-0.1-0.3-0.1l-0.2,1.5l0.2,0c0.3-0.6,0.8-1,1.5-1c0.2,0,0.5,0,0.6,0.2c0.1,0.2,0.1,0.4,0.1,0.6v0.1
		c-1,0.1-2.7,0.5-2.7,1.8c0,0.7,0.6,1,1.2,1c0.5,0,1.2-0.2,1.5-0.7c0,0.2,0.1,0.4,0.3,0.6h1.7v-0.2C57,237.7,57,237.2,57,236.8z
		 M54.7,237.2c-0.3,0-0.4-0.3-0.4-0.5c0-0.3,0.3-0.6,0.5-0.8c0.2-0.1,0.5-0.2,0.7-0.2C55.5,236.2,55.4,237.2,54.7,237.2z
		 M60.9,235.2l-0.7-0.2c-0.2,0-0.6-0.1-0.6-0.4c0-0.3,0.5-0.3,0.7-0.3c0.5,0,1,0.2,1.2,0.7l0.2,0l-0.1-1.2c-0.1,0.1-0.2,0.1-0.3,0.1
		c-0.2,0-0.3,0-0.5-0.1l-0.7-0.1c-0.5,0-1,0.1-1.4,0.3c-0.4,0.2-0.7,0.6-0.7,1.1c0,0.7,0.7,1,1.2,1.1l0.6,0.1
		c0.2,0.1,0.7,0.1,0.7,0.4c0,0.5-0.6,0.6-1,0.6c-0.7,0-1.2-0.4-1.4-1.1l-0.2,0l0.1,1.6c0.1-0.1,0.2-0.2,0.4-0.2
		c0.1,0,0.4,0.1,0.5,0.1c0.3,0.1,0.6,0.1,0.9,0.1c0.5,0,1.1-0.1,1.5-0.4c0.4-0.3,0.7-0.8,0.7-1.3c0-0.3-0.1-0.7-0.4-0.8
		C61.5,235.3,61.2,235.2,60.9,235.2z M41.6,231.9c-0.4,0-0.9,0.3-0.9,0.7c0,0.5,0.4,0.7,0.8,0.7c0.4,0,0.9-0.3,0.9-0.7
		C42.4,232.2,42.1,231.9,41.6,231.9z M65.4,237.3c-0.8,0-1.3-0.9-1.3-1.6c0-0.4,0.1-0.8,0.4-1c0.2-0.2,0.5-0.3,0.8-0.3
		c0.6,0,1,0.5,1.1,1l0.2,0l-0.4-1.6c-0.1,0.1-0.2,0.1-0.3,0.1l-0.2,0l-0.9-0.1c-1.3,0-2.3,0.7-2.3,2c0,1.5,1.2,2.3,2.6,2.3l0.5,0
		c0.1,0,0.3,0,0.4,0c0.1,0,0.2,0,0.3,0.1l0.6-1.5l-0.2-0.1C66.5,237,66,237.3,65.4,237.3z M79.4,236.8v-1.5c0-0.4,0-1-0.4-1.3
		c-0.3-0.2-0.8-0.3-1.2-0.3c-0.5,0-1,0.1-1.5,0.2c-0.1,0-0.2,0.1-0.3,0.1c-0.1,0-0.2-0.1-0.3-0.1l-0.2,1.5l0.2,0
		c0.3-0.6,0.8-1,1.5-1c0.2,0,0.5,0,0.6,0.2c0.1,0.2,0.1,0.4,0.1,0.6v0.1c-1,0.1-2.7,0.5-2.7,1.8c0,0.7,0.6,1,1.2,1
		c0.5,0,1.2-0.2,1.5-0.7c0,0.2,0.1,0.4,0.3,0.6h1.7v-0.2C79.4,237.7,79.4,237.2,79.4,236.8z M77.1,237.2c-0.3,0-0.4-0.3-0.4-0.5
		c0-0.3,0.3-0.6,0.5-0.8c0.2-0.1,0.5-0.2,0.7-0.2C77.9,236.2,77.8,237.2,77.1,237.2z M74.5,237v-4.7l-2,0.1v0.2
		c0.3,0,0.4,0.2,0.5,0.7v3.7c0,0.4-0.1,0.6-0.5,0.7v0.2H75v-0.2C74.7,237.7,74.5,237.5,74.5,237z M82.2,234.7c0-0.3-0.1-0.6-0.2-0.9
		l-1.8,0.1v0.2c0.3,0,0.4,0.2,0.5,0.7v2.3c0,0.4-0.1,0.7-0.5,0.7v0.2h2.5v-0.2c-0.3,0-0.5-0.2-0.5-0.7v-1c0-0.3,0-0.6,0.1-0.9
		c0.1-0.3,0.4-0.4,0.7-0.4c0.2,0,0.4,0.1,0.6,0.2l0.3-1.1c-0.1,0-0.3-0.1-0.4-0.1C82.9,233.8,82.4,234.2,82.2,234.7z M86.5,232.7
		c0.3,0,0.5,0.2,0.5,0.8v3.4c0,0.6-0.1,0.8-0.5,0.8v0.2h2.6v-0.2c-0.3,0-0.5-0.2-0.5-0.8v-3.4c0-0.6,0.1-0.8,0.5-0.8v-0.2h-2.6
		V232.7z M103.1,232.6c0,0.5,0.4,0.7,0.8,0.7c0.4,0,0.9-0.3,0.9-0.7c0-0.5-0.3-0.8-0.8-0.8C103.6,231.9,103.1,232.1,103.1,232.6z
		 M107.9,237.2c-0.5,0-0.5-0.5-0.5-0.9v-1.9h0.5c0.1,0,0.3,0,0.4,0.1l0.2-0.7c-0.1,0-0.2,0.1-0.5,0.1h-0.6v-1.7
		c-0.5,0.3-1,0.5-1.5,0.6c0,0.1,0.1,0.3,0.1,0.4c0,0.4-0.2,0.9-0.7,1v0.2h0.6v2.1c0,0.4,0,0.8,0.3,1.1c0.2,0.3,0.7,0.4,1,0.4
		c0.4,0,0.9-0.1,1.3-0.3l0.4-1.2l-0.2-0.1C108.6,236.8,108.3,237.2,107.9,237.2z M97.7,235.2l-0.7-0.2c-0.2-0.1-0.6-0.1-0.6-0.4
		c0-0.3,0.5-0.3,0.7-0.3c0.5,0,1,0.2,1.2,0.7l0.2,0l-0.1-1.2c-0.1,0.1-0.2,0.1-0.3,0.1c-0.2,0-0.3,0-0.5-0.1l-0.7-0.1
		c-0.5,0-1,0.1-1.4,0.3c-0.4,0.2-0.7,0.6-0.7,1.1c0,0.7,0.7,1,1.2,1.1l0.6,0.1c0.2,0.1,0.7,0.1,0.7,0.4c0,0.5-0.6,0.6-1,0.6
		c-0.7,0-1.2-0.4-1.4-1.1l-0.2,0l0.1,1.6c0.1-0.1,0.2-0.2,0.4-0.2c0.1,0,0.4,0.1,0.5,0.1c0.3,0.1,0.6,0.1,1,0.1
		c0.5,0,1.1-0.1,1.5-0.4c0.4-0.3,0.7-0.8,0.7-1.3c0-0.3-0.1-0.7-0.4-0.8C98.3,235.3,98,235.2,97.7,235.2z M94.1,237v-1.8
		c0-1-0.2-1.5-1.1-1.5c-0.7,0-1.2,0.4-1.6,0.8c-0.1-0.3-0.1-0.5-0.2-0.8l-1.8,0.1v0.2c0.3,0,0.4,0.2,0.4,0.7v2.3
		c0,0.4-0.1,0.7-0.4,0.7v0.2h2.5v-0.2c-0.3,0-0.5-0.2-0.5-0.7v-1c0-0.3,0-0.7,0.1-0.9c0.1-0.2,0.4-0.5,0.7-0.5
		c0.4,0,0.4,0.5,0.4,0.8v1.6c0,0.4-0.2,0.7-0.5,0.7v0.2h2.5v-0.2C94.2,237.7,94.1,237.5,94.1,237z M104.8,237v-3.3l-2,0.1v0.2
		c0.3,0,0.4,0.2,0.4,0.7v2.3c0,0.4-0.1,0.7-0.4,0.7v0.2h2.4v-0.2C104.9,237.7,104.8,237.5,104.8,237z M101.7,237.2
		c-0.5,0-0.5-0.5-0.5-0.9v-1.9h0.5c0.1,0,0.3,0,0.4,0.1l0.2-0.7c-0.1,0-0.2,0.1-0.5,0.1h-0.6v-1.7c-0.5,0.3-1,0.5-1.5,0.6
		c0,0.1,0.1,0.3,0.1,0.4c0,0.4-0.2,0.9-0.7,1v0.2h0.6v2.1c0,0.4,0,0.8,0.3,1.1c0.2,0.3,0.7,0.4,1,0.4c0.4,0,0.9-0.1,1.3-0.3l0.4-1.2
		l-0.2-0.1C102.4,236.8,102.1,237.2,101.7,237.2z M116.8,237.2c-0.5,0-0.5-0.5-0.5-0.9v-1.9h0.5c0.1,0,0.3,0,0.4,0.1l0.2-0.7
		c-0.1,0-0.2,0.1-0.5,0.1h-0.6v-1.7c-0.5,0.3-1,0.5-1.5,0.6c0,0.1,0.1,0.3,0.1,0.4c0,0.4-0.2,0.9-0.7,1v0.2h0.6v2.1
		c0,0.4,0,0.8,0.3,1.1c0.2,0.3,0.7,0.4,1,0.4c0.4,0,0.9-0.1,1.3-0.3l0.4-1.2l-0.2-0.1C117.5,236.8,117.2,237.2,116.8,237.2z
		 M113.8,237v-3.3l-2,0.1v0.2c0.5,0,0.5,0.5,0.5,0.9v0.5c0,0.4,0,0.8-0.2,1.1c-0.1,0.3-0.3,0.5-0.7,0.5c-0.4,0-0.4-0.5-0.4-0.8v-2.5
		l-2,0.1v0.2c0.3,0,0.4,0.2,0.5,0.7v1.9c0,0.3,0,0.7,0.2,1c0.2,0.3,0.5,0.4,0.8,0.4c0.7,0,1.3-0.4,1.7-0.9c0,0.3,0,0.5,0.1,0.7h1.9
		v-0.2C113.9,237.7,113.8,237.5,113.8,237z M120.3,233.7c-1.3,0-2.5,0.7-2.5,2.1c0,0.7,0.3,1.3,0.9,1.7c0.5,0.4,1.1,0.5,1.7,0.5
		c0.4,0,0.7,0,1-0.1l0.2,0c0.1,0,0.2,0,0.3,0.1l0.5-1.6l-0.2-0.1c-0.2,0.6-0.8,1-1.4,1c-0.8,0-1.2-0.6-1.3-1.3l3-0.6
		C122.3,234.2,121.4,233.7,120.3,233.7z M120.8,235.2l-1.4,0.3c0-0.4,0.2-1.1,0.7-1.1c0.4,0,0.7,0.3,0.7,0.7L120.8,235.2z"/>
</g>
<path class="st0" d="M529.7,574.7c0.1,2.2,1.8,3,3.7,3c1.8,0,3.7-0.7,3.7-2.8c0-1.7-1.4-2.2-2.9-2.5c-1.3-0.3-2.9-0.5-2.9-1.5
	c0-0.9,1-1.1,1.9-1.1c1,0,1.9,0.4,2,1.5h1.4c-0.1-2.1-1.7-2.8-3.6-2.8c-1.5,0-3.3,0.7-3.3,2.5c0,1.7,1.4,2.2,2.9,2.5
	c1.4,0.3,2.9,0.5,2.9,1.6c0,1.1-1.2,1.3-2.1,1.3c-1.2,0-2.3-0.4-2.4-1.7H529.7z M526.9,566.1h-1.4v2.6H524v1.3h1.5v5.6
	c0,1.6,0.6,1.9,2.1,1.9h1.1v-1.3H528c-0.9,0-1.1-0.1-1.1-0.8V570h1.8v-1.3h-1.8V566.1z M519.2,577.5h1.4v-3.9c0-2.2,0.8-3.6,3.2-3.6
	v-1.5c-1.6-0.1-2.5,0.6-3.2,2.1h0v-1.9h-1.4V577.5z M511.2,572.3c0.1-1.3,1-2.5,2.5-2.5c1.4,0,2.5,1.1,2.5,2.5H511.2z M516.2,574.7
	c-0.3,1.1-1.1,1.7-2.3,1.7c-1.9,0-2.8-1.4-2.7-2.9h6.6c0.1-2.1-0.9-5-4-5c-2.4,0-4.1,1.9-4.1,4.6c0.1,2.7,1.4,4.6,4.2,4.6
	c2,0,3.4-1.1,3.8-3H516.2z M500.1,580.9h1.4v-4.5h0c0.6,1,1.9,1.4,2.8,1.4c2.7,0,4-2.1,4-4.6c0-2.5-1.3-4.6-4-4.6
	c-1.2,0-2.3,0.4-2.8,1.4h0v-1.2h-1.4V580.9z M506.9,573c0,1.7-0.7,3.4-2.6,3.4c-2,0-2.8-1.6-2.8-3.3c0-1.6,0.7-3.3,2.7-3.3
	C506,569.8,506.9,571.4,506.9,573 M490.3,577.5h1.8l2.4-3.6l2.4,3.6h1.9l-3.4-4.7l3-4h-1.7l-2.2,3.1l-2.1-3.1h-1.9l3.1,4.2
	L490.3,577.5z M483.1,572.3c0.1-1.3,1-2.5,2.5-2.5c1.4,0,2.5,1.1,2.5,2.5H483.1z M488.2,574.7c-0.3,1.1-1.1,1.7-2.3,1.7
	c-1.9,0-2.8-1.4-2.7-2.9h6.6c0.1-2.1-0.9-5-4-5c-2.4,0-4.1,1.9-4.1,4.6c0.1,2.7,1.4,4.6,4.2,4.6c2,0,3.4-1.1,3.8-3H488.2z
	 M462.9,577.5h1.4V572c0-0.7,0.6-2.2,2.3-2.2c1.3,0,1.6,0.8,1.6,2v5.8h1.4V572c0-1.4,0.9-2.2,2.3-2.2c1.4,0,1.7,0.9,1.7,2v5.8h1.4
	v-6.4c0-1.8-1.2-2.5-2.9-2.5c-1.1,0-2.2,0.6-2.8,1.5c-0.4-1.1-1.3-1.5-2.4-1.5c-1.2,0-2.2,0.5-2.8,1.5h0v-1.3h-1.4V577.5z
	 M453.4,577.5h1.4v-5c0-1.6,0.8-2.8,2.6-2.8c1.1,0,1.8,0.7,1.8,1.8v5.9h1.4v-5.8c0-1.9-0.7-3.2-3-3.2c-1.1,0-2.3,0.4-2.8,1.5h0v-4.6
	h-1.4V577.5z M450.1,566.1h-1.4v2.6h-1.5v1.3h1.5v5.6c0,1.6,0.6,1.9,2.1,1.9h1.1v-1.3h-0.7c-0.9,0-1.1-0.1-1.1-0.8V570h1.8v-1.3
	h-1.8V566.1z M446.8,568.7h-1.5l-2.5,7.2h0l-2.6-7.2h-1.6l3.5,8.7l-0.6,1.5c-0.3,0.5-0.6,0.8-1.2,0.8c-0.3,0-0.6-0.1-0.9-0.2v1.3
	c0.3,0.1,0.7,0.2,1,0.2c1.3,0,1.9-0.6,2.6-2.3L446.8,568.7z M430.1,577.5h1.4v-5c0-1.6,0.8-2.8,2.6-2.8c1.1,0,1.8,0.7,1.8,1.8v5.9
	h1.4v-5.8c0-1.9-0.7-3.2-3-3.2c-1.1,0-2.3,0.4-2.8,1.5h0v-4.6h-1.4V577.5z M424.4,577.5h1.4v-3.9c0-2.2,0.9-3.6,3.2-3.6v-1.5
	c-1.6-0.1-2.5,0.6-3.2,2.1h0v-1.9h-1.4V577.5z M416.4,566.1h-1.4v2.6h-1.5v1.3h1.5v5.6c0,1.6,0.6,1.9,2.1,1.9h1.1v-1.3h-0.7
	c-0.9,0-1.1-0.1-1.1-0.8V570h1.8v-1.3h-1.8V566.1z M408.6,577.5h1.4v-3.9c0-2.2,0.9-3.6,3.2-3.6v-1.5c-1.6-0.1-2.5,0.6-3.2,2.1h0
	v-1.9h-1.4V577.5z M407.4,576.3c-0.2,0.1-0.3,0.1-0.4,0.1c-0.5,0-0.5-0.3-0.5-1v-4.5c0-2.1-1.7-2.4-3.3-2.4c-2,0-3.6,0.8-3.7,2.9
	h1.4c0.1-1.3,1-1.7,2.2-1.7c0.9,0,2,0.2,2,1.5c0,1.1-1.4,1-3,1.3c-1.5,0.3-3,0.7-3,2.7c0,1.8,1.3,2.5,2.9,2.5c1.2,0,2.3-0.4,3.1-1.4
	c0,1,0.5,1.4,1.2,1.4c0.5,0,0.8-0.1,1-0.2V576.3z M405,574.4c0,0.8-0.8,2-2.7,2c-0.9,0-1.7-0.3-1.7-1.3c0-1.1,0.8-1.4,1.8-1.6
	c1-0.2,2.1-0.2,2.6-0.6V574.4z M391.5,572.3c0.1-1.3,1-2.5,2.5-2.5c1.4,0,2.5,1.1,2.5,2.5H391.5z M396.5,574.7
	c-0.3,1.1-1.1,1.7-2.3,1.7c-1.9,0-2.8-1.4-2.7-2.9h6.6c0.1-2.1-0.9-5-4-5c-2.4,0-4.1,1.9-4.1,4.6c0.1,2.7,1.4,4.6,4.2,4.6
	c2,0,3.4-1.1,3.8-3H396.5z M381,577.5h1.4v-5c0-1.6,0.9-2.8,2.6-2.8c1.1,0,1.8,0.7,1.8,1.8v5.9h1.4v-5.8c0-1.9-0.7-3.2-3-3.2
	c-1.1,0-2.3,0.4-2.8,1.5h0v-4.6H381V577.5z M374.1,568.7h-1.4v1.3h0h0c-0.5-1-1.5-1.5-2.6-1.5c-3,0-4.1,2.6-4.1,4.6
	c0,2.4,1.3,4.5,3.9,4.5c1.1,0,2.3-0.5,2.7-1.6h0v0.6c0,2-0.7,3.3-2.6,3.3c-1,0-2.2-0.4-2.3-1.4h-1.4c0.1,1.9,2,2.6,3.6,2.6
	c2.8,0,4.1-1.5,4.1-4.3V568.7z M370,576.3c-1.9,0-2.5-1.8-2.5-3.3c0-1.7,0.7-3.2,2.6-3.2c1.8,0,2.5,1.6,2.5,3.1
	C372.7,574.6,371.9,576.3,370,576.3 M357.1,577.5h1.4v-5c0-1.6,0.8-2.8,2.6-2.8c1.1,0,1.8,0.7,1.8,1.8v5.9h1.4v-5.8
	c0-1.9-0.7-3.2-3-3.2c-1.3,0-2.2,0.5-2.9,1.6h0v-1.4h-1.4V577.5z M354.8,565.4h-1.4v1.8h1.4V565.4z M353.4,577.5h1.4v-8.8h-1.4
	V577.5z M344.3,573.2c0-1.7,0.7-3.4,2.6-3.4c2,0,2.8,1.6,2.8,3.3c0,1.6-0.7,3.3-2.7,3.3C345.1,576.4,344.3,574.8,344.3,573.2
	 M351.1,565.4h-1.4v4.5h0c-0.6-1-1.9-1.4-2.8-1.4c-2.7,0-4,2.1-4,4.6c0,2.5,1.3,4.6,4,4.6c1.2,0,2.3-0.4,2.8-1.4h0v1.2h1.4V565.4z
	 M341.9,576.3c-0.2,0.1-0.3,0.1-0.4,0.1c-0.5,0-0.5-0.3-0.5-1v-4.5c0-2.1-1.7-2.4-3.3-2.4c-2,0-3.6,0.8-3.7,2.9h1.4
	c0.1-1.3,1-1.7,2.2-1.7c0.9,0,2,0.2,2,1.5c0,1.1-1.4,1-3,1.3c-1.5,0.3-3,0.7-3,2.7c0,1.8,1.3,2.5,2.9,2.5c1.2,0,2.3-0.4,3.1-1.4
	c0,1,0.5,1.4,1.2,1.4c0.5,0,0.8-0.1,1-0.2V576.3z M339.5,574.4c0,0.8-0.8,2-2.7,2c-0.9,0-1.7-0.3-1.7-1.3c0-1.1,0.8-1.4,1.8-1.6
	c1-0.2,2.1-0.2,2.6-0.6V574.4z M326,572.3c0.1-1.3,1-2.5,2.5-2.5c1.4,0,2.5,1.1,2.5,2.5H326z M331,574.7c-0.3,1.1-1.1,1.7-2.3,1.7
	c-1.9,0-2.8-1.4-2.7-2.9h6.6c0.1-2.1-0.9-5-4-5c-2.4,0-4.1,1.9-4.1,4.6c0.1,2.7,1.4,4.6,4.2,4.6c2,0,3.4-1.1,3.8-3H331z
	 M315.7,577.5h8v-1.4h-6.4v-10.8h-1.6V577.5z"/>
</svg>
