<?xml version="1.0" encoding="utf-8"?>
<!-- Generator: Adobe Illustrator 23.1.1, SVG Export Plug-In . SVG Version: 6.00 Build 0)  -->
<svg version="1.1" id="Layer_1" xmlns="http://www.w3.org/2000/svg" xmlns:xlink="http://www.w3.org/1999/xlink" x="0px" y="0px"
	 width="1500px" height="1500px" viewBox="0 0 1500 1500" style="enable-background:new 0 0 1500 1500;" xml:space="preserve">
<style type="text/css">
	.st0{fill:#91BD45;}
	.st1{fill:#059713;}
	.st2{fill:#E0DEA1;}
	.st3{fill:#8FBC44;}
	.st4{fill:#124C1B;}
</style>
<g>
	<path class="st0" d="M661.7,338.6c-1.1,8.9,0.8,14.5,5.8,17.4c5,3,12.7,2.3,16.4-0.3C683.9,355.7,669.9,356.5,661.7,338.6z
		 M715.6,321.1c8.4-12.8-5.3-23.4-19.5-21C696.1,300.1,709.2,304.1,715.6,321.1z M726.7,341.1c-3.8,11.5-10.1,17.8-21.5,24
		c5.3,1.5,11.2-0.2,16.5-3.7C729.2,356.5,730.3,350.3,726.7,341.1z M672.2,282.4c-4.4,1.2-8.5,6-9.5,14.1c7-6,9.2-7.7,20.2-9.8
		C680.4,283.9,676.7,281.2,672.2,282.4z"/>
	<path class="st1" d="M651.9,323.2c-0.3,6.4,2.8,12.5,9.8,15.3c0,0-5.7-17.4,6.1-30.1C658.2,310.4,652.2,316.9,651.9,323.2z
		 M696.1,300.1c-9.3-8.4-25.2-7.9-28.3,8.3C667.8,308.4,677.9,294.6,696.1,300.1z M715.6,321.1c0,0,2.5,15-11.4,28.5
		c3.7-0.3,8.3-1.3,11.1-3.2C723.9,340.4,728,327.4,715.6,321.1z M683.9,355.7c17.1,12,23.6,3.7,20.3-6.1l0,0
		C704.2,349.6,697,356.8,683.9,355.7z M651.1,346.7c-2.6-4.2-3.7-9.6-3.8-16.4c-3.1,3.7-6.6,11.1-2.5,19c4.3,8.3,11.2,10.4,17,9.1
		C658.4,356.1,654.8,352.7,651.1,346.7z M714.9,297.1c0.1-0.8,0.2-1.8,0.2-1.8c-0.2-11.1-6.9-17.7-17.6-16.1
		c-4.4,0.7-10.7,4.5-14.6,7.5C696,285.9,706.4,288.4,714.9,297.1z M734.5,314.9c-1.8-8.9-11.1-16.2-19.6-17.7
		c6.3,6.3,10.6,12.5,12.7,19.1c2.3,7.4,1.6,17.1-0.8,24.9C733.6,335.4,736.6,325.1,734.5,314.9z M662.7,296.5
		c-5,1-12.5,1.6-15.9,4.8c-7.5,7.1-5.9,18.9,0.5,29C647.5,319.1,647.6,308.2,662.7,296.5z M661.7,358.4c0,7.7,3,14.7,12.8,17.1
		c13.4,3.2,27.1-4.9,30.7-10.3C691.8,370.2,677,368.8,661.7,358.4z"/>
	<path class="st2" d="M667.3,329.4c0.9,8.9,8.7,16.7,17.6,17c3,0.1,6-0.6,8.9-1.4c2.7-0.8,5.4-1.7,7.6-3.5c4.8-3.9,6-10.8,5.4-16.9
		c-0.5-5.2-2.3-10.6-6.4-13.9c-5.4-4.4-16.6-5.6-22.6-1.7C671.2,313.3,666.6,321.5,667.3,329.4"/>
	<path class="st3" d="M755,344.6h7.1v-1.2H755V344.6z M842.1,343.4v1.2h7.1v-1.2H842.1z"/>
	<path class="st2" d="M777.1,342.6h-4.5V339h4.9v-3.5h-9v15.8h4.1v-5.9h4.5V342.6z M797.9,343.5c0-1.2-0.2-2.3-0.6-3.3
		c-0.4-1-1-1.9-1.8-2.6c-0.8-0.8-1.7-1.3-2.8-1.8c-1.1-0.4-2.2-0.6-3.5-0.6s-2.5,0.2-3.5,0.6c-1.1,0.4-2,1-2.8,1.8s-1.4,1.6-1.8,2.6
		c-0.4,1-0.6,2.1-0.6,3.3s0.2,2.3,0.6,3.3c0.4,1,1,1.9,1.8,2.6c0.8,0.8,1.7,1.3,2.8,1.8c1.1,0.4,2.2,0.6,3.5,0.6s2.4-0.2,3.5-0.6
		s2-1,2.8-1.8s1.4-1.6,1.8-2.6S797.9,344.7,797.9,343.5z M793.2,345.2c-0.2,0.5-0.6,1-1,1.4s-0.9,0.7-1.4,0.9
		c-0.5,0.2-1.1,0.3-1.7,0.3c-0.6,0-1.2-0.1-1.7-0.3c-0.5-0.2-1-0.5-1.4-0.9s-0.7-0.9-1-1.4c-0.2-0.5-0.4-1.1-0.4-1.7
		s0.1-1.2,0.4-1.7c0.2-0.5,0.6-1,1-1.4s0.9-0.7,1.4-0.9c0.5-0.2,1.1-0.3,1.7-0.3c0.6,0,1.2,0.1,1.7,0.3c0.5,0.2,1,0.5,1.4,0.9
		s0.7,0.9,1,1.4c0.2,0.5,0.4,1.1,0.4,1.7S793.5,344.7,793.2,345.2z M817.9,346.8c0.4-1,0.6-2.1,0.6-3.3s-0.2-2.3-0.6-3.3
		c-0.4-1-1-1.9-1.8-2.6c-0.8-0.8-1.7-1.3-2.8-1.8c-1.1-0.4-2.2-0.6-3.5-0.6s-2.5,0.2-3.5,0.6c-1.1,0.4-2,1-2.8,1.8s-1.4,1.6-1.8,2.6
		c-0.4,1-0.6,2.1-0.6,3.3s0.2,2.3,0.6,3.3c0.4,1,1,1.9,1.8,2.6c0.8,0.8,1.7,1.3,2.8,1.8c1.1,0.4,2.2,0.6,3.5,0.6s2.4-0.2,3.5-0.6
		s2-1,2.8-1.8C816.9,348.7,817.5,347.8,817.9,346.8z M813.9,345.2c-0.2,0.5-0.6,1-1,1.4s-0.9,0.7-1.4,0.9c-0.5,0.2-1.1,0.3-1.7,0.3
		c-0.6,0-1.2-0.1-1.7-0.3c-0.5-0.2-1-0.5-1.4-0.9s-0.7-0.9-1-1.4c-0.2-0.5-0.4-1.1-0.4-1.7s0.1-1.2,0.4-1.7c0.2-0.5,0.6-1,1-1.4
		s0.9-0.7,1.4-0.9c0.5-0.2,1.1-0.3,1.7-0.3c0.6,0,1.2,0.1,1.7,0.3c0.5,0.2,1,0.5,1.4,0.9s0.7,0.9,1,1.4c0.2,0.5,0.4,1.1,0.4,1.7
		S814.2,344.7,813.9,345.2z M833.5,338c-0.7-0.7-1.5-1.3-2.5-1.7c-0.9-0.4-2-0.6-3-0.6h-6.1v15.8h6.1c1.1,0,2.1-0.2,3-0.6
		s1.8-1,2.5-1.7s1.3-1.6,1.7-2.5s0.6-2,0.6-3s-0.2-2-0.6-3C834.8,339.5,834.2,338.7,833.5,338z M831.2,345.3c-0.2,0.5-0.5,1-0.9,1.4
		s-0.9,0.7-1.4,0.9c-0.6,0.2-1.2,0.3-1.9,0.3h-1v-8.8h0.9c0.7,0,1.3,0.1,1.9,0.3c0.6,0.2,1,0.5,1.4,0.9s0.7,0.9,0.9,1.4
		s0.3,1.1,0.3,1.8C831.5,344.1,831.4,344.7,831.2,345.3z M765.7,301c0.5-0.6,0.9-1.4,1.2-2.2c0.2-0.6,0.3-1.2,0.4-1.9
		c0.1-0.7,0.1-1.4,0.1-2.3h-8.1v2.9h3.4c0,0.5-0.2,1.1-0.4,1.5c-0.2,0.3-0.4,0.6-0.7,0.8c-0.3,0.2-0.6,0.3-1,0.4s-0.8,0.1-1.2,0.1
		c-0.7,0-1.3-0.1-1.8-0.3c-0.5-0.2-1-0.6-1.3-1s-0.6-0.9-0.8-1.5s-0.3-1.2-0.3-1.9c0-0.7,0.1-1.4,0.3-2s0.5-1.1,0.8-1.5
		c0.4-0.4,0.8-0.8,1.3-1s1.1-0.3,1.7-0.3c0.7,0,1.4,0.2,2,0.6s1,1,1.4,1.8l3.6-2.1c-0.7-1.2-1.6-2.2-2.7-2.8
		c-1.2-0.7-2.7-1.1-4.3-1.1c-1.3,0-2.4,0.2-3.5,0.6c-1,0.4-1.9,1-2.6,1.7c-0.7,0.7-1.3,1.6-1.7,2.6s-0.6,2.2-0.6,3.4
		c0,1.2,0.2,2.4,0.6,3.4c0.4,1,1,1.9,1.7,2.6s1.6,1.3,2.6,1.7c1,0.4,2.1,0.6,3.4,0.6c0.9,0,1.7-0.1,2.6-0.3c0.8-0.2,1.6-0.5,2.2-1
		C764.6,302.2,765.2,301.7,765.7,301z M775.2,298.7c0,0.1,1.9,4.9,7.5,4.9c0-0.4,0-3.6,0-3.6c-2.8,0-4-2.4-3.9-2.4
		c3.2-1,4.1-3.8,3.3-6.5c-0.6-2-2.5-3.4-4.6-3.4h-6.4v15.8h4.1L775.2,298.7L775.2,298.7z M775.2,290.9c2,0,3.4,0.4,3.4,2.4
		c0,1.6-1.3,2.2-2.7,2.2h-0.8L775.2,290.9L775.2,290.9z M845.9,298.7c0,0.1,1.9,4.9,7.5,4.9V300c-2.8,0-4-2.4-3.9-2.4
		c3.2-1,4.1-3.8,3.3-6.5c-0.6-2-2.5-3.4-4.6-3.4h-6.4v15.8h4.1L845.9,298.7L845.9,298.7z M845.9,290.9c2,0,3.4,0.4,3.4,2.4
		c0,1.6-1.3,2.2-2.7,2.2h-0.8L845.9,290.9L845.9,290.9z M795.4,300h-4.9v-2.4h4.6v-2.9h-4.6v-3.6h4.9v-3.5h-9v15.8h9V300z M838,300
		h-4.9v-2.4h4.6v-2.9h-4.6v-3.6h4.9v-3.5h-9v15.8h9V300z M817.8,303.5h4.1v-12.3h3.4v-3.5h-10.8v3.5h3.4v12.3H817.8z M803.7,300h5.3
		l1.2,3.5h4.4l-6.2-15.8h-4.1l-6.2,15.8h4.4L803.7,300z M806.3,292.4l1.6,4.7h-3.3L806.3,292.4z M766.5,321.5h5.9v5.9h4.1v-15.8
		h-4.1v7.1h-5.9v-7.1h-4.1v15.8h4.1V321.5z M754.3,311.2c-1.1,0-2.2,0.2-3.2,0.6s-1.9,1-2.6,1.7c-0.8,0.7-1.4,1.6-1.8,2.6
		c-0.5,1-0.7,2.1-0.7,3.3s0.2,2.3,0.7,3.4c0.5,1,1.1,1.9,1.8,2.7c0.8,0.7,1.6,1.3,2.6,1.7c1,0.4,2,0.6,3.1,0.6
		c0.5,0,1.1-0.1,1.6-0.2s1.1-0.3,1.8-0.5l0.4-0.1v-4c0,0.2-1.1,0.6-1.3,0.6c-0.4,0.1-0.8,0.2-1.2,0.3c-0.9,0.1-1.9,0.1-2.8-0.3
		c-0.5-0.2-1-0.5-1.3-0.9c-0.4-0.4-0.7-0.9-0.9-1.4s-0.3-1.1-0.3-1.7s0.1-1.2,0.3-1.7s0.5-1,0.9-1.4s0.8-0.7,1.3-0.9
		c0.5-0.2,1.1-0.3,1.7-0.3c1.4,0,2.4,0.3,3.5,1.1V312c-0.7-0.3-1.3-0.5-1.9-0.6C755.5,311.3,754.9,311.2,754.3,311.2z M780.8,327.4
		h4.1v-15.8h-4.1V327.4z M791.1,313.6c-0.8,0.7-1.4,1.6-1.8,2.6c-0.5,1-0.7,2.1-0.7,3.3s0.2,2.3,0.7,3.4c0.5,1,1.1,1.9,1.8,2.7
		c0.8,0.7,1.6,1.3,2.6,1.7c1,0.4,2,0.6,3.1,0.6c0.5,0,1.1-0.1,1.6-0.2s1.1-0.3,1.8-0.5l0.4-0.1V323c0,0.2-1.1,0.6-1.3,0.6
		c-0.4,0.1-0.8,0.2-1.2,0.3c-0.9,0.1-1.9,0.1-2.8-0.3c-0.5-0.2-1-0.5-1.3-0.9c-0.4-0.4-0.7-0.9-0.9-1.4s-0.3-1.1-0.3-1.7
		s0.1-1.2,0.3-1.7s0.5-1,0.9-1.4s0.8-0.7,1.3-0.9c0.5-0.2,1.1-0.3,1.7-0.3c1.4,0,2.4,0.3,3.5,1.1V312c-0.7-0.3-1.3-0.5-1.9-0.6
		c-0.6-0.1-1.2-0.2-1.9-0.2c-1.1,0-2.2,0.2-3.2,0.6C792.7,312.3,791.9,312.8,791.1,313.6z M857.6,322.8c0.4-1,0.6-2.1,0.6-3.3
		c0-1.2-0.2-2.3-0.6-3.3c-0.4-1-1-1.9-1.8-2.6c-0.8-0.8-1.7-1.3-2.8-1.8c-1.1-0.4-2.2-0.6-3.5-0.6s-2.5,0.2-3.5,0.6
		c-1.1,0.4-2,1-2.8,1.8s-1.4,1.6-1.8,2.6c-0.4,1-0.6,2.1-0.6,3.3c0,1.2,0.2,2.3,0.6,3.3c0.4,1,1,1.9,1.8,2.6
		c0.8,0.8,1.7,1.3,2.8,1.8c1.1,0.4,2.2,0.6,3.5,0.6s2.4-0.2,3.5-0.6s2-1,2.8-1.8C856.6,324.7,857.2,323.8,857.6,322.8z M853.6,321.3
		c-0.2,0.5-0.6,1-1,1.4s-0.9,0.7-1.4,0.9c-0.5,0.2-1.1,0.3-1.7,0.3c-0.6,0-1.2-0.1-1.7-0.3c-0.5-0.2-1-0.5-1.4-0.9s-0.7-0.9-1-1.4
		c-0.2-0.5-0.4-1.1-0.4-1.7s0.1-1.2,0.4-1.7s0.6-1,1-1.4s0.9-0.7,1.4-0.9c0.5-0.2,1.1-0.3,1.7-0.3c0.6,0,1.2,0.1,1.7,0.3
		c0.5,0.2,1,0.5,1.4,0.9s0.7,0.9,1,1.4c0.2,0.5,0.4,1.1,0.4,1.7S853.8,320.8,853.6,321.3z M809.9,311.7l-6.2,15.8h4.4l1.2-3.5h5.3
		l1.2,3.5h4.4l-6.2-15.8H809.9z M810.3,321l1.6-4.7l1.6,4.7H810.3z M837.8,318.6h-8.1v2.9h3.4c0,0.5-0.2,1.1-0.4,1.4
		s-0.4,0.6-0.7,0.8c-0.3,0.2-0.6,0.4-1,0.4c-0.4,0.1-0.8,0.1-1.2,0.1c-0.7,0-1.3-0.1-1.8-0.3c-0.5-0.2-0.9-0.6-1.3-1
		c-0.3-0.4-0.6-0.9-0.8-1.5s-0.3-1.2-0.3-1.9c0-0.7,0.1-1.4,0.3-2s0.5-1.1,0.8-1.5c0.4-0.4,0.8-0.8,1.3-1s1.1-0.3,1.7-0.3
		c0.7,0,1.4,0.2,2,0.6s1,1,1.4,1.9l3.6-2.1c-0.7-1.2-1.6-2.2-2.7-2.8c-1.2-0.7-2.7-1.1-4.3-1.1c-1.3,0-2.4,0.2-3.5,0.6
		c-1,0.4-1.9,1-2.6,1.7c-0.7,0.7-1.3,1.6-1.7,2.6s-0.6,2.2-0.6,3.4c0,1.2,0.2,2.4,0.6,3.4c0.4,1,1,1.9,1.7,2.6s1.6,1.3,2.6,1.7
		c1,0.4,2.1,0.6,3.4,0.6c0.9,0,1.7-0.1,2.6-0.3c0.8-0.2,1.6-0.5,2.2-1c0.7-0.4,1.3-1,1.8-1.6s0.9-1.4,1.2-2.2
		c0.2-0.6,0.3-1.2,0.4-1.9C837.8,320.2,837.8,319.4,837.8,318.6z M756.2,360.6c-1.1-0.9-2.3-1-3.2-1h-1.7v8.6h1.7
		c1.5,0,2.3-0.3,3.1-1c0.6-0.5,1.5-1.5,1.5-3.3C757.7,362.3,757,361.2,756.2,360.6z M755.5,366.4c-0.8,0.7-1.8,0.8-2.4,0.8h-0.8
		v-6.8h0.8c2.2,0,3.6,1.3,3.6,3.4C756.7,365.1,756.2,365.9,755.5,366.4z M763.1,368.1h4.4v-0.9H764v-2.5h3.4v-0.9H764v-3.3h3.5v-0.9
		h-4.4V368.1z M787.5,359.4c-2.5,0-4.5,1.9-4.5,4.4s2,4.4,4.5,4.4s4.5-1.9,4.5-4.4S790,359.4,787.5,359.4z M787.5,367.4
		c-1.9,0-3.5-1.6-3.5-3.5s1.6-3.5,3.5-3.5s3.5,1.6,3.5,3.5S789.4,367.4,787.5,367.4z M800,363.3l-0.8-0.4c-0.3-0.1-0.6-0.3-0.9-0.5
		c-0.2-0.2-0.3-0.4-0.3-0.7c0-0.8,0.6-1.3,1.4-1.3c0.5,0,0.8,0.2,1,0.3c0.2,0.2,0.4,0.4,0.5,0.6l0.8-0.5c-0.2-0.4-0.5-0.7-0.8-0.9
		c-0.4-0.3-0.8-0.4-1.4-0.4c-1.4,0-2.4,0.9-2.4,2.2c0,0.6,0.2,1,0.6,1.4c0.4,0.4,0.8,0.6,1.1,0.7l0.8,0.4c0.4,0.2,0.8,0.4,1,0.6
		c0.3,0.3,0.4,0.6,0.4,1c0,0.9-0.6,1.7-1.7,1.7c-0.4,0-0.9-0.1-1.2-0.5c-0.2-0.3-0.4-0.6-0.5-1.1l-0.9,0.3c0.1,0.5,0.4,1.1,0.8,1.5
		c0.6,0.6,1.3,0.7,1.9,0.7c1.5,0,2.7-1.1,2.7-2.6c0-0.6-0.2-1.1-0.6-1.6C801,363.7,800.5,363.5,800,363.3z M807.8,368.1h1v-8.6h-1
		V368.1z M814.6,360.5h2.1v7.7h1v-7.7h2.1v-0.9h-5.1L814.6,360.5L814.6,360.5z M828.1,359.4c-2.5,0-4.5,1.9-4.5,4.4s2,4.4,4.5,4.4
		s4.5-1.9,4.5-4.4C832.5,361.3,830.5,359.4,828.1,359.4z M828.1,367.4c-1.9,0-3.5-1.6-3.5-3.5s1.6-3.5,3.5-3.5s3.5,1.6,3.5,3.5
		S830,367.4,828.1,367.4z M849.6,363.4l-2.2-3.8h-1.1l2.8,4.9v3.7h0.9v-3.7l2.8-4.9h-1.1L849.6,363.4z M840.1,364.9
		c0.2,0,0.4-0.1,0.6-0.1c0.7-0.2,1.2-0.7,1.5-1.4c0.2-0.4,0.2-0.9,0.1-1.4c-0.1-0.5-0.2-0.9-0.5-1.3c-0.5-0.7-1.1-0.9-1.9-1
		c-0.5-0.1-2.4-0.1-2.4,0c-0.1,0,0,0,0,0.1v8.4h1c0-1.1,0-2.1,0-3.2c0.2,0,0.5,0,0.7,0c0.2,0.6,0.4,1.3,0.8,1.8
		c1,1.4,2.3,1.4,2.5,1.4v-0.9C840.9,367,840.3,365.7,840.1,364.9z M839.2,364.1h-0.8v-3.6h0.6c1.6,0,2.4,0.5,2.4,1.8
		C841.4,363.4,840.8,364.1,839.2,364.1z M777.9,360.6c-0.5-0.7-1.1-1-1.9-1c-0.6-0.1-2.4-0.1-2.4,0c-0.1,0,0,0,0,0.1v8.4h0.9
		c0-1.1,0-2.1,0-3.2c0.8,0,1.6,0,2.3-0.2s1.2-0.7,1.5-1.4c0.2-0.4,0.2-0.9,0.1-1.4C778.3,361.5,778.1,361,777.9,360.6z M775.2,364.1
		h-0.8v-3.6h0.6c1.6,0,2.4,0.5,2.4,1.8C777.4,363.4,776.8,364.1,775.2,364.1z M854.1,366.1h0.6v2.1h0.3v-2.1h0.6v-0.2h-1.4
		L854.1,366.1L854.1,366.1z M857.9,365.7l-0.9,2l-0.9-2l-0.4,2.5h0.3l0.2-1.6l0.8,1.7l0.8-1.7l0.2,1.6h0.3L857.9,365.7z"/>
</g>
<g>
	<path class="st4" d="M28.7,27.8v12.5h-4.2V27.8h-3.4v-3.5h11v3.5H28.7z"/>
	<path class="st4" d="M48.4,38.3c-1.6,1.6-3.9,2.4-6.3,2.4s-4.7-0.8-6.3-2.4c-1.7-1.6-2.5-3.9-2.5-6s0.8-4.4,2.5-6
		c1.6-1.6,3.9-2.4,6.3-2.4s4.7,0.8,6.3,2.4c1.7,1.6,2.5,3.9,2.5,6S50.1,36.7,48.4,38.3z M38.9,29.2c-0.9,0.8-1.3,2-1.3,3.1
		c0,1.4,0.7,2.4,1.3,3c0.8,0.7,1.8,1.3,3.2,1.3s2.5-0.5,3.2-1.2s1.3-1.8,1.3-3.1c0-1.2-0.6-2.4-1.3-3.1c-0.9-0.8-2.1-1.3-3.2-1.3
		C40.9,28,39.7,28.4,38.9,29.2z"/>
	<path class="st4" d="M61.2,31.2h8.3c0,3.2-0.6,5.4-2.6,7.2c-1.7,1.6-3.6,2-5.6,2c-2.9,0-4.8-1.1-6.1-2.4c-1.2-1.2-2.3-3.1-2.3-5.8
		c0-2.5,1-4.6,2.4-6c1.3-1.3,3.4-2.4,6.2-2.4c1.5,0,3.1,0.3,4.3,1.1c1.2,0.8,2.3,2,2.9,3.3l-4,1.6c-0.3-0.7-0.7-1.3-1.2-1.6
		c-0.7-0.6-1.4-0.8-2.2-0.8c-1,0-2,0.4-2.7,1.1c-0.9,0.9-1.4,2.4-1.4,3.7c0,1.5,0.5,2.7,1.3,3.5c0.8,0.8,1.7,1.2,2.9,1.2
		c0.7,0,1.6-0.1,2.3-0.7c0.4-0.3,0.8-0.9,1-1.8h-3.4v-3.2H61.2z"/>
	<path class="st4" d="M81.2,27.8h-4.9v2.7H81V34h-4.7v2.8h4.9v3.5h-9.1v-16h9.1C81.2,24.3,81.2,27.8,81.2,27.8z"/>
	<path class="st4" d="M90.5,27.8v12.5h-4.2V27.8H83v-3.5h11v3.5H90.5z"/>
	<path class="st4" d="M99.9,30.3h6v-6h4.2v16h-4.2v-6.5h-6v6.5h-4.2v-16h4.2V30.3z"/>
	<path class="st4" d="M122.6,27.8h-4.9v2.7h4.7V34h-4.7v2.8h4.9v3.5h-9.1v-16h9.1V27.8z"/>
	<path class="st4" d="M131.7,24.3c1.2,0,2.7,0.2,3.9,1.4c0.9,0.9,1.4,2.3,1.4,3.6c0,1.4-0.5,2.6-1.3,3.3c-0.6,0.6-1.5,1-2.2,1.1
		l5,6.6h-5.2l-4-6.1v6.1h-4.2v-16H131.7z M129.4,31.5h0.8c0.6,0,1.5-0.2,2-0.6c0.3-0.3,0.5-0.8,0.5-1.3s-0.2-1-0.6-1.3
		c-0.4-0.4-1.1-0.6-2-0.6h-0.8v3.8H129.4z"/>
	<path class="st4" d="M25.3,50.3l2.8,10.3l3.4-10.3h3.3L38,60.6l3-10.3h4.3l-5.1,16H36L33.1,57L30,66.3h-4.2l-4.8-16H25.3z"/>
	<path class="st4" d="M56.1,53.8h-4.9v2.7h4.7V60h-4.7v2.8h4.9v3.5H47v-16h9.1V53.8z"/>
	<path class="st4" d="M75.8,65.9c-1.7,0.6-2.6,0.8-3.6,0.8c-2.8,0-4.9-1.1-6.2-2.4c-1.6-1.6-2.4-3.7-2.4-5.8c0-2.3,1-4.4,2.4-5.9
		c1.4-1.4,3.6-2.5,6-2.5c0.8,0,2,0.1,3.7,0.8v5c-1.3-1.7-2.9-1.8-3.6-1.8c-1.2,0-2.1,0.4-2.9,1.1c-1,0.9-1.4,2.2-1.4,3.3
		s0.5,2.3,1.3,3.1c0.7,0.6,1.8,1.1,3,1.1c0.6,0,2.2-0.1,3.6-1.7L75.8,65.9L75.8,65.9z"/>
	<path class="st4" d="M88.2,63.6h-5.8l-1.1,2.7H77l6.1-16h4.5l6,16h-4.4L88.2,63.6z M87.1,60.5l-1.8-5.2l-1.8,5.2H87.1z"/>
	<path class="st4" d="M95.5,66.3v-16h4.2l7.7,9.8v-9.8h4.2v16h-4.2l-7.7-9.8v9.8H95.5z"/>
</g>
<g>
	<path class="st0" d="M328.7,79.8v12.5h-4.2V79.8h-3.4v-3.5h11v3.5H328.7z"/>
	<path class="st0" d="M343,89.6h-5.8l-1.1,2.7h-4.4l6.1-16h4.5l6,16H344L343,89.6z M341.9,86.5l-1.8-5.2l-1.8,5.2H341.9z"/>
	<path class="st0" d="M354.5,82.9l5.1-6.6h5.1l-6.4,7.6l6.9,8.4h-5.4l-5.4-6.9v6.9h-4.2v-16h4.2L354.5,82.9L354.5,82.9z"/>
	<path class="st0" d="M376.2,79.8h-4.9v2.7h4.7V86h-4.7v2.8h4.9v3.5h-9.1v-16h9.1V79.8z"/>
	<path class="st0" d="M326.8,108.3h6v-6h4.2v16h-4.2v-6.5h-6v6.5h-4.2v-16h4.2V108.3z"/>
	<path class="st0" d="M344.5,102.3v9.5c0,0.7,0,1.7,0.8,2.5c0.5,0.5,1.2,0.8,2,0.8c0.7,0,1.5-0.3,1.9-0.7c1-0.8,0.9-2,0.9-2.9v-9.1
		h4.2v9.2c0,1.7-0.1,3.4-1.8,5.2c-1.3,1.4-3,2-5.3,2c-2.5,0-4.3-0.9-5.3-1.9c-1.4-1.5-1.6-3.6-1.6-5.3v-9.2L344.5,102.3L344.5,102.3
		z"/>
	<path class="st0" d="M357.7,118.3v-16h4.2l7.7,9.8v-9.8h4.2v16h-4.2l-7.7-9.8v9.8H357.7z"/>
	<path class="st0" d="M384.7,109.2h8.3c0,3.2-0.6,5.4-2.6,7.2c-1.7,1.6-3.6,2-5.6,2c-2.9,0-4.8-1.1-6.1-2.4
		c-1.2-1.2-2.3-3.1-2.3-5.8c0-2.5,1-4.6,2.4-6c1.3-1.3,3.4-2.4,6.2-2.4c1.5,0,3.1,0.3,4.3,1.1c1.2,0.8,2.3,2,2.9,3.3l-4,1.6
		c-0.3-0.7-0.7-1.3-1.2-1.6c-0.7-0.6-1.4-0.8-2.2-0.8c-1,0-2,0.4-2.7,1.1c-0.9,0.9-1.4,2.4-1.4,3.7c0,1.5,0.5,2.7,1.3,3.5
		s1.7,1.2,2.9,1.2c0.7,0,1.6-0.1,2.3-0.7c0.4-0.3,0.8-0.9,1-1.8h-3.4L384.7,109.2L384.7,109.2z"/>
	<path class="st0" d="M404.7,105.8h-4.9v2.7h4.7v3.5h-4.7v2.8h4.9v3.5h-9.1v-16h9.1V105.8z"/>
	<path class="st0" d="M413.8,102.3c1.2,0,2.7,0.2,3.9,1.4c0.9,0.9,1.4,2.3,1.4,3.6c0,1.4-0.5,2.6-1.3,3.3c-0.6,0.6-1.5,1-2.2,1.1
		l5,6.6h-5.2l-4-6.1v6.1h-4.2v-16H413.8z M411.5,109.5h0.8c0.6,0,1.5-0.2,2-0.6c0.3-0.3,0.5-0.8,0.5-1.3s-0.2-1-0.6-1.3
		c-0.4-0.4-1.1-0.6-2-0.6h-0.8v3.8H411.5z"/>
</g>
<g>
	<path class="st0" d="M637.1,142.3c-1.6,1.6-3.9,2.4-6.3,2.4s-4.7-0.8-6.3-2.4c-1.7-1.6-2.5-3.9-2.5-6s0.8-4.4,2.5-6
		c1.6-1.6,3.9-2.4,6.3-2.4s4.7,0.8,6.3,2.4c1.7,1.6,2.5,3.9,2.5,6C639.6,138.4,638.8,140.7,637.1,142.3z M627.6,133.2
		c-0.9,0.8-1.3,2-1.3,3.1c0,1.4,0.7,2.4,1.3,3c0.8,0.7,1.8,1.3,3.2,1.3s2.5-0.5,3.2-1.2s1.3-1.8,1.3-3.1c0-1.2-0.6-2.4-1.3-3.1
		c-0.9-0.8-2.1-1.3-3.2-1.3C629.6,132,628.4,132.4,627.6,133.2z"/>
	<path class="st0" d="M651.4,131.8h-5v2.7h4.6v3.5h-4.6v6.3h-4.2v-16h9.2V131.8z"/>
	<path class="st0" d="M663.1,131.8h-5v2.7h4.6v3.5h-4.6v6.3h-4.2v-16h9.2V131.8z"/>
	<path class="st0" d="M677.2,131.8v12.5H673v-12.5h-3.4v-3.5h11v3.5H677.2z"/>
	<path class="st0" d="M686.6,134.3h6v-6h4.2v16h-4.2v-6.5h-6v6.5h-4.2v-16h4.2V134.3z"/>
	<path class="st0" d="M709.2,131.8h-4.9v2.7h4.7v3.5h-4.7v2.8h4.9v3.5h-9.1v-16h9.1V131.8z"/>
	<path class="st0" d="M628.7,157.8v12.5h-4.2v-12.5h-3.4v-3.5h11v3.5H628.7z"/>
	<path class="st0" d="M643.8,167.6H638l-1.1,2.7h-4.4l6.1-16h4.5l6,16h-4.4L643.8,167.6z M642.6,164.5l-1.8-5.2l-1.8,5.2H642.6z"/>
	<path class="st0" d="M651,170.3v-16h6.2c1.2,0,2.5,0.2,3.5,1.2c0.6,0.6,1,1.6,1,3c0,0.7-0.1,1.3-0.5,2c-0.3,0.6-0.7,1-1.3,1.2
		c0.8,0.1,1.7,0.5,2.2,1c0.6,0.6,1.1,1.7,1.1,2.9c0,1.5-0.6,2.5-1.2,3.1c-0.9,0.9-2.4,1.5-4.3,1.5H651V170.3z M655.2,160.6h0.8
		c0.4,0,1.2,0,1.6-0.5c0.3-0.3,0.4-0.7,0.4-1.1c0-0.4-0.1-0.8-0.4-1.1c-0.3-0.3-0.8-0.5-1.6-0.5h-0.8V160.6z M655.2,167.1h0.9
		c1.2,0,2.1-0.1,2.6-0.6c0.2-0.2,0.3-0.6,0.3-1c0-0.5-0.2-0.9-0.4-1.2c-0.5-0.5-1.5-0.5-2.6-0.5h-0.9v3.3H655.2z"/>
	<path class="st0" d="M670,154.3v12.5h5v3.5h-9.1v-16H670z"/>
	<path class="st0" d="M686.2,157.8h-4.9v2.7h4.7v3.5h-4.7v2.8h4.9v3.5h-9.1v-16h9.1V157.8z"/>
	<path class="st0" d="M689.1,170c-0.3-0.3-0.7-0.9-0.7-1.8s0.4-1.4,0.7-1.8c0.6-0.6,1.2-0.7,1.8-0.7s1.2,0.2,1.8,0.8
		c0.4,0.4,0.7,0.9,0.7,1.7s-0.3,1.3-0.7,1.8c-0.5,0.5-1.1,0.7-1.8,0.7C690.3,170.8,689.7,170.6,689.1,170z"/>
</g>
<path class="st0" d="M376.5,403.6c0,0-17,0-17,17v2c0,0,0,17,17,17h147c0,0,17,0,17-17v-2c0,0,0-17-17-17H376.5z"/>
<g>
	<path class="st4" d="M391.8,422.8l-5-8h3.4l3.1,5.1l3.1-5.1h3.4l-5.2,8v6.7h-2.9v-6.7H391.8z"/>
	<path class="st4" d="M408.1,421c0.9,0.9,1.6,2.2,1.6,3.7s-0.7,2.9-1.6,3.7c-0.8,0.7-2,1.3-3.9,1.3c-1.8,0-3-0.6-3.9-1.3
		c-0.9-0.9-1.6-2.2-1.6-3.7c0-1.6,0.7-2.9,1.6-3.7c0.8-0.7,2-1.3,3.9-1.3C406,419.7,407.3,420.3,408.1,421z M406.9,424.8
		c0-1.5-1.1-2.7-2.7-2.7s-2.7,1.2-2.7,2.7s1.1,2.7,2.7,2.7S406.9,426.2,406.9,424.8z"/>
	<path class="st4" d="M414.4,420v5.4c0,0.5,0,1.2,0.6,1.7c0.3,0.3,0.9,0.5,1.4,0.5s1-0.2,1.4-0.5c0.5-0.5,0.6-1.2,0.6-1.7V420h2.7
		v5.8c0,0.9-0.1,2-1.2,2.9c-0.9,0.8-2.3,1.1-3.5,1.1s-2.6-0.3-3.5-1.1c-1.1-0.9-1.2-2.1-1.2-2.9V420H414.4z"/>
	<path class="st4" d="M435.8,422.9c-0.6-0.5-1.3-0.8-2.2-0.8c-1.8,0-2.7,1.3-2.7,2.7c0,1.6,1.2,2.7,2.8,2.7c0.6,0,1.4-0.2,2.1-0.8
		v2.6c-0.5,0.3-1.4,0.6-2.5,0.6c-1.5,0-2.8-0.6-3.7-1.4c-0.7-0.7-1.5-1.9-1.5-3.7c0-1.7,0.7-3,1.7-3.9c1.2-1,2.5-1.2,3.4-1.2
		c1,0,1.8,0.2,2.6,0.6L435.8,422.9L435.8,422.9z"/>
	<path class="st4" d="M445.2,420h2.7v9.5h-2.7v-1.2c-1,1.4-2.2,1.5-2.9,1.5c-2.9,0-4.9-2.3-4.9-5.1c0-2.8,1.9-5.1,4.7-5.1
		c0.7,0,2.2,0.1,3.1,1.5L445.2,420L445.2,420z M440.2,424.8c0,1.5,1.1,2.7,2.6,2.7s2.6-1.2,2.6-2.7s-1.1-2.7-2.6-2.7
		S440.2,423.2,440.2,424.8z"/>
	<path class="st4" d="M450.4,420h2.7v1.2c0.5-0.7,1.4-1.5,2.9-1.5c0.8,0,2.1,0.2,2.8,1.2c0.7,0.8,0.7,1.8,0.7,2.7v6h-2.7v-5.2
		c0-0.5,0-1.4-0.5-1.9c-0.4-0.4-1-0.5-1.3-0.5c-0.7,0-1.3,0.2-1.7,0.8c-0.4,0.6-0.4,1.3-0.4,1.8v4.9h-2.7V420H450.4z"/>
	<path class="st4" d="M467.3,413.5h2.7v7.7c0.5-0.7,1.4-1.5,2.9-1.5c0.8,0,2.1,0.2,2.8,1.2c0.7,0.8,0.7,1.8,0.7,2.7v6h-2.7v-5.2
		c0-0.5,0-1.4-0.5-1.9c-0.4-0.4-1-0.5-1.3-0.5c-0.7,0-1.3,0.2-1.7,0.8c-0.4,0.6-0.4,1.3-0.4,1.8v4.9h-2.7v-16H467.3z"/>
	<path class="st4" d="M488.2,426.9c-0.3,0.7-1.4,3-4.7,3c-1.5,0-2.7-0.4-3.7-1.3c-1.1-1-1.5-2.2-1.5-3.7c0-1.9,0.8-3.1,1.5-3.7
		c1.1-1.1,2.4-1.3,3.6-1.3c1.9,0,3.1,0.8,3.7,1.6c1,1.2,1.1,2.7,1.1,3.7v0.2h-7.1c0,0.6,0.2,1.2,0.5,1.6s0.9,0.9,1.9,0.9
		s1.8-0.5,2.2-1.3L488.2,426.9z M485.7,423.5c-0.2-1.3-1.3-1.9-2.3-1.9s-2,0.6-2.2,1.9H485.7z"/>
	<path class="st4" d="M493,413.5v16h-2.7v-16H493z"/>
	<path class="st4" d="M498.2,434.6h-2.7V420h2.7v1.2c0.4-0.6,1.3-1.5,3.1-1.5c0.8,0,2.2,0.2,3.3,1.3c0.7,0.7,1.4,1.9,1.4,3.8
		c0,2.2-0.9,3.3-1.5,3.9c-0.7,0.7-1.8,1.2-3.2,1.2c-0.7,0-2-0.1-3.1-1.5L498.2,434.6L498.2,434.6z M498.9,422.7
		c-0.6,0.5-0.9,1.2-0.9,2c0,0.9,0.4,1.6,0.9,2.1c0.4,0.3,0.9,0.6,1.8,0.6s1.5-0.4,1.8-0.7c0.6-0.5,0.8-1.3,0.8-2s-0.3-1.5-0.8-2
		c-0.5-0.4-1.2-0.7-1.8-0.7C499.9,422.1,499.3,422.3,498.9,422.7z"/>
	<path class="st4" d="M510.5,426.4c1,0,1.7,0.7,1.7,1.7s-0.7,1.7-1.7,1.7s-1.7-0.7-1.7-1.7S509.5,426.4,510.5,426.4z"/>
</g>
<g>
	<path class="st0" d="M38.2,455.6v12.2h-2.9v-12.2H32v-2.5h9.5v2.5H38.2z"/>
	<path class="st0" d="M51.1,459.3c0.9,0.9,1.6,2.2,1.6,3.7s-0.7,2.9-1.6,3.7c-0.8,0.7-2,1.3-3.9,1.3c-1.8,0-3-0.6-3.9-1.3
		c-0.9-0.9-1.6-2.2-1.6-3.7c0-1.6,0.7-2.9,1.6-3.7c0.8-0.7,2-1.3,3.9-1.3C49,457.9,50.3,458.5,51.1,459.3z M49.9,463
		c0-1.5-1.1-2.7-2.7-2.7s-2.7,1.2-2.7,2.7s1.1,2.7,2.7,2.7S49.9,464.5,49.9,463z"/>
	<path class="st0" d="M62,458.3h2.7v9.1c0,1.5-0.1,3-1.3,4.2c-0.7,0.7-1.8,1.3-3.8,1.3c-1.8,0-2.9-0.5-3.6-1.1
		c-0.7-0.6-1.3-1.8-1.5-2.8h2.9c0.1,0.4,0.4,0.9,0.7,1.1c0.5,0.5,1.3,0.5,1.6,0.5c0.8,0,1.3-0.3,1.6-0.6c0.6-0.6,0.7-1.3,0.7-2.1
		v-1.3c-0.9,1.4-2.2,1.6-2.9,1.6c-1.3,0-2.4-0.4-3.3-1.3c-0.7-0.7-1.5-1.9-1.5-3.8c0-1.5,0.5-2.9,1.5-3.8c0.8-0.8,2-1.3,3.3-1.3
		c1.8,0,2.6,1,3,1.5L62,458.3L62,458.3z M57.9,461c-0.4,0.4-0.9,1-0.9,2c0,0.8,0.3,1.5,0.7,1.9c0.6,0.6,1.3,0.8,1.9,0.8
		c0.7,0,1.3-0.2,1.8-0.7s0.9-1.3,0.9-2c0-0.9-0.4-1.5-0.8-1.9c-0.5-0.6-1.1-0.8-1.9-0.8S58.2,460.7,57.9,461z"/>
	<path class="st0" d="M76.6,465.1c-0.3,0.7-1.4,3-4.7,3c-1.5,0-2.7-0.4-3.7-1.3c-1.1-1-1.5-2.2-1.5-3.7c0-1.9,0.8-3.1,1.5-3.7
		c1.1-1.1,2.4-1.3,3.6-1.3c1.9,0,3.1,0.8,3.7,1.6c1,1.2,1.1,2.7,1.1,3.7v0.2h-7.1c0,0.6,0.2,1.2,0.5,1.6s0.9,0.9,1.9,0.9
		s1.8-0.5,2.2-1.3L76.6,465.1z M74.1,461.8c-0.2-1.3-1.3-1.9-2.3-1.9s-2,0.6-2.2,1.9H74.1z"/>
	<path class="st0" d="M81.4,460.5v7.2h-2.7v-7.2h-1.1v-2.3h1.1V455h2.7v3.3h1.8v2.3L81.4,460.5L81.4,460.5z"/>
	<path class="st0" d="M84.7,451.7h2.7v7.7c0.5-0.7,1.4-1.5,2.9-1.5c0.8,0,2.1,0.2,2.8,1.2c0.7,0.8,0.7,1.8,0.7,2.7v6h-2.7v-5.2
		c0-0.5,0-1.4-0.5-1.9c-0.4-0.4-1-0.5-1.3-0.5c-0.7,0-1.3,0.2-1.7,0.8c-0.4,0.6-0.4,1.3-0.4,1.8v4.9h-2.7v-16H84.7z"/>
	<path class="st0" d="M105.6,465.1c-0.3,0.7-1.4,3-4.7,3c-1.5,0-2.7-0.4-3.7-1.3c-1.1-1-1.5-2.2-1.5-3.7c0-1.9,0.8-3.1,1.5-3.7
		c1.1-1.1,2.4-1.3,3.6-1.3c1.9,0,3.1,0.8,3.7,1.6c1,1.2,1.1,2.7,1.1,3.7v0.2h-7.1c0,0.6,0.2,1.2,0.5,1.6s0.9,0.9,1.9,0.9
		s1.8-0.5,2.2-1.3L105.6,465.1z M103.1,461.8c-0.2-1.3-1.3-1.9-2.3-1.9s-2,0.6-2.2,1.9H103.1z"/>
	<path class="st0" d="M107.7,458.3h2.7v1.4c0.4-0.8,1-1.2,1.2-1.3c0.4-0.3,0.9-0.4,1.6-0.4c0.5,0,0.8,0.1,1.1,0.2l-0.4,2.5
		c-0.4-0.2-0.7-0.4-1.3-0.4c-0.5,0-1.3,0.1-1.8,0.8c-0.5,0.6-0.5,1.5-0.5,2.1v4.6h-2.7v-9.5L107.7,458.3L107.7,458.3z"/>
	<path class="st0" d="M125.7,467.8h-1.3l-4.8-9.5h3l2.5,5.5l2.6-5.5h1.2l2.6,5.5l2.5-5.5h3l-4.8,9.5h-1.3l-2.5-5.6L125.7,467.8z"/>
	<path class="st0" d="M147.3,465.1c-0.3,0.7-1.4,3-4.7,3c-1.5,0-2.7-0.4-3.7-1.3c-1.1-1-1.5-2.2-1.5-3.7c0-1.9,0.8-3.1,1.5-3.7
		c1.1-1.1,2.4-1.3,3.6-1.3c1.9,0,3.1,0.8,3.7,1.6c1,1.2,1.1,2.7,1.1,3.7v0.2h-7.1c0,0.6,0.2,1.2,0.5,1.6s0.9,0.9,1.9,0.9
		s1.8-0.5,2.2-1.3L147.3,465.1z M144.8,461.8c-0.2-1.3-1.3-1.9-2.3-1.9s-2,0.6-2.2,1.9H144.8z"/>
	<path class="st0" d="M161.8,458.3h2.7v9.5h-2.7v-1.2c-1,1.4-2.2,1.5-2.9,1.5c-2.9,0-4.9-2.3-4.9-5.1c0-2.8,1.9-5.1,4.7-5.1
		c0.7,0,2.2,0.1,3.1,1.5L161.8,458.3L161.8,458.3z M156.8,463c0,1.5,1.1,2.7,2.6,2.7s2.6-1.2,2.6-2.7s-1.1-2.7-2.6-2.7
		S156.8,461.5,156.8,463z"/>
	<path class="st0" d="M167.1,458.3h2.7v1.4c0.4-0.8,1-1.2,1.2-1.3c0.4-0.3,0.9-0.4,1.6-0.4c0.5,0,0.8,0.1,1.1,0.2l-0.4,2.5
		c-0.4-0.2-0.7-0.4-1.3-0.4c-0.5,0-1.3,0.1-1.8,0.8c-0.5,0.6-0.5,1.5-0.5,2.1v4.6H167L167.1,458.3L167.1,458.3z"/>
	<path class="st0" d="M183.9,465.1c-0.3,0.7-1.4,3-4.7,3c-1.5,0-2.7-0.4-3.7-1.3c-1.1-1-1.5-2.2-1.5-3.7c0-1.9,0.8-3.1,1.5-3.7
		c1.1-1.1,2.4-1.3,3.6-1.3c1.9,0,3.1,0.8,3.7,1.6c1,1.2,1.1,2.7,1.1,3.7v0.2h-7.1c0,0.6,0.2,1.2,0.5,1.6s0.9,0.9,1.9,0.9
		s1.8-0.5,2.2-1.3L183.9,465.1z M181.4,461.8c-0.2-1.3-1.3-1.9-2.3-1.9s-2,0.6-2.2,1.9H181.4z"/>
	<path class="st0" d="M199,459.9h6.7v0.2c0,1-0.1,4.1-2.2,6.1c-1.5,1.5-3.4,1.9-5.2,1.9s-3.7-0.4-5.3-2c-0.5-0.5-2.2-2.4-2.2-5.7
		c0-2.8,1.3-4.6,2.2-5.5c1.1-1.1,2.9-2.2,5.8-2.2c1.1,0,2.3,0.2,3.4,0.8c0.9,0.5,2,1.4,2.8,2.7l-2.5,1.3c-0.5-1-1.3-1.5-1.7-1.7
		c-0.6-0.3-1.4-0.5-2.1-0.5c-1.2,0-2.5,0.4-3.4,1.3c-0.8,0.8-1.5,2.2-1.5,3.9c0,2,0.8,3.1,1.5,3.7s1.7,1.3,3.3,1.3
		c1,0,2.1-0.3,2.9-0.9c0.6-0.4,1.1-1.2,1.4-2.2H199V459.9z"/>
	<path class="st0" d="M208,458.3h2.7v1.4c0.4-0.8,1-1.2,1.2-1.3c0.4-0.3,0.9-0.4,1.6-0.4c0.5,0,0.8,0.1,1.1,0.2l-0.4,2.5
		c-0.4-0.2-0.7-0.4-1.3-0.4c-0.5,0-1.3,0.1-1.8,0.8c-0.5,0.6-0.5,1.5-0.5,2.1v4.6H208V458.3z"/>
	<path class="st0" d="M224.8,465.1c-0.3,0.7-1.4,3-4.7,3c-1.5,0-2.7-0.4-3.7-1.3c-1.1-1-1.5-2.2-1.5-3.7c0-1.9,0.8-3.1,1.5-3.7
		c1.1-1.1,2.4-1.3,3.6-1.3c1.9,0,3.1,0.8,3.7,1.6c1,1.2,1.1,2.7,1.1,3.7v0.2h-7.1c0,0.6,0.2,1.2,0.5,1.6s0.9,0.9,1.9,0.9
		s1.8-0.5,2.2-1.3L224.8,465.1z M222.3,461.8c-0.2-1.3-1.3-1.9-2.3-1.9s-2,0.6-2.2,1.9H222.3z"/>
	<path class="st0" d="M234.4,458.3h2.7v9.5h-2.7v-1.2c-1,1.4-2.2,1.5-2.9,1.5c-2.9,0-4.9-2.3-4.9-5.1c0-2.8,1.9-5.1,4.7-5.1
		c0.7,0,2.2,0.1,3.1,1.5L234.4,458.3L234.4,458.3z M229.4,463c0,1.5,1.1,2.7,2.6,2.7s2.6-1.2,2.6-2.7s-1.1-2.7-2.6-2.7
		S229.4,461.5,229.4,463z"/>
	<path class="st0" d="M242.3,460.5v7.2h-2.7v-7.2h-1.1v-2.3h1.1V455h2.7v3.3h1.8v2.3L242.3,460.5L242.3,460.5z"/>
	<path class="st0" d="M255,465.1c-0.3,0.7-1.4,3-4.7,3c-1.5,0-2.7-0.4-3.7-1.3c-1.1-1-1.5-2.2-1.5-3.7c0-1.9,0.8-3.1,1.5-3.7
		c1.1-1.1,2.4-1.3,3.6-1.3c1.9,0,3.1,0.8,3.7,1.6c1,1.2,1.1,2.7,1.1,3.7v0.2h-7.1c0,0.6,0.2,1.2,0.5,1.6s0.9,0.9,1.9,0.9
		s1.8-0.5,2.2-1.3L255,465.1z M252.5,461.8c-0.2-1.3-1.3-1.9-2.3-1.9s-2,0.6-2.2,1.9H252.5z"/>
	<path class="st0" d="M257.1,458.3h2.7v1.4c0.4-0.8,1-1.2,1.2-1.3c0.4-0.3,0.9-0.4,1.6-0.4c0.5,0,0.8,0.1,1.1,0.2l-0.4,2.5
		c-0.4-0.2-0.7-0.4-1.3-0.4c-0.5,0-1.3,0.1-1.8,0.8c-0.5,0.6-0.5,1.5-0.5,2.1v4.6H257L257.1,458.3L257.1,458.3z"/>
	<path class="st0" d="M265.4,464.6c1,0,1.7,0.7,1.7,1.7s-0.7,1.7-1.7,1.7s-1.7-0.7-1.7-1.7C263.7,465.4,264.4,464.6,265.4,464.6z"/>
</g>
</svg>
