<?xml version="1.0" encoding="utf-8"?>
<!-- Generator: Adobe Illustrator 24.0.1, SVG Export Plug-In . SVG Version: 6.00 Build 0)  -->
<svg version="1.1" id="Layer_1" xmlns="http://www.w3.org/2000/svg" xmlns:xlink="http://www.w3.org/1999/xlink" x="0px" y="0px"
	 width="1500px" height="1500px" viewBox="0 0 1500 1500" enable-background="new 0 0 1500 1500" xml:space="preserve">
<path fill="#FFFFFF" d="M480.71,452.02v1.73l5.5,2.19l-5.5,2.19v1.71l7.62-3.02v-1.77L480.71,452.02z M440.75,452.64
	c-0.21-0.27-0.5-0.49-0.86-0.65c-0.37-0.15-0.83-0.23-1.4-0.23c-0.45,0-0.89,0.1-1.32,0.31s-0.78,0.53-1.05,0.98h-0.04v-1.08h-2.02
	v7.75h2.13v-4.06c0-0.79,0.13-1.36,0.39-1.7c0.26-0.34,0.68-0.52,1.26-0.52c0.51,0,0.87,0.16,1.06,0.47c0.2,0.31,0.3,0.79,0.3,1.43
	v4.38h2.13v-4.77c0-0.48-0.04-0.92-0.13-1.31S440.96,452.92,440.75,452.64z M374.12,452.88c-0.35-0.35-0.77-0.63-1.27-0.82
	c-0.5-0.2-1.05-0.29-1.66-0.29c-0.61,0-1.16,0.1-1.65,0.29s-0.91,0.47-1.26,0.82c-0.35,0.36-0.62,0.79-0.81,1.29
	c-0.19,0.51-0.29,1.07-0.29,1.69s0.1,1.18,0.29,1.68s0.46,0.93,0.81,1.28c0.35,0.36,0.77,0.63,1.26,0.82
	c0.49,0.19,1.04,0.28,1.65,0.28s1.16-0.1,1.66-0.28c0.5-0.19,0.92-0.46,1.27-0.82c0.35-0.35,0.62-0.78,0.81-1.28
	s0.29-1.06,0.29-1.68s-0.1-1.18-0.29-1.69C374.74,453.67,374.47,453.24,374.12,452.88z M372.99,456.77
	c-0.06,0.29-0.16,0.56-0.31,0.79s-0.34,0.42-0.58,0.56s-0.55,0.21-0.91,0.21c-0.36,0-0.66-0.07-0.9-0.21
	c-0.24-0.14-0.43-0.33-0.58-0.56s-0.25-0.5-0.31-0.79s-0.09-0.6-0.09-0.91s0.03-0.61,0.09-0.92c0.06-0.3,0.16-0.56,0.31-0.79
	c0.14-0.23,0.34-0.42,0.58-0.56c0.24-0.14,0.54-0.22,0.9-0.22s0.66,0.07,0.91,0.22s0.44,0.33,0.58,0.56
	c0.15,0.23,0.25,0.5,0.31,0.79c0.06,0.3,0.09,0.61,0.09,0.92S373.05,456.47,372.99,456.77z M474.83,453.02
	c-0.29-0.38-0.66-0.68-1.1-0.92c-0.44-0.23-0.97-0.34-1.58-0.34c-0.48,0-0.92,0.1-1.32,0.28c-0.4,0.19-0.73,0.5-0.99,0.92h-0.03
	v-0.99h-2.02v10.47h2.13v-3.67h0.03c0.26,0.38,0.59,0.67,1,0.86c0.41,0.2,0.85,0.29,1.33,0.29c0.57,0,1.07-0.11,1.49-0.33
	c0.42-0.22,0.78-0.52,1.06-0.89c0.29-0.37,0.5-0.79,0.64-1.27c0.14-0.48,0.21-0.98,0.21-1.5c0-0.55-0.07-1.08-0.21-1.58
	C475.33,453.85,475.12,453.41,474.83,453.02z M473.46,456.79c-0.06,0.3-0.16,0.56-0.31,0.79c-0.15,0.22-0.33,0.41-0.57,0.55
	c-0.24,0.14-0.53,0.21-0.88,0.21c-0.34,0-0.63-0.07-0.87-0.21c-0.24-0.14-0.43-0.32-0.58-0.55c-0.15-0.23-0.25-0.49-0.31-0.79
	c-0.06-0.3-0.1-0.6-0.1-0.92s0.03-0.63,0.09-0.93s0.16-0.56,0.31-0.79c0.14-0.23,0.33-0.42,0.57-0.56c0.23-0.14,0.53-0.22,0.88-0.22
	c0.34,0,0.63,0.07,0.86,0.22c0.23,0.15,0.43,0.34,0.58,0.57s0.26,0.5,0.32,0.8s0.1,0.6,0.1,0.92S473.52,456.49,473.46,456.79z
	 M411.8,454.65c-0.14-0.55-0.37-1.04-0.68-1.47s-0.72-0.77-1.21-1.03c-0.49-0.25-1.06-0.38-1.73-0.38c-0.59,0-1.13,0.1-1.61,0.31
	c-0.49,0.21-0.9,0.5-1.25,0.86c-0.35,0.37-0.62,0.8-0.81,1.3s-0.29,1.04-0.29,1.62c0,0.6,0.09,1.15,0.28,1.65s0.45,0.93,0.79,1.29
	c0.34,0.36,0.75,0.64,1.25,0.83c0.49,0.2,1.04,0.29,1.65,0.29c0.88,0,1.63-0.2,2.25-0.6s1.08-1.07,1.38-2h-1.88
	c-0.07,0.24-0.26,0.47-0.57,0.68s-0.68,0.32-1.11,0.32c-0.6,0-1.06-0.15-1.38-0.46s-0.49-0.81-0.52-1.5h5.6
	C411.99,455.77,411.94,455.19,411.8,454.65z M406.35,455.02c0.01-0.15,0.04-0.32,0.1-0.51c0.05-0.19,0.15-0.37,0.28-0.54
	c0.14-0.17,0.32-0.31,0.54-0.43c0.23-0.11,0.51-0.17,0.85-0.17c0.52,0,0.91,0.14,1.16,0.42s0.43,0.69,0.53,1.23H406.35z
	 M400.23,457.23h-0.03l-1.32-5.25h-2.07l-1.29,5.26h-0.03l-1.43-5.26h-2.25l2.46,7.75h2.21l1.32-5.21h0.03l1.38,5.21h2.19l2.45-7.75
	h-2.19L400.23,457.23z M365.37,452.64c-0.21-0.27-0.5-0.49-0.86-0.65c-0.37-0.15-0.83-0.23-1.4-0.23c-0.4,0-0.81,0.1-1.23,0.31
	s-0.77,0.53-1.04,0.98h-0.04v-4.04h-2.13v10.71h2.13v-4.06c0-0.79,0.13-1.36,0.39-1.7c0.26-0.34,0.68-0.52,1.26-0.52
	c0.51,0,0.87,0.16,1.06,0.47c0.2,0.31,0.3,0.79,0.3,1.43v4.38h2.13v-4.77c0-0.48-0.04-0.92-0.13-1.31S365.58,452.92,365.37,452.64z
	 M344.88,454.65c-0.14-0.55-0.37-1.04-0.68-1.47s-0.72-0.77-1.21-1.03c-0.49-0.25-1.06-0.38-1.73-0.38c-0.59,0-1.13,0.1-1.61,0.31
	c-0.49,0.21-0.9,0.5-1.25,0.86c-0.35,0.37-0.62,0.8-0.81,1.3s-0.29,1.04-0.29,1.62c0,0.6,0.09,1.15,0.28,1.65s0.45,0.93,0.79,1.29
	c0.34,0.36,0.75,0.64,1.25,0.83c0.49,0.2,1.04,0.29,1.65,0.29c0.88,0,1.63-0.2,2.25-0.6s1.08-1.07,1.38-2h-1.88
	c-0.07,0.24-0.26,0.47-0.57,0.68s-0.68,0.32-1.11,0.32c-0.6,0-1.06-0.15-1.38-0.46s-0.49-0.81-0.52-1.5h5.6
	C345.07,455.77,345.02,455.19,344.88,454.65z M339.44,455.02c0.01-0.15,0.04-0.32,0.1-0.51c0.05-0.19,0.15-0.37,0.28-0.54
	c0.14-0.17,0.32-0.31,0.54-0.43c0.23-0.11,0.51-0.17,0.85-0.17c0.52,0,0.91,0.14,1.16,0.42s0.43,0.69,0.53,1.23H339.44z
	 M335.36,454.15c-0.35-0.23-0.7-0.4-1.06-0.5s-0.63-0.18-0.83-0.22c-0.67-0.17-1.21-0.31-1.63-0.42c-0.42-0.11-0.74-0.22-0.98-0.33
	c-0.23-0.11-0.39-0.23-0.47-0.36c-0.08-0.13-0.12-0.3-0.12-0.51c0-0.23,0.05-0.42,0.15-0.57s0.23-0.27,0.38-0.38
	c0.15-0.1,0.33-0.17,0.52-0.21c0.19-0.04,0.38-0.06,0.57-0.06c0.29,0,0.56,0.02,0.8,0.07c0.25,0.05,0.46,0.14,0.65,0.25
	c0.19,0.12,0.34,0.29,0.46,0.5c0.11,0.21,0.18,0.48,0.2,0.79h2.28c0-0.62-0.12-1.15-0.35-1.58c-0.24-0.44-0.55-0.79-0.95-1.07
	s-0.86-0.48-1.37-0.61s-1.05-0.19-1.61-0.19c-0.48,0-0.96,0.06-1.44,0.19s-0.91,0.33-1.29,0.6c-0.38,0.27-0.69,0.61-0.92,1.01
	c-0.23,0.41-0.35,0.88-0.35,1.43c0,0.49,0.09,0.91,0.28,1.25c0.19,0.35,0.43,0.63,0.73,0.86c0.3,0.23,0.64,0.42,1.02,0.56
	c0.38,0.15,0.77,0.27,1.17,0.37c0.39,0.11,0.77,0.21,1.15,0.3s0.72,0.19,1.02,0.31s0.54,0.27,0.73,0.45
	c0.19,0.18,0.28,0.42,0.28,0.71c0,0.27-0.07,0.49-0.21,0.67c-0.14,0.18-0.31,0.31-0.52,0.41s-0.44,0.17-0.67,0.2
	c-0.24,0.04-0.46,0.05-0.68,0.05c-0.31,0-0.61-0.04-0.9-0.11s-0.54-0.19-0.76-0.35c-0.22-0.15-0.39-0.36-0.52-0.61
	c-0.13-0.25-0.19-0.55-0.19-0.92h-2.28c-0.01,0.66,0.11,1.23,0.36,1.71c0.25,0.48,0.59,0.88,1.01,1.19s0.92,0.54,1.47,0.68
	c0.55,0.15,1.13,0.22,1.72,0.22c0.73,0,1.37-0.09,1.93-0.26c0.55-0.17,1.02-0.41,1.4-0.71s0.66-0.67,0.85-1.09s0.29-0.88,0.29-1.37
	c0-0.6-0.13-1.09-0.38-1.48C336.01,454.69,335.71,454.38,335.36,454.15z M384.14,457.23h-0.03l-1.32-5.25h-2.07l-1.29,5.26h-0.03
	l-1.43-5.26h-2.25l2.46,7.75h2.21l1.32-5.21h0.03l1.38,5.21h2.19l2.45-7.75h-2.19L384.14,457.23z M462.78,454.65
	c-0.14-0.55-0.37-1.04-0.68-1.47s-0.72-0.77-1.21-1.03c-0.49-0.25-1.06-0.38-1.73-0.38c-0.59,0-1.13,0.1-1.61,0.31
	c-0.49,0.21-0.9,0.5-1.25,0.86c-0.35,0.37-0.62,0.8-0.81,1.3s-0.29,1.04-0.29,1.62c0,0.6,0.09,1.15,0.28,1.65s0.45,0.93,0.79,1.29
	c0.34,0.36,0.75,0.64,1.25,0.83c0.49,0.2,1.04,0.29,1.65,0.29c0.88,0,1.63-0.2,2.25-0.6s1.08-1.07,1.38-2h-1.88
	c-0.07,0.24-0.26,0.47-0.57,0.68s-0.68,0.32-1.11,0.32c-0.6,0-1.06-0.15-1.38-0.46s-0.49-0.81-0.52-1.5h5.6
	C462.97,455.77,462.92,455.19,462.78,454.65z M457.34,455.02c0.01-0.15,0.04-0.32,0.1-0.51c0.05-0.19,0.15-0.37,0.28-0.54
	c0.14-0.17,0.32-0.31,0.54-0.43c0.23-0.11,0.51-0.17,0.85-0.17c0.52,0,0.91,0.14,1.16,0.42s0.43,0.69,0.53,1.23H457.34z
	 M464.12,459.73h2.13v-10.71h-2.13V459.73z M453.53,452.64c-0.21-0.27-0.5-0.49-0.86-0.65c-0.37-0.15-0.83-0.23-1.4-0.23
	c-0.4,0-0.81,0.1-1.23,0.31s-0.77,0.53-1.04,0.98h-0.04v-4.04h-2.13v10.71h2.13v-4.06c0-0.79,0.13-1.36,0.39-1.7
	c0.26-0.34,0.68-0.52,1.26-0.52c0.51,0,0.87,0.16,1.06,0.47c0.2,0.31,0.3,0.79,0.3,1.43v4.38h2.13v-4.77c0-0.48-0.04-0.92-0.13-1.31
	S453.74,452.92,453.53,452.64z M432.53,458v-4.03c0-0.47-0.1-0.85-0.31-1.13s-0.48-0.51-0.81-0.67s-0.7-0.27-1.1-0.32
	c-0.4-0.06-0.79-0.08-1.18-0.08c-0.43,0-0.86,0.04-1.28,0.13c-0.43,0.08-0.81,0.23-1.15,0.43c-0.34,0.2-0.62,0.47-0.84,0.79
	c-0.22,0.33-0.35,0.75-0.38,1.25h2.13c0.04-0.42,0.18-0.72,0.42-0.9c0.24-0.18,0.57-0.27,0.99-0.27c0.19,0,0.37,0.01,0.53,0.04
	s0.31,0.07,0.44,0.15s0.23,0.18,0.3,0.31c0.08,0.14,0.11,0.32,0.11,0.55c0.01,0.22-0.06,0.39-0.2,0.5s-0.33,0.2-0.57,0.26
	s-0.52,0.1-0.83,0.14c-0.31,0.03-0.62,0.07-0.94,0.12s-0.64,0.12-0.95,0.2s-0.59,0.21-0.84,0.38s-0.45,0.4-0.6,0.68
	c-0.16,0.29-0.23,0.65-0.23,1.09c0,0.4,0.07,0.75,0.2,1.04s0.32,0.53,0.56,0.72s0.52,0.33,0.84,0.42c0.32,0.09,0.67,0.13,1.04,0.13
	c0.48,0,0.95-0.07,1.41-0.21c0.46-0.14,0.86-0.38,1.2-0.73c0.01,0.13,0.03,0.26,0.05,0.38c0.02,0.13,0.06,0.25,0.1,0.37h2.16
	c-0.1-0.16-0.17-0.4-0.21-0.72C432.55,458.69,432.53,458.35,432.53,458z M430.4,456.73c0,0.12-0.01,0.28-0.04,0.48
	c-0.02,0.2-0.09,0.4-0.2,0.59c-0.11,0.2-0.28,0.36-0.51,0.5s-0.56,0.21-0.98,0.21c-0.17,0-0.33-0.02-0.5-0.04
	c-0.16-0.03-0.3-0.08-0.42-0.16s-0.22-0.18-0.29-0.31s-0.1-0.29-0.1-0.48c0-0.2,0.04-0.36,0.1-0.5c0.07-0.13,0.16-0.24,0.28-0.32
	c0.11-0.08,0.25-0.15,0.4-0.2c0.15-0.05,0.31-0.09,0.47-0.12c0.17-0.03,0.34-0.05,0.51-0.07s0.33-0.04,0.49-0.08
	c0.15-0.03,0.3-0.07,0.44-0.11c0.13-0.04,0.25-0.11,0.34-0.19v0.8H430.4z M353.36,454.65c-0.14-0.55-0.37-1.04-0.68-1.47
	s-0.72-0.77-1.21-1.03c-0.49-0.25-1.06-0.38-1.73-0.38c-0.59,0-1.13,0.1-1.61,0.31c-0.49,0.21-0.9,0.5-1.25,0.86
	c-0.35,0.37-0.62,0.8-0.81,1.3s-0.29,1.04-0.29,1.62c0,0.6,0.09,1.15,0.28,1.65s0.45,0.93,0.79,1.29c0.34,0.36,0.75,0.64,1.25,0.83
	c0.49,0.2,1.04,0.29,1.65,0.29c0.88,0,1.63-0.2,2.25-0.6s1.08-1.07,1.38-2h-1.88c-0.07,0.24-0.26,0.47-0.57,0.68
	s-0.68,0.32-1.11,0.32c-0.6,0-1.06-0.15-1.38-0.46s-0.49-0.81-0.52-1.5h5.6C353.55,455.77,353.5,455.19,353.36,454.65z
	 M347.91,455.02c0.01-0.15,0.04-0.32,0.1-0.51c0.05-0.19,0.15-0.37,0.28-0.54c0.14-0.17,0.32-0.31,0.54-0.43
	c0.23-0.11,0.51-0.17,0.85-0.17c0.52,0,0.91,0.14,1.16,0.42s0.43,0.69,0.53,1.23H347.91z M421.93,457.91
	c-0.27,0.28-0.67,0.43-1.18,0.43c-0.33,0-0.61-0.08-0.84-0.23s-0.41-0.34-0.55-0.58c-0.14-0.23-0.23-0.5-0.29-0.79
	s-0.09-0.58-0.09-0.85c0-0.29,0.03-0.58,0.09-0.88s0.16-0.56,0.31-0.81c0.14-0.25,0.33-0.44,0.56-0.6c0.23-0.15,0.51-0.23,0.85-0.23
	c0.91,0,1.43,0.44,1.57,1.33h2.08c-0.03-0.5-0.15-0.93-0.36-1.3s-0.48-0.67-0.82-0.92s-0.72-0.43-1.14-0.55
	c-0.43-0.12-0.87-0.18-1.33-0.18c-0.63,0-1.19,0.1-1.68,0.31s-0.91,0.5-1.25,0.88s-0.6,0.82-0.77,1.33
	c-0.18,0.52-0.26,1.07-0.26,1.67c0,0.58,0.1,1.11,0.29,1.6c0.19,0.49,0.46,0.9,0.79,1.25s0.75,0.62,1.24,0.82
	c0.48,0.2,1.02,0.29,1.6,0.29c1.03,0,1.88-0.27,2.54-0.81s1.06-1.32,1.2-2.35h-2.06C422.38,457.24,422.21,457.62,421.93,457.91z"/>
<g>
	<path fill="#FFFFFF" d="M391.68,223.06v1.39h0.05c0.27-0.51,0.62-0.91,1.05-1.2s0.98-0.43,1.66-0.43c0.54,0,1.04,0.13,1.48,0.4
		c0.44,0.27,0.74,0.67,0.89,1.22c0.25-0.54,0.61-0.95,1.09-1.22c0.48-0.27,0.99-0.4,1.54-0.4c1.82,0,2.74,0.97,2.74,2.9v5.6h-1.01
		v-5.55c0-0.68-0.14-1.2-0.43-1.56c-0.29-0.36-0.79-0.54-1.52-0.54c-0.44,0-0.8,0.08-1.09,0.25c-0.29,0.17-0.52,0.39-0.69,0.66
		c-0.17,0.28-0.29,0.59-0.36,0.95c-0.07,0.36-0.1,0.73-0.1,1.11v4.67h-1.01v-5.6c0-0.28-0.03-0.54-0.09-0.79
		c-0.06-0.25-0.15-0.47-0.29-0.66c-0.13-0.19-0.31-0.33-0.54-0.44c-0.22-0.11-0.5-0.16-0.82-0.16c-0.43,0-0.8,0.08-1.11,0.23
		c-0.31,0.15-0.57,0.37-0.77,0.64s-0.34,0.59-0.44,0.96c-0.1,0.37-0.14,0.77-0.14,1.21v4.61h-1.01v-8.26H391.68z"/>
	<path fill="#FFFFFF" d="M409.24,223.17c0.49,0.23,0.89,0.55,1.22,0.94c0.33,0.4,0.58,0.86,0.75,1.38c0.17,0.53,0.26,1.09,0.26,1.69
		c0,0.6-0.09,1.16-0.26,1.69c-0.17,0.53-0.42,0.99-0.75,1.38c-0.33,0.4-0.74,0.71-1.22,0.94c-0.49,0.23-1.04,0.34-1.67,0.34
		c-0.63,0-1.19-0.11-1.67-0.34c-0.49-0.23-0.89-0.54-1.22-0.94c-0.33-0.39-0.58-0.86-0.75-1.38c-0.17-0.53-0.26-1.09-0.26-1.69
		c0-0.6,0.09-1.16,0.26-1.69c0.17-0.53,0.42-0.99,0.75-1.38c0.33-0.39,0.74-0.71,1.22-0.94c0.49-0.23,1.04-0.35,1.67-0.35
		C408.19,222.82,408.75,222.93,409.24,223.17z M406.3,223.97c-0.36,0.2-0.66,0.47-0.9,0.8c-0.24,0.33-0.42,0.71-0.54,1.13
		s-0.18,0.85-0.18,1.29s0.06,0.87,0.18,1.29s0.3,0.8,0.54,1.13c0.24,0.33,0.54,0.6,0.9,0.8c0.36,0.2,0.78,0.3,1.26,0.3
		c0.48,0,0.9-0.1,1.26-0.3c0.36-0.2,0.66-0.47,0.9-0.8c0.24-0.33,0.42-0.71,0.54-1.13c0.12-0.42,0.18-0.85,0.18-1.29
		s-0.06-0.87-0.18-1.29c-0.12-0.42-0.3-0.8-0.54-1.13c-0.24-0.33-0.54-0.6-0.9-0.8c-0.36-0.2-0.78-0.3-1.26-0.3
		C407.08,223.66,406.66,223.77,406.3,223.97z"/>
	<path fill="#FFFFFF" d="M413.9,223.06v1.94h0.03c0.26-0.67,0.65-1.19,1.19-1.55c0.54-0.36,1.18-0.53,1.93-0.5v1.01
		c-0.46-0.02-0.88,0.04-1.25,0.18c-0.37,0.14-0.7,0.35-0.97,0.62c-0.27,0.27-0.48,0.58-0.63,0.95c-0.15,0.37-0.22,0.77-0.22,1.21
		v4.4h-1.01v-8.26H413.9z"/>
	<path fill="#FFFFFF" d="M418.48,228.58c0.1,0.39,0.26,0.74,0.49,1.05c0.22,0.31,0.51,0.57,0.85,0.77c0.34,0.2,0.75,0.3,1.23,0.3
		c0.74,0,1.31-0.19,1.73-0.58c0.42-0.38,0.7-0.9,0.86-1.54h1.01c-0.21,0.94-0.61,1.66-1.18,2.18c-0.57,0.51-1.38,0.77-2.42,0.77
		c-0.65,0-1.21-0.11-1.69-0.34c-0.47-0.23-0.86-0.54-1.16-0.94c-0.3-0.4-0.52-0.86-0.66-1.39c-0.14-0.53-0.22-1.08-0.22-1.67
		c0-0.54,0.07-1.08,0.22-1.6c0.14-0.52,0.37-0.99,0.66-1.4c0.3-0.41,0.69-0.74,1.16-0.99c0.47-0.25,1.04-0.38,1.69-0.38
		c0.66,0,1.23,0.13,1.7,0.4c0.47,0.27,0.85,0.62,1.14,1.05c0.29,0.43,0.5,0.93,0.63,1.49s0.18,1.13,0.16,1.7h-6.35
		C418.33,227.82,418.38,228.19,418.48,228.58z M423.47,225.5c-0.12-0.35-0.3-0.66-0.52-0.94c-0.22-0.27-0.5-0.49-0.82-0.66
		c-0.32-0.17-0.68-0.25-1.09-0.25c-0.42,0-0.78,0.08-1.1,0.25s-0.59,0.38-0.82,0.66s-0.4,0.59-0.54,0.94s-0.22,0.72-0.26,1.1h5.34
		C423.66,226.22,423.6,225.86,423.47,225.5z"/>
	<path fill="#FFFFFF" d="M433.77,223.06v0.85h-1.68v5.57c0,0.33,0.05,0.59,0.14,0.78c0.09,0.19,0.32,0.29,0.68,0.31
		c0.29,0,0.58-0.02,0.86-0.05v0.85c-0.15,0-0.3,0.01-0.45,0.02s-0.3,0.02-0.45,0.02c-0.67,0-1.14-0.13-1.41-0.39
		c-0.27-0.26-0.4-0.74-0.38-1.45v-5.65h-1.44v-0.85h1.44v-2.48h1.01v2.48H433.77z"/>
	<path fill="#FFFFFF" d="M436.22,219.89v4.59h0.03c0.19-0.5,0.53-0.9,1.02-1.21s1.03-0.46,1.62-0.46c0.58,0,1.06,0.07,1.45,0.22
		c0.39,0.15,0.7,0.36,0.94,0.63c0.23,0.27,0.4,0.61,0.5,1c0.1,0.4,0.14,0.84,0.14,1.33v5.31h-1.01v-5.15c0-0.35-0.03-0.68-0.1-0.98
		c-0.06-0.3-0.18-0.57-0.34-0.79c-0.16-0.22-0.38-0.4-0.65-0.53s-0.61-0.19-1.02-0.19s-0.77,0.07-1.08,0.22s-0.58,0.34-0.8,0.59
		c-0.22,0.25-0.39,0.55-0.51,0.9s-0.19,0.72-0.2,1.13v4.82h-1.01v-11.42H436.22z"/>
	<path fill="#FFFFFF" d="M444.03,224.34c0.17-0.35,0.4-0.64,0.7-0.86c0.29-0.22,0.64-0.39,1.03-0.5s0.83-0.16,1.31-0.16
		c0.36,0,0.73,0.03,1.09,0.1c0.36,0.07,0.69,0.2,0.98,0.39s0.52,0.46,0.7,0.81c0.18,0.35,0.27,0.8,0.27,1.35v4.38
		c0,0.41,0.2,0.61,0.59,0.61c0.12,0,0.22-0.02,0.32-0.06v0.85c-0.12,0.02-0.22,0.04-0.31,0.05c-0.09,0.01-0.21,0.02-0.34,0.02
		c-0.26,0-0.46-0.03-0.62-0.1c-0.15-0.07-0.27-0.17-0.36-0.3s-0.14-0.28-0.17-0.46c-0.03-0.18-0.04-0.37-0.04-0.58h-0.03
		c-0.18,0.27-0.37,0.5-0.55,0.71s-0.39,0.38-0.62,0.52s-0.49,0.25-0.78,0.32c-0.29,0.07-0.64,0.11-1.05,0.11
		c-0.38,0-0.74-0.05-1.08-0.14c-0.34-0.09-0.63-0.23-0.88-0.43c-0.25-0.2-0.45-0.45-0.59-0.75c-0.14-0.3-0.22-0.66-0.22-1.08
		c0-0.58,0.13-1.03,0.38-1.35s0.59-0.57,1.02-0.74c0.42-0.17,0.9-0.29,1.42-0.36s1.06-0.14,1.61-0.2c0.21-0.02,0.4-0.05,0.56-0.08
		c0.16-0.03,0.29-0.09,0.4-0.17c0.11-0.08,0.19-0.19,0.25-0.33c0.06-0.14,0.09-0.32,0.09-0.54c0-0.34-0.06-0.62-0.17-0.84
		c-0.11-0.22-0.27-0.39-0.46-0.52s-0.43-0.22-0.69-0.26c-0.26-0.05-0.54-0.07-0.84-0.07c-0.64,0-1.16,0.15-1.57,0.46
		c-0.41,0.3-0.62,0.79-0.64,1.46h-1.01C443.75,225.1,443.86,224.69,444.03,224.34z M449.07,226.8c-0.06,0.12-0.19,0.2-0.37,0.26
		c-0.18,0.05-0.34,0.09-0.48,0.11c-0.43,0.07-0.87,0.14-1.32,0.2c-0.45,0.06-0.87,0.15-1.24,0.26c-0.37,0.12-0.68,0.29-0.92,0.5
		c-0.24,0.22-0.36,0.53-0.36,0.94c0,0.26,0.05,0.48,0.15,0.68c0.1,0.2,0.24,0.37,0.41,0.51c0.17,0.14,0.37,0.25,0.59,0.33
		c0.22,0.08,0.45,0.11,0.69,0.11c0.38,0,0.75-0.06,1.1-0.18c0.35-0.12,0.66-0.29,0.92-0.51s0.47-0.5,0.62-0.82
		c0.15-0.32,0.23-0.68,0.23-1.09v-1.31H449.07z"/>
	<path fill="#FFFFFF" d="M453.11,223.06v1.42h0.03c0.19-0.5,0.53-0.9,1.02-1.21s1.03-0.46,1.62-0.46c0.58,0,1.06,0.07,1.45,0.22
		c0.39,0.15,0.7,0.36,0.94,0.63c0.23,0.27,0.4,0.61,0.5,1c0.1,0.4,0.14,0.84,0.14,1.33v5.31h-1.01v-5.15c0-0.35-0.03-0.68-0.1-0.98
		c-0.06-0.3-0.18-0.57-0.34-0.79c-0.16-0.22-0.38-0.4-0.65-0.53s-0.61-0.19-1.02-0.19s-0.77,0.07-1.08,0.22s-0.58,0.34-0.8,0.59
		c-0.22,0.25-0.39,0.55-0.51,0.9s-0.19,0.72-0.2,1.13v4.82h-1.01v-8.26H453.11z"/>
	<path fill="#FFFFFF" d="M465.31,223.06l2.72,7.04l2.54-7.04h1.01l-3.58,9.5c-0.15,0.35-0.29,0.64-0.42,0.87
		c-0.13,0.23-0.27,0.41-0.42,0.54c-0.15,0.13-0.34,0.23-0.54,0.29c-0.21,0.06-0.47,0.09-0.79,0.09c-0.2-0.01-0.36-0.02-0.47-0.02
		s-0.21-0.02-0.3-0.06v-0.85c0.12,0.02,0.23,0.04,0.34,0.06c0.11,0.02,0.23,0.02,0.34,0.02c0.22,0,0.41-0.03,0.55-0.1
		s0.27-0.15,0.38-0.26s0.2-0.25,0.27-0.41c0.07-0.16,0.15-0.34,0.24-0.53l0.35-0.93l-3.3-8.22H465.31z"/>
	<path fill="#FFFFFF" d="M477.73,223.17c0.49,0.23,0.89,0.55,1.22,0.94c0.33,0.4,0.58,0.86,0.75,1.38c0.17,0.53,0.26,1.09,0.26,1.69
		c0,0.6-0.09,1.16-0.26,1.69c-0.17,0.53-0.42,0.99-0.75,1.38c-0.33,0.4-0.74,0.71-1.22,0.94c-0.49,0.23-1.04,0.34-1.67,0.34
		c-0.63,0-1.19-0.11-1.67-0.34c-0.49-0.23-0.89-0.54-1.22-0.94c-0.33-0.39-0.58-0.86-0.75-1.38c-0.17-0.53-0.26-1.09-0.26-1.69
		c0-0.6,0.09-1.16,0.26-1.69c0.17-0.53,0.42-0.99,0.75-1.38c0.33-0.39,0.74-0.71,1.22-0.94c0.49-0.23,1.04-0.35,1.67-0.35
		C476.69,222.82,477.24,222.93,477.73,223.17z M474.79,223.97c-0.36,0.2-0.66,0.47-0.9,0.8c-0.24,0.33-0.42,0.71-0.54,1.13
		s-0.18,0.85-0.18,1.29s0.06,0.87,0.18,1.29s0.3,0.8,0.54,1.13c0.24,0.33,0.54,0.6,0.9,0.8c0.36,0.2,0.78,0.3,1.26,0.3
		c0.48,0,0.9-0.1,1.26-0.3c0.36-0.2,0.66-0.47,0.9-0.8c0.24-0.33,0.42-0.71,0.54-1.13c0.12-0.42,0.18-0.85,0.18-1.29
		s-0.06-0.87-0.18-1.29c-0.12-0.42-0.3-0.8-0.54-1.13c-0.24-0.33-0.54-0.6-0.9-0.8c-0.36-0.2-0.78-0.3-1.26-0.3
		C475.58,223.66,475.16,223.77,474.79,223.97z"/>
	<path fill="#FFFFFF" d="M487.23,231.31v-1.49h-0.03c-0.27,0.55-0.65,0.98-1.16,1.27c-0.51,0.29-1.07,0.44-1.69,0.44
		c-0.52,0-0.97-0.07-1.34-0.22c-0.37-0.14-0.67-0.35-0.9-0.62s-0.4-0.59-0.5-0.98c-0.11-0.38-0.16-0.82-0.16-1.31v-5.36h1.01v5.38
		c0.02,0.75,0.19,1.31,0.52,1.7c0.33,0.38,0.89,0.58,1.69,0.58c0.44,0,0.81-0.09,1.12-0.28c0.31-0.19,0.57-0.43,0.77-0.74
		s0.35-0.66,0.45-1.06c0.1-0.4,0.14-0.81,0.14-1.22v-4.34h1.01v8.26H487.23z"/>
	<path fill="#FFFFFF" d="M490.99,223.06v1.94h0.03c0.26-0.67,0.65-1.19,1.19-1.55c0.54-0.36,1.18-0.53,1.93-0.5v1.01
		c-0.46-0.02-0.88,0.04-1.25,0.18c-0.37,0.14-0.7,0.35-0.97,0.62c-0.27,0.27-0.48,0.58-0.63,0.95c-0.15,0.37-0.22,0.77-0.22,1.21
		v4.4h-1.01v-8.26H490.99z"/>
	<path fill="#FFFFFF" d="M500.54,219.89v4.59h0.03c0.19-0.5,0.53-0.9,1.02-1.21s1.03-0.46,1.62-0.46c0.58,0,1.06,0.07,1.45,0.22
		c0.39,0.15,0.7,0.36,0.94,0.63c0.23,0.27,0.4,0.61,0.5,1c0.1,0.4,0.14,0.84,0.14,1.33v5.31h-1.01v-5.15c0-0.35-0.03-0.68-0.1-0.98
		c-0.06-0.3-0.18-0.57-0.34-0.79c-0.16-0.22-0.38-0.4-0.65-0.53s-0.61-0.19-1.02-0.19s-0.77,0.07-1.08,0.22s-0.58,0.34-0.8,0.59
		c-0.22,0.25-0.39,0.55-0.51,0.9s-0.19,0.72-0.2,1.13v4.82h-1.01v-11.42H500.54z"/>
	<path fill="#FFFFFF" d="M508.88,228.58c0.1,0.39,0.26,0.74,0.49,1.05c0.22,0.31,0.51,0.57,0.85,0.77c0.34,0.2,0.75,0.3,1.23,0.3
		c0.74,0,1.31-0.19,1.73-0.58c0.42-0.38,0.7-0.9,0.86-1.54h1.01c-0.21,0.94-0.61,1.66-1.18,2.18c-0.57,0.51-1.38,0.77-2.42,0.77
		c-0.65,0-1.21-0.11-1.69-0.34c-0.47-0.23-0.86-0.54-1.16-0.94c-0.3-0.4-0.52-0.86-0.66-1.39c-0.14-0.53-0.22-1.08-0.22-1.67
		c0-0.54,0.07-1.08,0.22-1.6c0.14-0.52,0.37-0.99,0.66-1.4c0.3-0.41,0.69-0.74,1.16-0.99c0.47-0.25,1.04-0.38,1.69-0.38
		c0.66,0,1.23,0.13,1.7,0.4c0.47,0.27,0.85,0.62,1.14,1.05c0.29,0.43,0.5,0.93,0.63,1.49s0.18,1.13,0.16,1.7h-6.35
		C508.73,227.82,508.78,228.19,508.88,228.58z M513.87,225.5c-0.12-0.35-0.3-0.66-0.52-0.94c-0.22-0.27-0.5-0.49-0.82-0.66
		c-0.32-0.17-0.68-0.25-1.09-0.25c-0.42,0-0.78,0.08-1.1,0.25s-0.59,0.38-0.82,0.66s-0.4,0.59-0.54,0.94s-0.22,0.72-0.26,1.1h5.34
		C514.06,226.22,514,225.86,513.87,225.5z"/>
	<path fill="#FFFFFF" d="M516.65,224.34c0.17-0.35,0.4-0.64,0.7-0.86c0.29-0.22,0.64-0.39,1.03-0.5s0.83-0.16,1.31-0.16
		c0.36,0,0.73,0.03,1.09,0.1c0.36,0.07,0.69,0.2,0.98,0.39s0.52,0.46,0.7,0.81c0.18,0.35,0.27,0.8,0.27,1.35v4.38
		c0,0.41,0.2,0.61,0.59,0.61c0.12,0,0.22-0.02,0.32-0.06v0.85c-0.12,0.02-0.22,0.04-0.31,0.05c-0.09,0.01-0.21,0.02-0.34,0.02
		c-0.26,0-0.46-0.03-0.62-0.1c-0.15-0.07-0.27-0.17-0.36-0.3s-0.14-0.28-0.17-0.46c-0.03-0.18-0.04-0.37-0.04-0.58h-0.03
		c-0.18,0.27-0.37,0.5-0.55,0.71s-0.39,0.38-0.62,0.52s-0.49,0.25-0.78,0.32c-0.29,0.07-0.64,0.11-1.05,0.11
		c-0.38,0-0.74-0.05-1.08-0.14c-0.34-0.09-0.63-0.23-0.88-0.43c-0.25-0.2-0.45-0.45-0.59-0.75c-0.14-0.3-0.22-0.66-0.22-1.08
		c0-0.58,0.13-1.03,0.38-1.35s0.59-0.57,1.02-0.74c0.42-0.17,0.9-0.29,1.42-0.36s1.06-0.14,1.61-0.2c0.21-0.02,0.4-0.05,0.56-0.08
		c0.16-0.03,0.29-0.09,0.4-0.17c0.11-0.08,0.19-0.19,0.25-0.33c0.06-0.14,0.09-0.32,0.09-0.54c0-0.34-0.06-0.62-0.17-0.84
		c-0.11-0.22-0.27-0.39-0.46-0.52s-0.43-0.22-0.69-0.26c-0.26-0.05-0.54-0.07-0.84-0.07c-0.64,0-1.16,0.15-1.57,0.46
		c-0.41,0.3-0.62,0.79-0.64,1.46h-1.01C516.38,225.1,516.48,224.69,516.65,224.34z M521.69,226.8c-0.06,0.12-0.19,0.2-0.37,0.26
		c-0.18,0.05-0.34,0.09-0.48,0.11c-0.43,0.07-0.87,0.14-1.32,0.2c-0.45,0.06-0.87,0.15-1.24,0.26c-0.37,0.12-0.68,0.29-0.92,0.5
		c-0.24,0.22-0.36,0.53-0.36,0.94c0,0.26,0.05,0.48,0.15,0.68c0.1,0.2,0.24,0.37,0.41,0.51c0.17,0.14,0.37,0.25,0.59,0.33
		c0.22,0.08,0.45,0.11,0.69,0.11c0.38,0,0.75-0.06,1.1-0.18c0.35-0.12,0.66-0.29,0.92-0.51s0.47-0.5,0.62-0.82
		c0.15-0.32,0.23-0.68,0.23-1.09v-1.31H521.69z"/>
	<path fill="#FFFFFF" d="M525.67,223.06v1.94h0.03c0.26-0.67,0.65-1.19,1.19-1.55c0.54-0.36,1.18-0.53,1.93-0.5v1.01
		c-0.46-0.02-0.88,0.04-1.25,0.18c-0.37,0.14-0.7,0.35-0.97,0.62c-0.27,0.27-0.48,0.58-0.63,0.95c-0.15,0.37-0.22,0.77-0.22,1.21
		v4.4h-1.01v-8.26H525.67z"/>
	<path fill="#FFFFFF" d="M533.07,223.06v0.85h-1.68v5.57c0,0.33,0.05,0.59,0.14,0.78c0.09,0.19,0.32,0.29,0.68,0.31
		c0.29,0,0.58-0.02,0.86-0.05v0.85c-0.15,0-0.3,0.01-0.45,0.02s-0.3,0.02-0.45,0.02c-0.67,0-1.14-0.13-1.41-0.39
		c-0.27-0.26-0.4-0.74-0.38-1.45v-5.65h-1.44v-0.85h1.44v-2.48h1.01v2.48H533.07z"/>
	<path fill="#FFFFFF" d="M540.52,223.9v7.41h-1.01v-7.41h-1.41v-0.85h1.41v-0.75c0-0.35,0.03-0.68,0.08-0.98
		c0.05-0.3,0.15-0.55,0.3-0.77c0.15-0.21,0.35-0.38,0.62-0.5c0.26-0.12,0.59-0.18,1-0.18c0.15,0,0.29,0.01,0.42,0.02
		c0.13,0.01,0.27,0.03,0.43,0.05v0.86c-0.14-0.02-0.27-0.04-0.38-0.06c-0.12-0.02-0.23-0.02-0.35-0.02c-0.28,0-0.49,0.04-0.64,0.13
		c-0.15,0.09-0.26,0.2-0.33,0.34s-0.11,0.31-0.12,0.5s-0.02,0.4-0.02,0.62v0.72h1.63v0.85H540.52z"/>
	<path fill="#FFFFFF" d="M543.32,224.34c0.17-0.35,0.4-0.64,0.7-0.86c0.29-0.22,0.64-0.39,1.03-0.5s0.83-0.16,1.31-0.16
		c0.36,0,0.73,0.03,1.09,0.1c0.36,0.07,0.69,0.2,0.98,0.39s0.52,0.46,0.7,0.81c0.18,0.35,0.27,0.8,0.27,1.35v4.38
		c0,0.41,0.2,0.61,0.59,0.61c0.12,0,0.22-0.02,0.32-0.06v0.85c-0.12,0.02-0.22,0.04-0.31,0.05c-0.09,0.01-0.21,0.02-0.34,0.02
		c-0.26,0-0.46-0.03-0.62-0.1c-0.15-0.07-0.27-0.17-0.36-0.3s-0.14-0.28-0.17-0.46c-0.03-0.18-0.04-0.37-0.04-0.58h-0.03
		c-0.18,0.27-0.37,0.5-0.55,0.71s-0.39,0.38-0.62,0.52s-0.49,0.25-0.78,0.32c-0.29,0.07-0.64,0.11-1.05,0.11
		c-0.38,0-0.74-0.05-1.08-0.14c-0.34-0.09-0.63-0.23-0.88-0.43c-0.25-0.2-0.45-0.45-0.59-0.75c-0.14-0.3-0.22-0.66-0.22-1.08
		c0-0.58,0.13-1.03,0.38-1.35s0.59-0.57,1.02-0.74c0.42-0.17,0.9-0.29,1.42-0.36s1.06-0.14,1.61-0.2c0.21-0.02,0.4-0.05,0.56-0.08
		c0.16-0.03,0.29-0.09,0.4-0.17c0.11-0.08,0.19-0.19,0.25-0.33c0.06-0.14,0.09-0.32,0.09-0.54c0-0.34-0.06-0.62-0.17-0.84
		c-0.11-0.22-0.27-0.39-0.46-0.52s-0.43-0.22-0.69-0.26c-0.26-0.05-0.54-0.07-0.84-0.07c-0.64,0-1.16,0.15-1.57,0.46
		c-0.41,0.3-0.62,0.79-0.64,1.46h-1.01C543.05,225.1,543.15,224.69,543.32,224.34z M548.36,226.8c-0.06,0.12-0.19,0.2-0.37,0.26
		c-0.18,0.05-0.34,0.09-0.48,0.11c-0.43,0.07-0.87,0.14-1.32,0.2c-0.45,0.06-0.87,0.15-1.24,0.26c-0.37,0.12-0.68,0.29-0.92,0.5
		c-0.24,0.22-0.36,0.53-0.36,0.94c0,0.26,0.05,0.48,0.15,0.68c0.1,0.2,0.24,0.37,0.41,0.51c0.17,0.14,0.37,0.25,0.59,0.33
		c0.22,0.08,0.45,0.11,0.69,0.11c0.38,0,0.75-0.06,1.1-0.18c0.35-0.12,0.66-0.29,0.92-0.51s0.47-0.5,0.62-0.82
		c0.15-0.32,0.23-0.68,0.23-1.09v-1.31H548.36z"/>
	<path fill="#FFFFFF" d="M552.44,219.89v1.62h-1.01v-1.62H552.44z M552.44,223.06v8.26h-1.01v-8.26H552.44z"/>
	<path fill="#FFFFFF" d="M555.4,219.89v11.42h-1.01v-11.42H555.4z"/>
	<path fill="#FFFFFF" d="M563.1,231.31v-1.49h-0.03c-0.27,0.55-0.65,0.98-1.16,1.27c-0.51,0.29-1.07,0.44-1.69,0.44
		c-0.52,0-0.97-0.07-1.34-0.22c-0.37-0.14-0.67-0.35-0.9-0.62s-0.4-0.59-0.5-0.98c-0.11-0.38-0.16-0.82-0.16-1.31v-5.36h1.01v5.38
		c0.02,0.75,0.19,1.31,0.52,1.7c0.33,0.38,0.89,0.58,1.69,0.58c0.44,0,0.81-0.09,1.12-0.28c0.31-0.19,0.57-0.43,0.77-0.74
		s0.35-0.66,0.45-1.06c0.1-0.4,0.14-0.81,0.14-1.22v-4.34h1.01v8.26H563.1z"/>
	<path fill="#FFFFFF" d="M566.86,223.06v1.94h0.03c0.26-0.67,0.65-1.19,1.19-1.55c0.54-0.36,1.18-0.53,1.93-0.5v1.01
		c-0.46-0.02-0.88,0.04-1.25,0.18c-0.37,0.14-0.7,0.35-0.97,0.62c-0.27,0.27-0.48,0.58-0.63,0.95c-0.15,0.37-0.22,0.77-0.22,1.21
		v4.4h-1.01v-8.26H566.86z"/>
	<path fill="#FFFFFF" d="M571.44,228.58c0.1,0.39,0.26,0.74,0.49,1.05c0.22,0.31,0.51,0.57,0.85,0.77c0.34,0.2,0.75,0.3,1.23,0.3
		c0.74,0,1.31-0.19,1.73-0.58c0.42-0.38,0.7-0.9,0.86-1.54h1.01c-0.21,0.94-0.61,1.66-1.18,2.18c-0.57,0.51-1.38,0.77-2.42,0.77
		c-0.65,0-1.21-0.11-1.69-0.34c-0.47-0.23-0.86-0.54-1.16-0.94c-0.3-0.4-0.52-0.86-0.66-1.39c-0.14-0.53-0.22-1.08-0.22-1.67
		c0-0.54,0.07-1.08,0.22-1.6c0.14-0.52,0.37-0.99,0.66-1.4c0.3-0.41,0.69-0.74,1.16-0.99c0.47-0.25,1.04-0.38,1.69-0.38
		c0.66,0,1.23,0.13,1.7,0.4c0.47,0.27,0.85,0.62,1.14,1.05c0.29,0.43,0.5,0.93,0.63,1.49s0.18,1.13,0.16,1.7h-6.35
		C571.29,227.82,571.34,228.19,571.44,228.58z M576.43,225.5c-0.12-0.35-0.3-0.66-0.52-0.94c-0.22-0.27-0.5-0.49-0.82-0.66
		c-0.32-0.17-0.68-0.25-1.09-0.25c-0.42,0-0.78,0.08-1.1,0.25s-0.59,0.38-0.82,0.66s-0.4,0.59-0.54,0.94s-0.22,0.72-0.26,1.1h5.34
		C576.62,226.22,576.55,225.86,576.43,225.5z"/>
	<path fill="#FFFFFF" d="M579.59,229.62h1.34v1.7h-1.34V229.62z"/>
</g>
<g>
	<path fill="#FFFFFF" d="M28.67,219.89l2.59,10h0.03l2.78-10h1.36l2.8,10h0.03l2.61-10h1.09l-3.15,11.42h-1.15l-2.9-10.22h-0.03
		l-2.88,10.22h-1.18l-3.17-11.42H28.67z"/>
	<path fill="#FFFFFF" d="M43.44,228.58c0.1,0.39,0.26,0.74,0.49,1.05c0.22,0.31,0.51,0.57,0.85,0.77c0.34,0.2,0.75,0.3,1.23,0.3
		c0.74,0,1.31-0.19,1.73-0.58c0.42-0.38,0.7-0.9,0.86-1.54h1.01c-0.21,0.94-0.61,1.66-1.18,2.18c-0.57,0.51-1.38,0.77-2.42,0.77
		c-0.65,0-1.21-0.11-1.69-0.34c-0.47-0.23-0.86-0.54-1.16-0.94c-0.3-0.4-0.52-0.86-0.66-1.39c-0.14-0.53-0.22-1.08-0.22-1.67
		c0-0.54,0.07-1.08,0.22-1.6c0.14-0.52,0.37-0.99,0.66-1.4c0.3-0.41,0.69-0.74,1.16-0.99c0.47-0.25,1.04-0.38,1.69-0.38
		c0.66,0,1.23,0.13,1.7,0.4c0.47,0.27,0.85,0.62,1.14,1.05c0.29,0.43,0.5,0.93,0.63,1.49s0.18,1.13,0.16,1.7h-6.35
		C43.29,227.82,43.34,228.19,43.44,228.58z M48.44,225.5c-0.12-0.35-0.3-0.66-0.52-0.94c-0.22-0.27-0.5-0.49-0.82-0.66
		c-0.32-0.17-0.68-0.25-1.09-0.25c-0.42,0-0.78,0.08-1.1,0.25s-0.59,0.38-0.82,0.66s-0.4,0.59-0.54,0.94s-0.22,0.72-0.26,1.1h5.34
		C48.62,226.22,48.56,225.86,48.44,225.5z"/>
	<path fill="#FFFFFF" d="M58.73,223.06v0.85h-1.68v5.57c0,0.33,0.05,0.59,0.14,0.78c0.09,0.19,0.32,0.29,0.68,0.31
		c0.29,0,0.58-0.02,0.86-0.05v0.85c-0.15,0-0.3,0.01-0.45,0.02s-0.3,0.02-0.45,0.02c-0.67,0-1.14-0.13-1.41-0.39
		c-0.27-0.26-0.4-0.74-0.38-1.45v-5.65H54.6v-0.85h1.44v-2.48h1.01v2.48H58.73z"/>
	<path fill="#FFFFFF" d="M61.12,223.06v1.94h0.03c0.26-0.67,0.65-1.19,1.19-1.55c0.54-0.36,1.18-0.53,1.93-0.5v1.01
		c-0.46-0.02-0.88,0.04-1.25,0.18c-0.37,0.14-0.7,0.35-0.97,0.62c-0.27,0.27-0.48,0.58-0.63,0.95c-0.15,0.37-0.22,0.77-0.22,1.21
		v4.4h-1.01v-8.26H61.12z"/>
	<path fill="#FFFFFF" d="M65.7,228.58c0.1,0.39,0.26,0.74,0.49,1.05c0.22,0.31,0.51,0.57,0.85,0.77c0.34,0.2,0.75,0.3,1.23,0.3
		c0.74,0,1.31-0.19,1.73-0.58c0.42-0.38,0.7-0.9,0.86-1.54h1.01c-0.21,0.94-0.61,1.66-1.18,2.18c-0.57,0.51-1.38,0.77-2.42,0.77
		c-0.65,0-1.21-0.11-1.69-0.34c-0.47-0.23-0.86-0.54-1.16-0.94c-0.3-0.4-0.52-0.86-0.66-1.39c-0.14-0.53-0.22-1.08-0.22-1.67
		c0-0.54,0.07-1.08,0.22-1.6c0.14-0.52,0.37-0.99,0.66-1.4c0.3-0.41,0.69-0.74,1.16-0.99c0.47-0.25,1.04-0.38,1.69-0.38
		c0.66,0,1.23,0.13,1.7,0.4c0.47,0.27,0.85,0.62,1.14,1.05c0.29,0.43,0.5,0.93,0.63,1.49s0.18,1.13,0.16,1.7h-6.35
		C65.55,227.82,65.6,228.19,65.7,228.58z M70.69,225.5c-0.12-0.35-0.3-0.66-0.52-0.94c-0.22-0.27-0.5-0.49-0.82-0.66
		c-0.32-0.17-0.68-0.25-1.09-0.25c-0.42,0-0.78,0.08-1.1,0.25s-0.59,0.38-0.82,0.66s-0.4,0.59-0.54,0.94s-0.22,0.72-0.26,1.1h5.34
		C70.88,226.22,70.81,225.86,70.69,225.5z"/>
	<path fill="#FFFFFF" d="M73.47,224.34c0.17-0.35,0.4-0.64,0.7-0.86c0.29-0.22,0.64-0.39,1.03-0.5s0.83-0.16,1.31-0.16
		c0.36,0,0.73,0.03,1.09,0.1c0.36,0.07,0.69,0.2,0.98,0.39s0.52,0.46,0.7,0.81c0.18,0.35,0.27,0.8,0.27,1.35v4.38
		c0,0.41,0.2,0.61,0.59,0.61c0.12,0,0.22-0.02,0.32-0.06v0.85c-0.12,0.02-0.22,0.04-0.31,0.05c-0.09,0.01-0.21,0.02-0.34,0.02
		c-0.26,0-0.46-0.03-0.62-0.1c-0.15-0.07-0.27-0.17-0.36-0.3s-0.14-0.28-0.17-0.46c-0.03-0.18-0.04-0.37-0.04-0.58h-0.03
		c-0.18,0.27-0.37,0.5-0.55,0.71s-0.39,0.38-0.62,0.52s-0.49,0.25-0.78,0.32c-0.29,0.07-0.64,0.11-1.05,0.11
		c-0.38,0-0.74-0.05-1.08-0.14c-0.34-0.09-0.63-0.23-0.88-0.43c-0.25-0.2-0.45-0.45-0.59-0.75c-0.14-0.3-0.22-0.66-0.22-1.08
		c0-0.58,0.13-1.03,0.38-1.35s0.59-0.57,1.02-0.74c0.42-0.17,0.9-0.29,1.42-0.36s1.06-0.14,1.61-0.2c0.21-0.02,0.4-0.05,0.56-0.08
		c0.16-0.03,0.29-0.09,0.4-0.17c0.11-0.08,0.19-0.19,0.25-0.33c0.06-0.14,0.09-0.32,0.09-0.54c0-0.34-0.06-0.62-0.17-0.84
		c-0.11-0.22-0.27-0.39-0.46-0.52s-0.43-0.22-0.69-0.26c-0.26-0.05-0.54-0.07-0.84-0.07c-0.64,0-1.16,0.15-1.57,0.46
		c-0.41,0.3-0.62,0.79-0.64,1.46h-1.01C73.2,225.1,73.3,224.69,73.47,224.34z M78.51,226.8c-0.06,0.12-0.19,0.2-0.37,0.26
		c-0.18,0.05-0.34,0.09-0.48,0.11c-0.43,0.07-0.87,0.14-1.32,0.2c-0.45,0.06-0.87,0.15-1.24,0.26c-0.37,0.12-0.68,0.29-0.92,0.5
		c-0.24,0.22-0.36,0.53-0.36,0.94c0,0.26,0.05,0.48,0.15,0.68c0.1,0.2,0.24,0.37,0.41,0.51c0.17,0.14,0.37,0.25,0.59,0.33
		c0.22,0.08,0.45,0.11,0.69,0.11c0.38,0,0.75-0.06,1.1-0.18c0.35-0.12,0.66-0.29,0.92-0.51s0.47-0.5,0.62-0.82
		c0.15-0.32,0.23-0.68,0.23-1.09v-1.31H78.51z"/>
	<path fill="#FFFFFF" d="M84.84,223.06v0.85h-1.68v5.57c0,0.33,0.05,0.59,0.14,0.78c0.09,0.19,0.32,0.29,0.68,0.31
		c0.29,0,0.58-0.02,0.86-0.05v0.85c-0.15,0-0.3,0.01-0.45,0.02s-0.3,0.02-0.45,0.02c-0.67,0-1.14-0.13-1.41-0.39
		c-0.27-0.26-0.4-0.74-0.38-1.45v-5.65h-1.44v-0.85h1.44v-2.48h1.01v2.48H84.84z"/>
</g>
<g>
	<path fill="#FFFFFF" d="M690.89,223.06l2.72,7.04l2.54-7.04h1.01l-3.58,9.5c-0.15,0.35-0.29,0.64-0.42,0.87
		c-0.13,0.23-0.27,0.41-0.42,0.54c-0.15,0.13-0.34,0.23-0.54,0.29c-0.21,0.06-0.47,0.09-0.79,0.09c-0.2-0.01-0.36-0.02-0.47-0.02
		s-0.21-0.02-0.3-0.06v-0.85c0.12,0.02,0.23,0.04,0.34,0.06c0.11,0.02,0.23,0.02,0.34,0.02c0.22,0,0.41-0.03,0.55-0.1
		s0.27-0.15,0.38-0.26s0.2-0.25,0.27-0.41c0.07-0.16,0.15-0.34,0.24-0.53l0.35-0.93l-3.3-8.22H690.89z"/>
	<path fill="#FFFFFF" d="M703.32,223.17c0.49,0.23,0.89,0.55,1.22,0.94c0.33,0.4,0.58,0.86,0.75,1.38c0.17,0.53,0.26,1.09,0.26,1.69
		c0,0.6-0.09,1.16-0.26,1.69c-0.17,0.53-0.42,0.99-0.75,1.38c-0.33,0.4-0.74,0.71-1.22,0.94c-0.49,0.23-1.04,0.34-1.67,0.34
		c-0.63,0-1.19-0.11-1.67-0.34c-0.49-0.23-0.89-0.54-1.22-0.94c-0.33-0.39-0.58-0.86-0.75-1.38c-0.17-0.53-0.26-1.09-0.26-1.69
		c0-0.6,0.09-1.16,0.26-1.69c0.17-0.53,0.42-0.99,0.75-1.38c0.33-0.39,0.74-0.71,1.22-0.94c0.49-0.23,1.04-0.35,1.67-0.35
		C702.27,222.82,702.83,222.93,703.32,223.17z M700.38,223.97c-0.36,0.2-0.66,0.47-0.9,0.8c-0.24,0.33-0.42,0.71-0.54,1.13
		s-0.18,0.85-0.18,1.29s0.06,0.87,0.18,1.29s0.3,0.8,0.54,1.13c0.24,0.33,0.54,0.6,0.9,0.8c0.36,0.2,0.78,0.3,1.26,0.3
		c0.48,0,0.9-0.1,1.26-0.3c0.36-0.2,0.66-0.47,0.9-0.8c0.24-0.33,0.42-0.71,0.54-1.13c0.12-0.42,0.18-0.85,0.18-1.29
		s-0.06-0.87-0.18-1.29c-0.12-0.42-0.3-0.8-0.54-1.13c-0.24-0.33-0.54-0.6-0.9-0.8c-0.36-0.2-0.78-0.3-1.26-0.3
		C701.16,223.66,700.74,223.77,700.38,223.97z"/>
	<path fill="#FFFFFF" d="M712.81,231.31v-1.49h-0.03c-0.27,0.55-0.65,0.98-1.16,1.27c-0.51,0.29-1.07,0.44-1.69,0.44
		c-0.52,0-0.97-0.07-1.34-0.22c-0.37-0.14-0.67-0.35-0.9-0.62s-0.4-0.59-0.5-0.98c-0.11-0.38-0.16-0.82-0.16-1.31v-5.36h1.01v5.38
		c0.02,0.75,0.19,1.31,0.52,1.7c0.33,0.38,0.89,0.58,1.69,0.58c0.44,0,0.81-0.09,1.12-0.28c0.31-0.19,0.57-0.43,0.77-0.74
		s0.35-0.66,0.45-1.06c0.1-0.4,0.14-0.81,0.14-1.22v-4.34h1.01v8.26H712.81z"/>
	<path fill="#FFFFFF" d="M716.23,229.62h1.34v1.7h-1.34V229.62z"/>
</g>
</svg>
