<?xml version="1.0" encoding="utf-8"?>
<!-- Generator: Adobe Illustrator 22.1.0, SVG Export Plug-In . SVG Version: 6.00 Build 0)  -->
<svg version="1.1" id="Layer_1" xmlns="http://www.w3.org/2000/svg" xmlns:xlink="http://www.w3.org/1999/xlink" x="0px" y="0px"
	 viewBox="0 0 900 750" style="enable-background:new 0 0 900 750;" xml:space="preserve">
<style type="text/css">
	.st0{fill:#FFFFFF;}
	.st1{fill:#8FD8F8;}
	.st2{fill:#FCE000;}
	.st3{fill:#231F20;}
	.st4{fill:#8ED7F7;}
	.st5{fill:#8ED8F8;}
</style>
<g>
	<path class="st0" d="M16.3,290.2h10.3v1.8h-8.2v5h7.2v1.8h-7.2v7.2h-2.1C16.3,306,16.3,290.2,16.3,290.2z"/>
	<path class="st0" d="M33.3,294.3c3.6,0,5.5,2.6,5.5,6c0,3.3-1.9,5.9-5.5,5.9s-5.5-2.6-5.5-5.9C27.8,296.9,29.7,294.3,33.3,294.3z
		 M33.3,304.5c2,0,3.5-1.5,3.5-4.3s-1.6-4.3-3.5-4.3s-3.5,1.5-3.5,4.3S31.4,304.5,33.3,304.5z"/>
	<path class="st0" d="M40.8,294.5h1.8v2.4l0,0c0.9-1.8,2.2-2.7,4.2-2.7v2c-3,0-4.1,1.7-4.1,4.6v5.1h-1.9V294.5z"/>
	<path class="st0" d="M65.1,305.9h-2l-2.3-9l0,0l-2.3,9h-2l-3.7-11.4h2.1l2.6,9.3l0,0l2.3-9.3h2l2.4,9.3l0,0l2.6-9.3h1.9L65.1,305.9
		z"/>
	<path class="st0" d="M70.3,290.2h1.9v6l0,0c0.6-1.4,2.2-1.9,3.6-1.9c3,0,3.9,1.7,3.9,4.2v7.5h-1.9v-7.7c0-1.4-0.9-2.3-2.3-2.3
		c-2.3,0-3.4,1.5-3.4,3.6v6.4h-1.9v-15.8L70.3,290.2L70.3,290.2z"/>
	<path class="st0" d="M92,302.3c-0.5,2.5-2.3,3.9-4.9,3.9c-3.6,0-5.3-2.5-5.5-6c0-3.4,2.2-5.9,5.3-5.9c4,0,5.3,3.8,5.1,6.5h-8.5
		c-0.1,2,1.1,3.7,3.5,3.7c1.5,0,2.6-0.7,2.9-2.2H92z M90.2,299.1c-0.1-1.8-1.4-3.2-3.3-3.2c-2,0-3.1,1.5-3.3,3.2H90.2z"/>
	<path class="st0" d="M93.9,294.5h1.8v1.8l0,0c0.8-1.4,2.1-2.1,3.7-2.1c3,0,3.9,1.7,3.9,4.2v7.5h-1.9v-7.7c0-1.4-0.9-2.3-2.3-2.3
		c-2.3,0-3.4,1.5-3.4,3.6v6.4h-1.9v-11.4H93.9z"/>
	<path class="st0" d="M116.3,307.4c-0.9,2.2-1.6,3-3.3,3c-0.4,0-0.9,0-1.3-0.2v-1.7c0.4,0.1,0.7,0.3,1.1,0.3c0.8,0,1.2-0.4,1.5-1
		l0.8-1.9l-4.5-11.3h2.1l3.3,9.3l0,0l3.2-9.3h2L116.3,307.4z"/>
	<path class="st0" d="M127.5,294.3c3.6,0,5.5,2.6,5.5,6c0,3.3-1.9,5.9-5.5,5.9s-5.5-2.6-5.5-5.9C122,296.9,123.9,294.3,127.5,294.3z
		 M127.5,304.5c2,0,3.5-1.5,3.5-4.3s-1.6-4.3-3.5-4.3s-3.5,1.5-3.5,4.3C123.9,303,125.5,304.5,127.5,304.5z"/>
	<path class="st0" d="M144.4,305.9h-1.8v-1.8l0,0c-0.8,1.4-2.1,2.1-3.7,2.1c-3,0-3.9-1.7-3.9-4.2v-7.5h1.9v7.7
		c0,1.4,0.9,2.3,2.3,2.3c2.3,0,3.4-1.5,3.4-3.6v-6.4h1.9L144.4,305.9L144.4,305.9z"/>
	<path class="st0" d="M18,316.5h-1.9v-2.3H18V316.5z M16.1,318.5H18v11.4h-1.9V318.5z"/>
	<path class="st0" d="M20.7,318.5h1.8v1.8l0,0c0.8-1.4,2.1-2.1,3.7-2.1c3,0,3.9,1.7,3.9,4.2v7.5h-1.9v-7.7c0-1.4-0.9-2.3-2.3-2.3
		c-2.3,0-3.4,1.5-3.4,3.6v6.4h-1.9L20.7,318.5L20.7,318.5z"/>
	<path class="st0" d="M34.7,331.4c0,2-1.1,2.9-2.7,2.9c-0.3,0-0.6,0-1-0.1v-1.6c0.3,0,0.5,0,0.8,0c0.8,0,1.1-0.4,1.1-1.6v-12.5h1.9
		L34.7,331.4L34.7,331.4z M34.7,316.5h-1.9v-2.3h1.9V316.5z"/>
	<path class="st0" d="M46.8,329.9H45v-1.8l0,0c-0.8,1.4-2.1,2.1-3.7,2.1c-3,0-3.9-1.7-3.9-4.2v-7.5h1.9v7.7c0,1.4,0.9,2.3,2.3,2.3
		c2.3,0,3.4-1.5,3.4-3.6v-6.4h1.9v11.4H46.8z"/>
	<path class="st0" d="M49.3,318.5h1.8v2.4l0,0c0.9-1.8,2.2-2.7,4.2-2.7v2c-3,0-4.1,1.7-4.1,4.6v5.1h-1.9V318.5z"/>
	<path class="st0" d="M66.2,326.3c-0.5,2.5-2.3,3.9-4.9,3.9c-3.6,0-5.3-2.5-5.5-6c0-3.4,2.2-5.9,5.3-5.9c4,0,5.3,3.8,5.1,6.5h-8.5
		c-0.1,2,1.1,3.7,3.5,3.7c1.5,0,2.6-0.7,2.9-2.2H66.2z M64.4,323.1c-0.1-1.8-1.4-3.2-3.3-3.2c-2,0-3.1,1.5-3.3,3.2H64.4z"/>
	<path class="st0" d="M78.4,331.4c-0.9,2.2-1.6,3-3.3,3c-0.4,0-0.9,0-1.3-0.2v-1.7c0.4,0.1,0.7,0.3,1.1,0.3c0.8,0,1.2-0.4,1.5-1
		l0.8-1.9l-4.5-11.3h2.1l3.3,9.3l0,0l3.2-9.3h2L78.4,331.4z"/>
	<path class="st0" d="M89.6,318.3c3.6,0,5.5,2.6,5.5,6c0,3.3-1.9,5.9-5.5,5.9s-5.5-2.6-5.5-5.9C84.1,320.9,86,318.3,89.6,318.3z
		 M89.6,328.5c2,0,3.5-1.5,3.5-4.3s-1.6-4.3-3.5-4.3c-2,0-3.5,1.5-3.5,4.3S87.7,328.5,89.6,328.5z"/>
	<path class="st0" d="M106.6,329.9h-1.8v-1.8l0,0c-0.8,1.4-2.1,2.1-3.7,2.1c-3,0-3.9-1.7-3.9-4.2v-7.5H99v7.7c0,1.4,0.9,2.3,2.3,2.3
		c2.3,0,3.4-1.5,3.4-3.6v-6.4h1.9C106.6,318.5,106.6,329.9,106.6,329.9z"/>
	<path class="st0" d="M109.1,318.5h1.8v2.4l0,0c0.9-1.8,2.2-2.7,4.2-2.7v2c-3,0-4.1,1.7-4.1,4.6v5.1h-1.9V318.5z"/>
	<path class="st0" d="M119.1,321h-2.4v-2.4h2.4V321z M116.7,327.5h2.4v2.4h-2.4V327.5z"/>
</g>
<g>
	<path class="st1" d="M25.4,44.8c-0.2-2.2-1.7-3.2-3.9-3.2c-1.8,0-3.5,0.6-3.5,2.7c0,1.9,2.5,2.2,5,2.8s5,1.5,5,4.5
		c0,3.3-3.3,4.7-6.1,4.7c-3.5,0-6.5-1.7-6.5-5.5h2c0,2.6,2.2,3.8,4.6,3.8c1.9,0,4-0.6,4-2.9c0-2.2-2.5-2.5-5-3.1
		c-2.5-0.5-5-1.3-5-4.2c0-3.2,2.8-4.6,5.7-4.6c3.2,0,5.7,1.5,5.8,5H25.4z"/>
	<path class="st1" d="M40.1,55.9c-0.3,0.2-0.7,0.3-1.3,0.3c-1,0-1.6-0.5-1.6-1.8c-1,1.2-2.4,1.8-4,1.8c-2.1,0-3.8-0.9-3.8-3.2
		c0-2.6,1.9-3.1,3.9-3.5c2.1-0.4,3.8-0.3,3.8-1.7c0-1.6-1.3-1.9-2.5-1.9c-1.6,0-2.8,0.5-2.8,2.2h-1.9c0.1-2.8,2.3-3.8,4.8-3.8
		c2,0,4.3,0.5,4.3,3.1v5.9c0,0.9,0,1.3,0.6,1.3c0.2,0,0.3,0,0.6-0.1v1.4H40.1z M37.1,50c-0.7,0.5-2.1,0.6-3.4,0.8
		c-1.2,0.2-2.3,0.7-2.3,2c0,1.2,1.1,1.7,2.2,1.7c2.5,0,3.5-1.5,3.5-2.6V50z"/>
	<path class="st1" d="M41.6,44.5h1.8v1.7l0,0c0.8-1.3,2.1-1.9,3.7-1.9c1.4,0,2.7,0.5,3.1,1.9c0.8-1.2,2.1-1.9,3.6-1.9
		c2.3,0,3.8,0.9,3.8,3.3v8.3h-1.9v-7.5c0-1.4-0.4-2.5-2.2-2.5s-3,1.1-3,2.9v7.1h-1.9v-7.5c0-1.5-0.5-2.5-2.1-2.5c-2.2,0-3,2-3,2.9
		v7.1h-1.9C41.6,55.9,41.6,44.5,41.6,44.5z"/>
	<path class="st1" d="M69.9,52.3c-0.5,2.5-2.3,3.9-4.9,3.9c-3.6,0-5.3-2.5-5.5-6c0-3.4,2.2-5.9,5.3-5.9c4,0,5.3,3.8,5.1,6.5h-8.5
		c-0.1,2,1.1,3.7,3.5,3.7c1.5,0,2.6-0.7,2.9-2.2H69.9z M68.1,49.1c-0.1-1.8-1.4-3.2-3.3-3.2c-2,0-3.1,1.5-3.3,3.2H68.1z"/>
	<path class="st1" d="M71.5,48.9h6.4v1.8h-6.4V48.9z"/>
	<path class="st1" d="M90.3,55.9h-1.9v-1.5l0,0c-0.6,1.3-2.1,1.8-3.6,1.8c-3.5,0-5.2-2.8-5.2-6s1.7-5.9,5.2-5.9
		c1.2,0,2.8,0.4,3.7,1.8l0,0v-5.9h1.9L90.3,55.9L90.3,55.9z M85,54.5c2.5,0,3.5-2.2,3.5-4.3c0-2.2-1-4.3-3.6-4.3s-3.4,2.2-3.4,4.4
		C81.5,52.4,82.6,54.5,85,54.5z"/>
	<path class="st1" d="M103,55.9c-0.3,0.2-0.7,0.3-1.3,0.3c-1,0-1.6-0.5-1.6-1.8c-1,1.2-2.4,1.8-4,1.8c-2.1,0-3.8-0.9-3.8-3.2
		c0-2.6,1.9-3.1,3.9-3.5c2.1-0.4,3.8-0.3,3.8-1.7c0-1.6-1.3-1.9-2.5-1.9c-1.6,0-2.8,0.5-2.8,2.2h-1.9c0.1-2.8,2.3-3.8,4.8-3.8
		c2,0,4.3,0.5,4.3,3.1v5.9c0,0.9,0,1.3,0.6,1.3c0.2,0,0.3,0,0.6-0.1L103,55.9L103,55.9z M100,50c-0.7,0.5-2.1,0.6-3.4,0.8
		c-1.2,0.2-2.3,0.7-2.3,2c0,1.2,1.1,1.7,2.2,1.7c2.5,0,3.5-1.5,3.5-2.6C100,51.9,100,50,100,50z"/>
	<path class="st1" d="M109,57.4c-0.9,2.2-1.6,3-3.3,3c-0.4,0-0.9,0-1.3-0.2v-1.7c0.4,0.1,0.7,0.3,1.1,0.3c0.8,0,1.2-0.4,1.5-1
		l0.8-1.9l-4.5-11.3h2.1l3.3,9.3l0,0l3.2-9.3h2L109,57.4z"/>
	<path class="st1" d="M20.9,68.3c3.6,0,5.5,2.6,5.5,6c0,3.3-1.9,5.9-5.5,5.9s-5.5-2.6-5.5-5.9C15.4,70.9,17.3,68.3,20.9,68.3z
		 M20.9,78.5c2,0,3.5-1.5,3.5-4.3s-1.6-4.3-3.5-4.3c-2,0-3.5,1.5-3.5,4.3S19,78.5,20.9,78.5z"/>
	<path class="st1" d="M28.3,68.5h1.8v2.4l0,0c0.9-1.8,2.2-2.7,4.2-2.7v2c-3,0-4.1,1.7-4.1,4.6v5.1h-1.9V68.5z"/>
	<path class="st1" d="M39.2,68.5h2.3v1.6h-2.3v7.1c0,0.9,0.2,1,1.4,1h0.9v1.7h-1.4c-1.9,0-2.7-0.4-2.7-2.5v-7.2h-1.9v-1.6h1.9v-3.4
		h1.9v3.3H39.2z"/>
	<path class="st1" d="M43.3,64.2h1.9v6l0,0c0.6-1.4,2.2-1.9,3.6-1.9c3,0,3.9,1.7,3.9,4.2V80h-1.9v-7.7c0-1.4-0.9-2.3-2.3-2.3
		c-2.3,0-3.4,1.5-3.4,3.6V80h-1.9V64.2H43.3z"/>
	<path class="st1" d="M60.2,68.3c3.6,0,5.5,2.6,5.5,6c0,3.3-1.9,5.9-5.5,5.9s-5.5-2.6-5.5-5.9C54.7,70.9,56.6,68.3,60.2,68.3z
		 M60.2,78.5c2,0,3.5-1.5,3.5-4.3s-1.6-4.3-3.5-4.3c-2,0-3.5,1.5-3.5,4.3S58.3,78.5,60.2,78.5z"/>
	<path class="st1" d="M67.8,68.5h1.9V70l0,0c0.6-1.3,2.1-1.8,3.6-1.8c3.5,0,5.2,2.8,5.2,6s-1.7,5.9-5.2,5.9c-1.2,0-2.8-0.4-3.7-1.8
		l0,0v5.9h-1.9L67.8,68.5L67.8,68.5z M73.1,69.9c-2.5,0-3.5,2.2-3.5,4.3c0,2.2,1,4.3,3.6,4.3s3.4-2.2,3.4-4.4
		C76.6,72,75.5,69.9,73.1,69.9z"/>
	<path class="st1" d="M90.7,79.9c-0.3,0.2-0.7,0.3-1.3,0.3c-1,0-1.6-0.5-1.6-1.8c-1,1.2-2.4,1.8-4,1.8c-2.1,0-3.8-0.9-3.8-3.2
		c0-2.6,1.9-3.1,3.9-3.5c2.1-0.4,3.8-0.3,3.8-1.7c0-1.6-1.3-1.9-2.5-1.9c-1.6,0-2.8,0.5-2.8,2.2h-1.9c0.1-2.8,2.3-3.8,4.8-3.8
		c2,0,4.3,0.5,4.3,3.1v5.9c0,0.9,0,1.3,0.6,1.3c0.2,0,0.3,0,0.6-0.1L90.7,79.9L90.7,79.9z M87.6,74c-0.7,0.5-2.1,0.6-3.4,0.8
		c-1.2,0.2-2.3,0.7-2.3,2c0,1.2,1.1,1.7,2.2,1.7c2.5,0,3.5-1.5,3.5-2.6C87.6,75.9,87.6,74,87.6,74z"/>
	<path class="st1" d="M101.9,76.3c-0.5,2.5-2.3,3.9-4.9,3.9c-3.6,0-5.3-2.5-5.5-6c0-3.4,2.2-5.9,5.3-5.9c4,0,5.3,3.8,5.1,6.5h-8.5
		c-0.1,2,1.1,3.7,3.5,3.7c1.5,0,2.6-0.7,2.9-2.2H101.9z M100.1,73.1c-0.1-1.8-1.4-3.2-3.3-3.2c-2,0-3.1,1.5-3.3,3.2H100.1z"/>
	<path class="st1" d="M113.9,79.9H112v-1.5l0,0c-0.6,1.3-2.1,1.8-3.6,1.8c-3.5,0-5.2-2.8-5.2-6s1.7-5.9,5.2-5.9
		c1.2,0,2.8,0.4,3.7,1.8l0,0v-5.9h1.9L113.9,79.9L113.9,79.9z M108.6,78.5c2.5,0,3.5-2.2,3.5-4.3c0-2.2-1-4.3-3.6-4.3
		s-3.4,2.2-3.4,4.4S106.2,78.5,108.6,78.5z"/>
	<path class="st1" d="M118.6,66.5h-1.9v-2.3h1.9V66.5z M116.7,68.5h1.9v11.4h-1.9V68.5z"/>
	<path class="st1" d="M129,72.2c-0.3-1.4-1.3-2.3-2.8-2.3c-2.7,0-3.5,2.1-3.5,4.4c0,2.1,0.9,4.2,3.3,4.2c1.8,0,2.9-1.1,3.1-2.8h1.9
		c-0.4,2.8-2.2,4.4-5,4.4c-3.5,0-5.3-2.4-5.3-5.8s1.8-6.1,5.4-6.1c2.6,0,4.6,1.2,4.9,3.9h-2V72.2z"/>
	<path class="st1" d="M23.7,96.2c-0.3-1.4-1.3-2.3-2.8-2.3c-2.7,0-3.5,2.1-3.5,4.4c0,2.1,0.9,4.2,3.3,4.2c1.8,0,2.9-1.1,3.1-2.8h1.9
		c-0.4,2.8-2.2,4.4-5,4.4c-3.5,0-5.3-2.4-5.3-5.8s1.8-6.1,5.4-6.1c2.6,0,4.6,1.2,4.9,3.9h-2V96.2z"/>
	<path class="st1" d="M37.7,103.9c-0.3,0.2-0.7,0.3-1.3,0.3c-1,0-1.6-0.5-1.6-1.8c-1,1.2-2.4,1.8-4,1.8c-2.1,0-3.8-0.9-3.8-3.2
		c0-2.6,1.9-3.1,3.9-3.5c2.1-0.4,3.8-0.3,3.8-1.7c0-1.6-1.3-1.9-2.5-1.9c-1.6,0-2.8,0.5-2.8,2.2h-1.9c0.1-2.8,2.3-3.8,4.8-3.8
		c2,0,4.3,0.5,4.3,3.1v5.9c0,0.9,0,1.3,0.6,1.3c0.2,0,0.3,0,0.6-0.1v1.4C37.8,103.9,37.7,103.9,37.7,103.9z M34.6,98
		c-0.7,0.5-2.1,0.6-3.4,0.8c-1.2,0.2-2.3,0.7-2.3,2c0,1.2,1.1,1.7,2.2,1.7c2.5,0,3.5-1.5,3.5-2.6V98z"/>
	<path class="st1" d="M39.1,92.5h1.8v2.4l0,0c0.9-1.8,2.2-2.7,4.2-2.7v2c-3,0-4.1,1.7-4.1,4.6v5.1h-1.9V92.5z"/>
	<path class="st1" d="M56,100.3c-0.5,2.5-2.3,3.9-4.9,3.9c-3.6,0-5.3-2.5-5.5-6c0-3.4,2.2-5.9,5.3-5.9c4,0,5.3,3.8,5.1,6.5h-8.5
		c-0.1,2,1.1,3.7,3.5,3.7c1.5,0,2.6-0.7,2.9-2.2H56z M54.2,97.1c-0.1-1.8-1.4-3.2-3.3-3.2c-2,0-3.1,1.5-3.3,3.2H54.2z"/>
	<path class="st1" d="M58.3,101.5h2.4v2.2c0,1.7-0.7,3-2.4,3.5v-1.1c1-0.3,1.3-1.4,1.3-2.1h-1.3V101.5z"/>
</g>
<g>
	<path class="st1" d="M371.7,105.4c0,2-1.1,2.9-2.7,2.9c-0.3,0-0.6,0-1-0.1v-1.6c0.3,0,0.5,0,0.8,0c0.8,0,1.1-0.4,1.1-1.6V92.5h1.9
		L371.7,105.4L371.7,105.4z M371.7,90.5h-1.9v-2.3h1.9V90.5z"/>
	<path class="st1" d="M383.8,103.9H382v-1.8l0,0c-0.8,1.4-2.1,2.1-3.7,2.1c-3,0-3.9-1.7-3.9-4.2v-7.5h1.9v7.7c0,1.4,0.9,2.3,2.3,2.3
		c2.3,0,3.4-1.5,3.4-3.6v-6.4h1.9L383.8,103.9L383.8,103.9z"/>
	<path class="st1" d="M387.5,100.3c0.1,1.7,1.5,2.2,3.1,2.2c1.2,0,2.8-0.3,2.8-1.7c0-1.5-1.8-1.7-3.7-2.1c-1.8-0.4-3.7-1-3.7-3.2
		c0-2.3,2.3-3.2,4.2-3.2c2.5,0,4.5,0.8,4.7,3.6H393c-0.1-1.5-1.4-1.9-2.6-1.9c-1.1,0-2.4,0.3-2.4,1.5c0,1.3,2,1.6,3.7,2
		c1.9,0.4,3.7,1,3.7,3.2c0,2.7-2.5,3.6-4.8,3.6c-2.6,0-4.7-1-4.8-3.9L387.5,100.3L387.5,100.3z"/>
	<path class="st1" d="M399.7,92.5h2.3v1.6h-2.3v7.1c0,0.9,0.2,1,1.4,1h0.9v1.7h-1.4c-1.9,0-2.7-0.4-2.7-2.5v-7.2H396v-1.6h1.9v-3.4
		h1.9L399.7,92.5L399.7,92.5z"/>
	<path class="st1" d="M414.7,92.3c3.6,0,5.5,2.6,5.5,6c0,3.3-1.9,5.9-5.5,5.9s-5.5-2.6-5.5-5.9C409.1,94.9,411,92.3,414.7,92.3z
		 M414.7,102.5c2,0,3.5-1.5,3.5-4.3s-1.6-4.3-3.5-4.3c-2,0-3.5,1.5-3.5,4.3C411.1,101,412.7,102.5,414.7,102.5z"/>
	<path class="st1" d="M422.9,94.2H421v-1.6h1.9v-1.7c0-1.8,1.1-2.8,3.1-2.8c0.4,0,0.9,0.1,1.2,0.2v1.6c-0.3-0.1-0.7-0.2-1.1-0.2
		c-0.9,0-1.4,0.3-1.4,1.3v1.6h2.2v1.6h-2.2v9.7h-1.9L422.9,94.2L422.9,94.2z"/>
	<path class="st1" d="M429.2,94.2h-1.9v-1.6h1.9v-1.7c0-1.8,1.1-2.8,3.1-2.8c0.4,0,0.9,0.1,1.2,0.2v1.6c-0.3-0.1-0.7-0.2-1.1-0.2
		c-0.9,0-1.4,0.3-1.4,1.3v1.6h2.2v1.6H431v9.7h-1.9L429.2,94.2L429.2,94.2z"/>
	<path class="st1" d="M318.6,116.5h2.3v1.6h-2.3v7.1c0,0.9,0.2,1,1.4,1h0.9v1.7h-1.4c-1.9,0-2.7-0.4-2.7-2.5v-7.2h-1.9v-1.6h1.9
		v-3.4h1.9L318.6,116.5L318.6,116.5z"/>
	<path class="st1" d="M322.7,112.2h1.9v6l0,0c0.6-1.4,2.2-1.9,3.6-1.9c3,0,3.9,1.7,3.9,4.2v7.5h-1.9v-7.7c0-1.4-0.9-2.3-2.3-2.3
		c-2.3,0-3.4,1.5-3.4,3.6v6.4h-1.9L322.7,112.2L322.7,112.2z"/>
	<path class="st1" d="M344.4,124.3c-0.5,2.5-2.3,3.9-4.9,3.9c-3.6,0-5.3-2.5-5.5-6c0-3.4,2.2-5.9,5.3-5.9c4,0,5.3,3.8,5.1,6.5h-8.5
		c-0.1,2,1.1,3.7,3.5,3.7c1.5,0,2.6-0.7,2.9-2.2C342.3,124.3,344.4,124.3,344.4,124.3z M342.6,121.1c-0.1-1.8-1.4-3.2-3.3-3.2
		c-2,0-3.1,1.5-3.3,3.2H342.6z"/>
	<path class="st1" d="M352.6,112.2h2.9l5,13.2l5-13.2h2.9v15.7h-2v-13.1l0,0l-4.9,13.1h-1.8l-4.9-13.1l0,0v13.1h-2v-15.7H352.6z"/>
	<path class="st1" d="M381.2,127.9c-0.3,0.2-0.7,0.3-1.3,0.3c-1,0-1.6-0.5-1.6-1.8c-1,1.2-2.4,1.8-4,1.8c-2.1,0-3.8-0.9-3.8-3.2
		c0-2.6,1.9-3.1,3.9-3.5c2.1-0.4,3.8-0.3,3.8-1.7c0-1.6-1.3-1.9-2.5-1.9c-1.6,0-2.8,0.5-2.8,2.2H371c0.1-2.8,2.3-3.8,4.8-3.8
		c2,0,4.3,0.5,4.3,3.1v5.9c0,0.9,0,1.3,0.6,1.3c0.2,0,0.3,0,0.6-0.1L381.2,127.9L381.2,127.9z M378.2,122.1
		c-0.7,0.5-2.1,0.6-3.4,0.8c-1.2,0.2-2.3,0.7-2.3,2c0,1.2,1.1,1.7,2.2,1.7c2.5,0,3.5-1.5,3.5-2.6L378.2,122.1L378.2,122.1z"/>
	<path class="st1" d="M392.6,127c0,3.7-1.7,5.6-5.3,5.6c-2.1,0-4.6-0.9-4.7-3.3h1.9c0.1,1.4,1.7,1.8,2.9,1.8c2.4,0,3.4-1.8,3.4-4.3
		V126l0,0c-0.6,1.4-2.1,2.1-3.5,2.1c-3.4,0-5.1-2.7-5.1-5.8c0-2.7,1.3-6,5.3-6c1.4,0,2.7,0.6,3.4,1.9l0,0l0,0v-1.6h1.8L392.6,127
		L392.6,127z M390.7,122c0-2-0.9-4.1-3.2-4.1c-2.4,0-3.4,2-3.4,4.1c0,2,0.7,4.3,3.2,4.3C389.8,126.4,390.7,124.1,390.7,122z"/>
	<path class="st1" d="M401.4,112.2h2.9l5,13.2l5-13.2h2.9v15.7h-2v-13.1l0,0l-4.9,13.1h-1.8l-4.9-13.1l0,0v13.1h-2v-15.7H401.4z"/>
	<path class="st1" d="M422,114.5h-1.9v-2.3h1.9V114.5z M420.1,116.5h1.9v11.4h-1.9V116.5z"/>
	<path class="st1" d="M424.8,112.2h1.9v15.7h-1.9V112.2z"/>
	<path class="st1" d="M439,124.3c-0.5,2.5-2.3,3.9-4.9,3.9c-3.6,0-5.3-2.5-5.5-6c0-3.4,2.2-5.9,5.3-5.9c4,0,5.3,3.8,5.1,6.5h-8.5
		c-0.1,2,1.1,3.7,3.5,3.7c1.5,0,2.6-0.7,2.9-2.2C436.9,124.3,439,124.3,439,124.3z M437.2,121.1c-0.1-1.8-1.4-3.2-3.3-3.2
		c-2,0-3.1,1.5-3.3,3.2H437.2z"/>
	<path class="st1" d="M441.3,125.5h2.4v2.4h-2.4V125.5z"/>
</g>
<g>
	<path class="st0" d="M337.4,455.3c0-1.4-0.4-2-1.2-2v-0.5h4v0.5c-0.8,0-1.1,0.6-1.1,2v8.1c0,1.4,0.3,2,1.1,2v0.5h-4v-0.5
		c0.6-0.1,1-0.5,1-1.1c0-0.9-0.6-1.6-1.2-2.3l-5.9-6.8v8.2c0,1.4,0.3,2,1.1,2v0.5h-3.8v-0.5c0.8,0,1.1-0.6,1.1-2v-8.1
		c0-1.4-0.3-2-1.1-2v-0.5h7.6v0.5c-0.3,0.1-0.5,0.2-0.5,0.5c0,0.4,0.5,1,0.8,1.3l2.2,2.7v-2.5L337.4,455.3L337.4,455.3z"/>
	<path class="st0" d="M345.7,464.8c0.5,0,1-0.5,1.2-1c0.3-0.6,0.3-1.3,0.3-1.9c0-0.8-0.1-1.7-0.4-2.4c-0.2-0.5-0.7-1-1.3-1
		c-1.4,0-1.7,1.8-1.7,2.8C343.9,462.4,344.2,464.8,345.7,464.8L345.7,464.8L345.7,464.8z M342,465.2c-1.1-0.7-1.6-2.1-1.6-3.4
		c0-3,2.5-4.7,5.3-4.7s5,1.5,5,4.5s-2.5,4.5-5.2,4.5C344.4,466.1,343,465.8,342,465.2L342,465.2z"/>
	<path class="st0" d="M355.2,464c0,0.9,0.4,1.3,1,1.4v0.4H351v-0.4c0.6,0,0.9-0.5,0.9-1.4v-4.8c0-0.9-0.3-1.3-0.9-1.4v-0.4l3.7-0.2
		c0.4,0.6,0.5,1.3,0.5,1.9c0.4-1,1.6-1.9,2.7-1.9c0.3,0,0.6,0.1,0.9,0.1l-0.6,2.4c-0.4-0.4-0.7-0.5-1.3-0.5c-0.6,0-1.1,0.3-1.4,0.9
		s-0.3,1.2-0.3,1.9L355.2,464L355.2,464z"/>
	<path class="st0" d="M363.4,457.5h1.3c0.6,0,0.9-0.1,1.1-0.2l-0.5,1.4c-0.2-0.2-0.5-0.1-0.8-0.1h-1.1v4c0,0.7,0,1.8,1,1.8
		c0.9,0,1.4-0.8,1.7-1.5l0.4,0.1l-0.9,2.5c-0.9,0.4-1.8,0.6-2.7,0.6c-0.8,0-1.7-0.2-2.2-0.8c-0.5-0.6-0.5-1.5-0.5-2.2v-4.5H359v-0.4
		c1-0.2,1.5-1.1,1.5-2c0-0.3-0.1-0.6-0.1-0.9c1.1-0.2,2.2-0.7,3.1-1.3v3.5H363.4z"/>
	<path class="st0" d="M376.2,464c0,0.9,0.3,1.3,0.9,1.4v0.4H372v-0.4c0.6,0,0.9-0.5,1-1.4v-3.7c0-0.6,0-1.4-0.8-1.4
		c-0.6,0-1.1,0.5-1.4,1c-0.3,0.6-0.3,1.3-0.3,2v2.1c0,0.9,0.3,1.3,0.9,1.4v0.4h-5.1v-0.4c0.6,0,0.9-0.5,0.9-1.4v-7.8
		c0-0.9-0.3-1.3-0.9-1.4v-0.4l4.1-0.2v4.6c0.9-1,2.2-1.7,3.6-1.7c0.7,0,1.3,0.2,1.8,0.8c0.4,0.6,0.4,1.4,0.4,2.1V464L376.2,464z"/>
	<path class="st0" d="M388.5,456.7l-0.4,0.1c-0.6-1.4-2.1-2.7-3.7-2.7c-0.9,0-2,0.5-2,1.6c0,1,1.2,1.3,1.9,1.5l2.3,0.7
		c1.8,0.6,3.3,1.4,3.3,3.5c0,1.6-0.8,2.8-2.1,3.6c-1.2,0.8-3,1.2-4.4,1.2c-1,0-1.8-0.1-2.8-0.3c-0.4-0.1-0.9-0.2-1.3-0.2
		c-0.5,0-0.8,0.2-1.1,0.5l-0.4-5.5l0.4-0.1c0.4,2.3,2.3,4,4.6,4c1.2,0,2.7-0.5,2.7-2c0-1.1-1-1.4-1.9-1.6l-2-0.7
		c-0.8-0.2-1.7-0.6-2.3-1.1c-0.7-0.6-1.2-1.5-1.2-2.4c0-1.3,0.8-2.6,1.8-3.3c1.1-0.8,2.4-1.1,3.7-1.1c0.8,0,1.3,0.1,2,0.3
		c0.3,0.1,0.7,0.2,1,0.2c0.4,0,1-0.1,1.2-0.5L388.5,456.7L388.5,456.7z"/>
	<path class="st0" d="M399.9,464c0,0.9,0.3,1.3,0.9,1.4v0.4h-5.1v-0.4c0.6,0,0.9-0.5,1-1.4v-3.7c0-0.6,0-1.4-0.8-1.4
		c-0.6,0-1.1,0.5-1.4,1c-0.3,0.6-0.3,1.3-0.3,2v2.1c0,0.9,0.3,1.3,0.9,1.4v0.4H390v-0.4c0.6,0,0.9-0.5,0.9-1.4v-7.8
		c0-0.9-0.3-1.3-0.9-1.4v-0.4l4.1-0.2v4.6c0.9-1,2.2-1.7,3.6-1.7c0.7,0,1.3,0.2,1.8,0.8c0.4,0.6,0.4,1.4,0.4,2.1V464L399.9,464z"/>
	<path class="st0" d="M406.4,464.8c0.5,0,1-0.5,1.2-1c0.3-0.6,0.3-1.3,0.3-1.9c0-0.8-0.1-1.7-0.4-2.4c-0.2-0.5-0.7-1-1.3-1
		c-1.4,0-1.7,1.8-1.7,2.8C404.5,462.4,404.9,464.8,406.4,464.8L406.4,464.8L406.4,464.8z M402.7,465.2c-1.1-0.7-1.6-2.1-1.6-3.4
		c0-3,2.5-4.7,5.3-4.7s5,1.5,5,4.5s-2.5,4.5-5.2,4.5C405,466.1,403.7,465.8,402.7,465.2L402.7,465.2z"/>
	<path class="st0" d="M415.8,464c0,0.9,0.4,1.3,1,1.4v0.4h-5.2v-0.4c0.6,0,0.9-0.5,1-1.4v-4.8c0-0.9-0.3-1.3-1-1.4v-0.4l3.7-0.2
		c0.4,0.6,0.5,1.3,0.5,1.9c0.4-1,1.6-1.9,2.7-1.9c0.3,0,0.6,0.1,0.9,0.1l-0.6,2.4c-0.4-0.4-0.7-0.5-1.3-0.5c-0.6,0-1.1,0.3-1.4,0.9
		s-0.3,1.2-0.3,1.9L415.8,464L415.8,464z"/>
	<path class="st0" d="M425.5,460.2v-0.3c0-0.8-0.6-1.5-1.4-1.5c-1.1,0-1.5,1.4-1.5,2.3L425.5,460.2L425.5,460.2z M422.8,461.8
		c0.2,1.5,1,2.8,2.6,2.8c1.4,0,2.5-0.8,3-2.1l0.4,0.1l-1.1,3.3c-0.2-0.1-0.3-0.2-0.6-0.2c-0.1,0-0.3,0-0.4,0.1
		c-0.7,0.1-1.4,0.2-2.2,0.2c-1.2,0-2.6-0.3-3.6-1c-1.1-0.8-1.8-2.1-1.8-3.5c0-2.9,2.5-4.4,5.2-4.4c2.3,0,4.2,1.1,4.6,3.5
		L422.8,461.8L422.8,461.8z"/>
	<path class="st0" d="M315,470c0-0.3,0-0.7-0.4-0.7v-0.1h1.4v0.1c-0.4,0-0.4,0.3-0.4,0.7v1.9c0,0.7,0.3,1,0.9,1c0.7,0,1.1-0.4,1.1-1
		V470c0-0.4,0-0.7-0.4-0.7v-0.1h1.1v0.1c-0.4,0-0.4,0.4-0.4,0.7v1.6c0,1.2-0.7,1.6-1.5,1.6c-0.4,0-0.8-0.1-1.1-0.3
		c-0.4-0.2-0.4-0.6-0.4-1L315,470L315,470z"/>
	<path class="st0" d="M321.1,471c0-0.3,0-0.6-0.3-0.7v-0.1l0.8-0.1c0.1,0.2,0.1,0.4,0.1,0.6c0.3-0.3,0.7-0.7,1.2-0.7
		c0.6,0,0.7,0.4,0.7,1v1.2c0,0.3,0,0.6,0.3,0.7v0.1h-1.3l0,0c0.3,0,0.3-0.4,0.3-0.7v-1c0-0.4-0.1-0.8-0.4-0.8s-0.5,0.2-0.7,0.4
		c-0.2,0.3-0.2,0.5-0.2,0.8v0.6c0,0.3,0,0.6,0.3,0.7l0,0h-1.3l0,0c0.3,0,0.3-0.4,0.3-0.7V471H321.1z"/>
	<path class="st0" d="M326.7,469.4c0-0.2,0.1-0.4,0.4-0.4c0.2,0,0.4,0.2,0.4,0.4c0,0.2-0.1,0.4-0.4,0.4
		C326.9,469.8,326.7,469.7,326.7,469.4L326.7,469.4z M327.4,470.2v2.1c0,0.3,0,0.6,0.3,0.7v0.1h-1.3V473c0.3,0,0.3-0.4,0.3-0.7V471
		c0-0.3,0-0.6-0.3-0.7v-0.1L327.4,470.2L327.4,470.2z"/>
	<path class="st0" d="M332.5,470.7c0.1-0.2,0.1-0.4-0.1-0.4v-0.1h0.8v0.1c-0.2,0-0.3,0.3-0.4,0.5l-0.7,1.8c-0.1,0.3-0.1,0.4,0,0.4
		v0.1h-1V473c0.2,0,0.1-0.2,0.1-0.4l-0.7-1.9c-0.1-0.2-0.1-0.4-0.3-0.5v-0.1h1.1v0.1c-0.3,0-0.2,0.2-0.1,0.5l0.6,1.8L332.5,470.7
		L332.5,470.7z"/>
	<path class="st0" d="M337.8,471.1c-0.1-0.3-0.4-0.6-0.7-0.6c-0.6,0-0.9,0.6-0.8,1.1L337.8,471.1L337.8,471.1z M336.3,471.7
		c0.1,0.6,0.6,1.1,1.2,1.1c0.2,0,0.5-0.1,0.7-0.3c0.1-0.1,0.2-0.3,0.3-0.4h0.1l-0.3,0.9c-0.1-0.1-0.2,0-0.2,0l-0.6,0.1
		c-0.6,0.1-1.8-0.4-1.8-1.5c0-0.9,0.7-1.5,1.5-1.5c0.6,0,1.2,0.4,1.3,1L336.3,471.7L336.3,471.7z"/>
	<path class="st0" d="M341.4,471c0-0.3,0-0.6-0.3-0.7v-0.1l0.8-0.1c0.1,0.2,0.1,0.4,0.1,0.6c0.2-0.4,0.6-0.7,1-0.7h0.2l-0.1,0.6
		c-0.1-0.1-0.2-0.1-0.4-0.1c-0.6,0-0.7,0.6-0.7,1.1v0.5c0,0.5,0,0.7,0.3,0.8v0.1H341l0,0c0.3,0,0.3-0.4,0.3-0.7V471H341.4z"/>
	<path class="st0" d="M347.8,471.1L347.8,471.1c-0.1-0.4-0.6-0.7-1-0.7c-0.2,0-0.6,0.1-0.6,0.4c0,0.6,1.8,0.3,1.8,1.3
		c0,0.7-0.7,1-1.2,1s-1-0.2-1.1-0.2s-0.1,0-0.1,0.1v-1.1l0,0c0.1,0.6,0.6,1,1.1,1c0.3,0,0.7-0.2,0.7-0.5c0-0.7-1.8-0.4-1.8-1.4
		c0-0.6,0.6-0.8,1.1-0.8s0.8,0.1,0.9,0.1s0.1,0,0.1,0L347.8,471.1L347.8,471.1z"/>
	<path class="st0" d="M350.8,469.4c0-0.2,0.1-0.4,0.4-0.4c0.2,0,0.4,0.2,0.4,0.4c0,0.2-0.1,0.4-0.4,0.4S350.8,469.7,350.8,469.4
		L350.8,469.4z M351.5,470.2v2.1c0,0.3,0,0.6,0.3,0.7v0.1h-1.3V473c0.3,0,0.3-0.4,0.3-0.7V471c0-0.3,0-0.6-0.3-0.7v-0.1L351.5,470.2
		L351.5,470.2z"/>
	<path class="st0" d="M354.5,470.5h-0.4v-0.1c0.3-0.1,0.5-0.4,0.5-0.7c0-0.1,0-0.2,0-0.3l0.5-0.2v1h0.5c0.1,0,0.3,0,0.4-0.1
		l-0.2,0.4c-0.1-0.1-0.2-0.1-0.2-0.1h-0.4v1.7c0,0.4,0.1,0.6,0.4,0.6c0.2,0,0.4-0.1,0.5-0.3l0,0l-0.2,0.5c-0.2,0.1-0.5,0.1-0.7,0.1
		c-0.6,0-0.7-0.4-0.7-0.8L354.5,470.5L354.5,470.5z"/>
	<path class="st0" d="M360.5,470.9c0.1-0.3,0.3-0.6-0.1-0.6v-0.1h0.9v0.1c-0.3,0-0.3,0.3-0.4,0.5l-1,2.6c-0.2,0.5-0.4,0.9-1,0.9
		c-0.2,0-0.4-0.1-0.6-0.2l0.4-0.8l0,0c-0.1,0.3,0,0.6,0.3,0.6c0.4,0,0.5-0.4,0.5-0.7c0-0.3-0.1-0.6-0.2-0.9l-0.6-1.5
		c-0.1-0.2-0.2-0.5-0.4-0.5v-0.1h1.2v0.1c-0.3,0-0.2,0.3-0.1,0.5l0.6,1.6L360.5,470.9L360.5,470.9z"/>
	<path class="st0" d="M367.7,472.3c0,0.3,0,0.7,0.4,0.7v0.1h-1.4V473c0.4-0.1,0.4-0.4,0.4-0.7V470c0-0.3,0-0.6-0.4-0.7v-0.1h1.4v0.1
		c-0.4,0-0.4,0.3-0.4,0.7v0.3h1.7V470c0-0.3,0-0.7-0.4-0.7v-0.1h1.4v0.1c-0.4,0-0.4,0.3-0.4,0.7v2.3c0,0.3,0,0.7,0.4,0.7v0.1H369
		V473c0.4,0,0.4-0.3,0.4-0.7v-1.7h-1.7L367.7,472.3L367.7,472.3z"/>
	<path class="st0" d="M375.2,471.1c-0.1-0.3-0.4-0.6-0.7-0.6c-0.6,0-0.9,0.6-0.8,1.1L375.2,471.1L375.2,471.1z M373.7,471.7
		c0.1,0.6,0.6,1.1,1.2,1.1c0.2,0,0.5-0.1,0.7-0.3c0.1-0.1,0.2-0.3,0.3-0.4h0.1l-0.3,0.9c-0.1-0.1-0.2,0-0.2,0l-0.6,0.1
		c-0.6,0.1-1.8-0.4-1.8-1.5c0-0.9,0.7-1.5,1.5-1.5c0.6,0,1.2,0.4,1.3,1L373.7,471.7L373.7,471.7z"/>
	<path class="st0" d="M380.5,471.4c-0.5,0.1-1.4,0.4-1.4,1c0,0.3,0.2,0.4,0.5,0.4c0.7,0,0.9-0.7,0.9-1.2V471.4L380.5,471.4z
		 M380.8,473c-0.1-0.1-0.2-0.3-0.2-0.5c-0.2,0.4-0.7,0.6-1.1,0.6c-0.5,0-0.9-0.2-0.9-0.7c0-0.9,1.3-1.1,2-1.3V471
		c0-0.4-0.2-0.6-0.6-0.6c-0.5,0-1,0.3-1.2,0.8l0.1-0.9c0.1,0.1,0.2,0.1,0.4,0c0.4-0.1,0.6-0.2,1-0.2c0.7,0,1,0.2,1,1v1.1
		c0,0.3,0,0.7,0.4,0.8v0.1L380.8,473L380.8,473z"/>
	<path class="st0" d="M384.8,469.1v3.2c0,0.3,0,0.6,0.3,0.7v0.1h-1.3V473c0.3,0,0.3-0.4,0.3-0.7V470c0-0.3,0-0.6-0.3-0.7v-0.1
		L384.8,469.1L384.8,469.1z"/>
	<path class="st0" d="M387.9,470.5h-0.4v-0.1c0.3-0.1,0.5-0.4,0.5-0.7c0-0.1,0-0.2,0-0.3l0.5-0.2v1h0.5c0.1,0,0.3,0,0.4-0.1
		l-0.2,0.4c-0.1-0.1-0.2-0.1-0.2-0.1h-0.4v1.7c0,0.4,0.1,0.6,0.4,0.6c0.2,0,0.4-0.1,0.5-0.3l0,0l-0.2,0.5c-0.2,0.1-0.5,0.1-0.7,0.1
		c-0.6,0-0.7-0.4-0.7-0.8L387.9,470.5L387.9,470.5z"/>
	<path class="st0" d="M392.8,469.1v1.7c0.3-0.3,0.7-0.7,1.2-0.7s0.7,0.3,0.7,0.9v1.3c0,0.3,0,0.6,0.4,0.7l0,0h-1.3l0,0
		c0.3,0,0.3-0.4,0.3-0.7v-1c0-0.3,0-0.7-0.4-0.7c-0.3,0-0.5,0.2-0.7,0.4c-0.2,0.2-0.2,0.5-0.2,0.8v0.6c0,0.3,0,0.6,0.3,0.7l0,0h-1.3
		V473c0.3,0,0.3-0.4,0.3-0.7V470c0-0.3,0-0.6-0.3-0.7v-0.1L392.8,469.1L392.8,469.1z"/>
	<path class="st0" d="M400.4,470.3L400.4,470.3c-0.2-0.5-0.8-0.9-1.3-0.9c-0.3,0-0.7,0.1-0.7,0.5c0,0.3,0.4,0.4,0.6,0.4l0.8,0.2
		c0.3,0.1,0.5,0.2,0.7,0.4c0.2,0.2,0.3,0.5,0.3,0.8c0,0.8-0.8,1.4-1.6,1.4c-0.4,0-0.8-0.2-1-0.2c-0.1,0-0.1,0-0.2,0.1l-0.3-1.4h0.1
		c0.2,0.7,0.7,1.2,1.5,1.2c0.6,0,1.1-0.4,1.1-0.8c0-0.5-0.5-0.6-0.8-0.8l-0.8-0.2c-0.4-0.1-0.8-0.3-0.8-0.9c0-0.7,0.7-0.9,1.3-0.9
		c0.4,0,0.6,0.1,0.9,0.1c0.1,0,0.1,0,0.2-0.1L400.4,470.3L400.4,470.3z"/>
	<path class="st0" d="M405.3,470.9c0.1-0.3,0.3-0.6-0.1-0.6v-0.1h0.9v0.1c-0.3,0-0.3,0.3-0.4,0.5l-1,2.6c-0.2,0.5-0.4,0.9-1,0.9
		c-0.2,0-0.4-0.1-0.6-0.2l0.4-0.8l0,0c-0.1,0.3,0,0.6,0.3,0.6c0.4,0,0.5-0.4,0.5-0.7c0-0.3-0.1-0.6-0.2-0.9l-0.6-1.5
		c-0.1-0.2-0.2-0.5-0.4-0.5v-0.1h1.2v0.1c-0.3,0-0.2,0.3-0.1,0.5l0.6,1.6L405.3,470.9L405.3,470.9z"/>
	<path class="st0" d="M410.7,471.1L410.7,471.1c-0.1-0.4-0.6-0.7-1-0.7c-0.2,0-0.6,0.1-0.6,0.4c0,0.6,1.8,0.3,1.8,1.3
		c0,0.7-0.7,1-1.2,1s-1-0.2-1.1-0.2s-0.1,0-0.1,0.1v-1.1l0,0c0.1,0.6,0.6,1,1.1,1c0.3,0,0.7-0.2,0.7-0.5c0-0.7-1.8-0.4-1.8-1.4
		c0-0.6,0.6-0.8,1.1-0.8s0.8,0.1,0.9,0.1s0.1,0,0.1,0L410.7,471.1L410.7,471.1z"/>
	<path class="st0" d="M413.7,470.5h-0.4v-0.1c0.3-0.1,0.5-0.4,0.5-0.7c0-0.1,0-0.2,0-0.3l0.5-0.2v1h0.5c0.1,0,0.3,0,0.4-0.1
		l-0.2,0.4c-0.1-0.1-0.2-0.1-0.2-0.1h-0.4v1.7c0,0.4,0.1,0.6,0.4,0.6c0.2,0,0.4-0.1,0.5-0.3l0,0l-0.2,0.5c-0.2,0.1-0.5,0.1-0.7,0.1
		c-0.6,0-0.7-0.4-0.7-0.8L413.7,470.5L413.7,470.5z"/>
	<path class="st0" d="M419.9,471.1c-0.1-0.3-0.4-0.6-0.7-0.6c-0.6,0-0.9,0.6-0.8,1.1L419.9,471.1L419.9,471.1z M418.3,471.7
		c0.1,0.6,0.6,1.1,1.2,1.1c0.2,0,0.5-0.1,0.7-0.3c0.1-0.1,0.2-0.3,0.3-0.4h0.1l-0.3,0.9c-0.1-0.1-0.2,0-0.2,0l-0.6,0.1
		c-0.6,0.1-1.8-0.4-1.8-1.5c0-0.9,0.7-1.5,1.5-1.5c0.6,0,1.2,0.4,1.3,1L418.3,471.7L418.3,471.7z"/>
	<path class="st0" d="M423.5,471c0-0.3,0-0.6-0.3-0.7v-0.1l0.8-0.1c0.1,0.2,0.1,0.4,0.1,0.6c0.3-0.3,0.8-0.7,1.2-0.7
		c0.4,0,0.6,0.3,0.7,0.6c0.3-0.3,0.8-0.6,1.2-0.6c0.5,0,0.7,0.4,0.7,0.9v1.3c0,0.3,0,0.6,0.4,0.7v0.1H427l0,0c0.3,0,0.3-0.4,0.3-0.7
		v-1.1c0-0.4,0-0.7-0.4-0.7c-0.3,0-0.5,0.2-0.7,0.4c-0.2,0.3-0.2,0.6-0.2,0.9v0.5c0,0.3,0,0.6,0.4,0.7v0.1h-1.3V473
		c0.3,0,0.3-0.4,0.3-0.7v-1.1c0-0.4,0-0.7-0.4-0.7c-0.2,0-0.5,0.1-0.6,0.3c-0.2,0.2-0.3,0.5-0.3,0.8v0.7c0,0.3,0,0.6,0.3,0.7v0.1
		h-1.3V473c0.3,0,0.3-0.4,0.3-0.7V471H423.5z"/>
	<polygon class="st0" points="314.9,467 314.9,467.6 427.8,467.6 427.8,467 	"/>
	<path class="st0" d="M324.5,459.6c-1,0-2.1,0.2-3.5,0.7c-1.4,0.6-2.6,0.8-3.6,0.8c-1.3,0-2.2-0.3-2.7-0.5v1.1h0.1
		c0.1,0.1,0.3,0.2,0.5,0.2c0.5,0.2,1.2,0.4,2.1,0.4s2.1-0.2,3.4-0.7c1.4-0.6,2.6-0.8,3.6-0.8c1.4,0,2.3,0.4,2.8,0.6v-1.2
		c-0.1-0.1-0.3-0.2-0.6-0.2C326.2,459.8,325.4,459.6,324.5,459.6L324.5,459.6z M327.2,457.1c-0.1-0.1-0.3-0.2-0.6-0.2
		c-0.5-0.2-1.2-0.4-2.2-0.4c-0.9,0-2.1,0.2-3.5,0.7c-1.4,0.6-2.6,0.8-3.6,0.8c-1.4,0-2.3-0.4-2.7-0.6v1.2c0.1,0.1,0.3,0.1,0.5,0.2
		c0.5,0.2,1.2,0.4,2.2,0.4s2.1-0.2,3.5-0.7c1.4-0.6,2.6-0.8,3.6-0.8c1.3,0,2.3,0.3,2.8,0.6L327.2,457.1L327.2,457.1L327.2,457.1z
		 M324.5,458.1c-1,0-2.1,0.2-3.5,0.7c-1.4,0.6-2.6,0.8-3.6,0.8c-1.3,0-2.2-0.3-2.7-0.5v1.1c0.1,0.1,0.3,0.1,0.5,0.2
		c0.5,0.2,1.2,0.4,2.2,0.4s2.1-0.2,3.5-0.7c1.4-0.6,2.6-0.8,3.6-0.8c1.3,0,2.3,0.3,2.8,0.6v-1.1c-0.1-0.1-0.3-0.2-0.6-0.2
		C326.2,458.3,325.4,458.1,324.5,458.1L324.5,458.1z"/>
	<path class="st0" d="M323.3,456.2v-3.1h-4.8v4.4c0.7-0.1,1.4-0.3,2.3-0.6C321.8,456.5,322.6,456.3,323.3,456.2L323.3,456.2z"/>
	<path class="st0" d="M318.6,462.6v3.1h4.8v-4.4c-0.7,0.1-1.5,0.3-2.3,0.6C320.1,462.3,319.3,462.5,318.6,462.6L318.6,462.6z"/>
</g>
<g>
	<rect x="766.1" y="451.6" class="st2" width="119.5" height="25.8"/>
	<g>
		<path class="st3" d="M800.6,460.2v1.7h-5v2h4.5v1.6h-4.5v2.3h5.1v1.7h-7.1v-9.4L800.6,460.2L800.6,460.2z"/>
		<path class="st3" d="M801.4,462.8h2.1l1.2,1.8l1.2-1.8h2.1l-2.2,3.2l2.5,3.6h-2.1l-1.4-2.1l-1.4,2.1h-2.1l2.4-3.6L801.4,462.8z"/>
		<path class="st3" d="M810.7,462.8v0.9l0,0c0.2-0.4,0.5-0.6,0.9-0.8c0.4-0.2,0.7-0.2,1.2-0.2s1,0.1,1.4,0.3c0.4,0.2,0.7,0.5,1,0.8
			s0.4,0.7,0.6,1.2s0.2,0.9,0.2,1.4s-0.1,0.9-0.2,1.3c-0.1,0.4-0.3,0.8-0.6,1.1s-0.6,0.6-0.9,0.8s-0.8,0.3-1.3,0.3
			c-0.4,0-0.8-0.1-1.2-0.3c-0.4-0.2-0.6-0.4-0.9-0.8l0,0v3.2H809v-9.2L810.7,462.8L810.7,462.8z M813.2,468.2
			c0.2-0.1,0.4-0.3,0.5-0.5s0.2-0.4,0.3-0.7s0.1-0.5,0.1-0.8s0-0.5-0.1-0.8s-0.2-0.5-0.3-0.7s-0.3-0.4-0.5-0.5s-0.5-0.2-0.8-0.2
			s-0.6,0.1-0.8,0.2s-0.4,0.3-0.5,0.5s-0.2,0.4-0.3,0.7c-0.1,0.3-0.1,0.5-0.1,0.8s0,0.5,0.1,0.8s0.1,0.5,0.3,0.7
			c0.1,0.2,0.3,0.4,0.5,0.5s0.5,0.2,0.8,0.2C812.7,468.4,813,468.3,813.2,468.2z"/>
		<path class="st3" d="M819,468c0.3,0.3,0.7,0.4,1.2,0.4c0.4,0,0.7-0.1,1-0.3s0.4-0.4,0.5-0.6h1.6c-0.3,0.8-0.7,1.4-1.2,1.7
			s-1.2,0.5-2,0.5c-0.5,0-1-0.1-1.4-0.3c-0.4-0.2-0.8-0.4-1.1-0.7c-0.3-0.3-0.5-0.7-0.7-1.1s-0.2-0.9-0.2-1.4s0.1-1,0.2-1.4
			c0.2-0.4,0.4-0.8,0.7-1.1c0.3-0.3,0.7-0.6,1.1-0.8c0.4-0.2,0.9-0.3,1.4-0.3c0.6,0,1.1,0.1,1.5,0.3c0.4,0.2,0.8,0.5,1.1,0.9
			s0.5,0.8,0.6,1.3s0.2,1,0.1,1.5h-4.9C818.6,467.3,818.7,467.7,819,468z M821.1,464.4c-0.2-0.2-0.6-0.4-1-0.4
			c-0.3,0-0.5,0.1-0.7,0.2s-0.4,0.2-0.5,0.4c-0.1,0.1-0.2,0.3-0.2,0.5s-0.1,0.3-0.1,0.4h3C821.5,465,821.3,464.6,821.1,464.4z"/>
		<path class="st3" d="M827.8,464c-0.3,0-0.5,0.1-0.8,0.2s-0.4,0.3-0.5,0.5s-0.2,0.5-0.3,0.7s-0.1,0.5-0.1,0.8c0,0.2,0,0.5,0.1,0.8
			s0.1,0.5,0.3,0.7c0.1,0.2,0.3,0.4,0.5,0.5s0.4,0.2,0.7,0.2c0.4,0,0.8-0.1,1-0.4c0.2-0.2,0.4-0.6,0.5-1h1.8
			c-0.1,0.9-0.5,1.6-1.1,2.1s-1.3,0.7-2.2,0.7c-0.5,0-1-0.1-1.4-0.3c-0.4-0.2-0.8-0.4-1.1-0.7c-0.3-0.3-0.5-0.7-0.7-1.1
			s-0.2-0.9-0.2-1.4s0.1-1,0.2-1.5c0.2-0.5,0.4-0.8,0.7-1.2c0.3-0.3,0.7-0.6,1.1-0.8c0.4-0.2,0.9-0.3,1.5-0.3c0.4,0,0.8,0.1,1.2,0.2
			s0.7,0.3,1,0.5s0.5,0.5,0.7,0.8s0.3,0.7,0.3,1.1h-1.8C829,464.4,828.6,464,827.8,464z"/>
		<path class="st3" d="M835.8,462.8v1.2h-1.4v3.4c0,0.3,0.1,0.5,0.2,0.6c0.1,0.1,0.3,0.2,0.6,0.2c0.1,0,0.2,0,0.3,0s0.2,0,0.3,0v1.4
			c-0.2,0-0.3,0-0.5,0.1c-0.2,0-0.4,0-0.6,0c-0.3,0-0.6,0-0.8-0.1c-0.3,0-0.5-0.1-0.7-0.2s-0.4-0.3-0.5-0.5s-0.2-0.5-0.2-0.8v-4
			h-1.1v-1.2h1.1v-2h1.9v2h1.4V462.8z"/>
		<path class="st3" d="M843.5,460.2l2.2,6.5l0,0l2.1-6.5h2.9v9.4h-1.9v-6.7l0,0l-2.3,6.7h-1.6l-2.3-6.6l0,0v6.6h-1.9v-9.4H843.5z"/>
		<path class="st3" d="M854.3,468c0.3,0.3,0.7,0.4,1.2,0.4c0.4,0,0.7-0.1,1-0.3s0.4-0.4,0.5-0.6h1.6c-0.3,0.8-0.7,1.4-1.2,1.7
			s-1.2,0.5-2,0.5c-0.5,0-1-0.1-1.4-0.3c-0.4-0.2-0.8-0.4-1.1-0.7c-0.3-0.3-0.5-0.7-0.7-1.1s-0.2-0.9-0.2-1.4s0.1-1,0.2-1.4
			c0.2-0.4,0.4-0.8,0.7-1.1c0.3-0.3,0.7-0.6,1.1-0.8c0.4-0.2,0.9-0.3,1.4-0.3c0.6,0,1.1,0.1,1.5,0.3c0.4,0.2,0.8,0.5,1.1,0.9
			s0.5,0.8,0.6,1.3s0.2,1,0.1,1.5h-4.9C853.8,467.3,854,467.7,854.3,468z M856.4,464.4c-0.2-0.2-0.6-0.4-1-0.4
			c-0.3,0-0.5,0.1-0.7,0.2s-0.4,0.2-0.5,0.4c-0.1,0.1-0.2,0.3-0.2,0.5s-0.1,0.3-0.1,0.4h3C856.8,465,856.6,464.6,856.4,464.4z"/>
	</g>
</g>
<g>
	<path class="st4" d="M617.8,32.9c0,2.3,1.7,3.1,3.7,3.1c2.3,0,3.1-1.1,3.1-2.2c0-1.1-0.6-1.6-1.2-1.8c-1-0.4-2.4-0.7-4.4-1.2
		c-2.5-0.7-3.2-2.2-3.2-3.7c0-2.9,2.7-4.3,5.3-4.3c3.1,0,5.6,1.6,5.6,4.7h-2.6c-0.1-1.9-1.4-2.6-3.2-2.6c-1.2,0-2.7,0.4-2.7,1.9
		c0,1,0.7,1.6,1.7,1.9c0.2,0.1,3.5,0.9,4.2,1.1c1.9,0.6,2.8,2.2,2.8,3.7c0,3.3-2.9,4.6-5.8,4.6c-3.3,0-6-1.6-6.1-5.2H617.8z"/>
	<path class="st4" d="M637.8,35.4c0,0.6,0.1,0.8,0.6,0.8c0.1,0,0.3,0,0.6,0v1.6c-0.3,0.1-1.1,0.3-1.5,0.3c-0.9,0-1.6-0.3-1.8-1.3
		c-0.9,0.9-2.4,1.3-3.7,1.3c-1.9,0-3.6-1-3.6-3.1c0-2.6,2.1-3.1,4.1-3.3c1.7-0.3,3.2-0.1,3.2-1.5c0-1.2-1.2-1.4-2.2-1.4
		c-1.3,0-2.2,0.5-2.3,1.7h-2.3c0.2-2.7,2.5-3.5,4.8-3.5c2.1,0,4.2,0.8,4.2,3.1V35.4z M635.4,32.5c-0.7,0.5-1.8,0.5-2.9,0.6
		c-1,0.2-1.9,0.5-1.9,1.8c0,1,1.3,1.4,2.2,1.4c1,0,2.6-0.5,2.6-2V32.5z"/>
	<path class="st4" d="M640.1,27.2h2.2v1.5h0.1c0.7-1,1.6-1.8,3.3-1.8c1.3,0,2.5,0.6,3,1.8c0.8-1.1,1.8-1.8,3.3-1.8
		c2.2,0,3.5,1,3.5,3.6v7.3h-2.3v-6.2c0-1.7-0.1-2.8-1.9-2.8c-1.6,0-2.3,1-2.3,2.8v6.2h-2.3V31c0-1.5-0.5-2.2-1.9-2.2
		c-1.2,0-2.3,1-2.3,2.7v6.3h-2.3V27.2z"/>
	<path class="st4" d="M659.6,33.1c0,1.7,0.9,3.1,2.8,3.1c1.4,0,2.2-0.6,2.6-1.8h2.2c-0.5,2.3-2.5,3.6-4.8,3.6
		c-3.3,0-5.2-2.3-5.2-5.6c0-3,2-5.6,5.1-5.6c3.3,0,5.4,3,5,6.2H659.6z M665,31.5c-0.1-1.5-1.1-2.8-2.7-2.8c-1.6,0-2.7,1.2-2.8,2.8
		H665z"/>
	<path class="st4" d="M668.7,31.1h6v2.2h-6V31.1z"/>
	<path class="st4" d="M686.7,37.8h-2.2v-1.4h0c-0.6,1.2-1.9,1.7-3.3,1.7c-3.3,0-5-2.5-5-5.7c0-3.8,2.3-5.5,4.6-5.5
		c1.3,0,2.8,0.5,3.5,1.7h0v-5.4h2.3V37.8z M681.4,36.2c2.1,0,3-1.9,3-3.8c0-2.3-1.1-3.7-2.9-3.7c-2.2,0-3,1.9-3,3.9
		C678.5,34.4,679.4,36.2,681.4,36.2z"/>
	<path class="st4" d="M697.9,35.4c0,0.6,0.1,0.8,0.6,0.8c0.1,0,0.3,0,0.6,0v1.6c-0.3,0.1-1.1,0.3-1.5,0.3c-0.9,0-1.6-0.3-1.8-1.3
		c-0.9,0.9-2.4,1.3-3.7,1.3c-1.9,0-3.6-1-3.6-3.1c0-2.6,2.1-3.1,4.1-3.3c1.7-0.3,3.2-0.1,3.2-1.5c0-1.2-1.2-1.4-2.2-1.4
		c-1.3,0-2.2,0.5-2.3,1.7h-2.3c0.2-2.7,2.5-3.5,4.8-3.5c2.1,0,4.2,0.8,4.2,3.1V35.4z M695.5,32.5c-0.7,0.5-1.8,0.5-2.9,0.6
		c-1,0.2-1.9,0.5-1.9,1.8c0,1,1.3,1.4,2.2,1.4c1,0,2.6-0.5,2.6-2V32.5z"/>
	<path class="st4" d="M699,27.2h2.6l2.8,7.9h0l2.7-7.9h2.4l-4.1,11.2c-0.8,1.9-1.3,3.6-3.8,3.6c-0.6,0-1.1,0-1.6-0.1v-2
		c0.4,0.1,0.7,0.1,1.1,0.1c1.1,0,1.4-0.6,1.6-1.5l0.3-0.8L699,27.2z"/>
	<path class="st4" d="M729.7,30.4c0,4.2-2.6,7.7-7,7.7s-7-3.5-7-7.7c0-4.2,2.6-7.7,7-7.7S729.7,26.3,729.7,30.4z M718.2,30.4
		c0,2.8,1.3,5.6,4.4,5.6s4.4-2.8,4.4-5.6c0-2.8-1.3-5.6-4.4-5.6S718.2,27.6,718.2,30.4z"/>
	<path class="st4" d="M731.5,27.2h2.2v2h0c0.3-1.1,1.7-2.3,3.1-2.3c0.5,0,0.7,0,0.9,0.1v2.3c-0.3,0-0.7-0.1-1-0.1
		c-1.6,0-2.9,1.3-2.9,3.6v5h-2.3V27.2z"/>
	<path class="st4" d="M737.5,27.2h1.8V24h2.3v3.2h2.1v1.7h-2.1v5.7c0,1,0.1,1.5,1.1,1.5c0.3,0,0.7,0,1-0.1v1.8c-0.5,0-1,0.1-1.5,0.1
		c-2.4,0-2.9-0.9-2.9-2.7v-6.2h-1.8V27.2z"/>
	<path class="st4" d="M745.1,23.1h2.3v5.4h0c0.6-1,1.8-1.7,3.2-1.7c2.3,0,3.8,1.2,3.8,3.6v7.3h-2.3v-6.7c0-1.7-0.7-2.4-2.1-2.4
		c-1.6,0-2.6,1.2-2.6,2.8v6.2h-2.3V23.1z"/>
	<path class="st4" d="M756.2,32.5c0-3.2,1.9-5.6,5.3-5.6c3.4,0,5.3,2.3,5.3,5.6c0,3.3-1.9,5.6-5.3,5.6
		C758.2,38,756.2,35.7,756.2,32.5z M764.6,32.5c0-1.8-0.9-3.7-3-3.7c-2.1,0-3,1.9-3,3.7c0,1.8,0.9,3.8,3,3.8
		C763.6,36.2,764.6,34.3,764.6,32.5z"/>
	<path class="st4" d="M768.7,27.2h2.2v1.4h0c0.7-1.2,1.9-1.7,3.3-1.7c3.3,0,5,2.5,5,5.6c0,2.8-1.4,5.5-4.6,5.5
		c-1.4,0-2.8-0.5-3.5-1.7h0v5.3h-2.3V27.2z M773.9,28.7c-2,0-3,1.5-3,3.8c0,2.1,1.1,3.7,3,3.7c2.1,0,2.9-1.9,2.9-3.7
		C776.9,30.5,775.9,28.7,773.9,28.7z"/>
	<path class="st4" d="M789.8,35.4c0,0.6,0.1,0.8,0.6,0.8c0.1,0,0.3,0,0.6,0v1.6c-0.3,0.1-1.1,0.3-1.5,0.3c-0.9,0-1.6-0.3-1.8-1.3
		c-0.9,0.9-2.4,1.3-3.7,1.3c-1.9,0-3.6-1-3.6-3.1c0-2.6,2.1-3.1,4.1-3.3c1.7-0.3,3.2-0.1,3.2-1.5c0-1.2-1.2-1.4-2.2-1.4
		c-1.3,0-2.2,0.5-2.3,1.7h-2.3c0.2-2.7,2.5-3.5,4.8-3.5c2.1,0,4.2,0.8,4.2,3.1V35.4z M787.5,32.5c-0.7,0.5-1.8,0.5-2.9,0.6
		c-1,0.2-1.9,0.5-1.9,1.8c0,1,1.3,1.4,2.2,1.4c1,0,2.6-0.5,2.6-2V32.5z"/>
	<path class="st4" d="M794,33.1c0,1.7,0.9,3.1,2.8,3.1c1.4,0,2.2-0.6,2.6-1.8h2.2c-0.5,2.3-2.5,3.6-4.8,3.6c-3.3,0-5.2-2.3-5.2-5.6
		c0-3,2-5.6,5.1-5.6c3.3,0,5.4,3,5,6.2H794z M799.4,31.5c-0.1-1.5-1.1-2.8-2.7-2.8c-1.6,0-2.7,1.2-2.8,2.8H799.4z"/>
	<path class="st4" d="M813.3,37.8h-2.2v-1.4h0c-0.6,1.2-1.9,1.7-3.3,1.7c-3.3,0-5-2.5-5-5.7c0-3.8,2.3-5.5,4.6-5.5
		c1.3,0,2.8,0.5,3.5,1.7h0v-5.4h2.3V37.8z M808.1,36.2c2.1,0,3-1.9,3-3.8c0-2.3-1.1-3.7-2.9-3.7c-2.2,0-3,1.9-3,3.9
		C805.2,34.4,806.1,36.2,808.1,36.2z"/>
	<path class="st4" d="M815.7,23.1h2.3v2.2h-2.3V23.1z M815.7,27.2h2.3v10.6h-2.3V27.2z"/>
	<path class="st4" d="M827.6,30.7c-0.2-1.3-1.1-2-2.4-2c-1.2,0-2.9,0.6-2.9,3.9c0,1.8,0.8,3.6,2.8,3.6c1.4,0,2.3-0.9,2.5-2.4h2.3
		c-0.4,2.7-2.1,4.3-4.9,4.3c-3.3,0-5.1-2.4-5.1-5.5c0-3.2,1.7-5.7,5.2-5.7c2.5,0,4.5,1.2,4.8,3.8H827.6z"/>
	<path class="st4" d="M847.3,27.8c-0.4-1.7-1.5-2.9-3.6-2.9c-3.1,0-4.4,2.8-4.4,5.6c0,2.8,1.3,5.6,4.4,5.6c2.3,0,3.5-1.7,3.7-3.8
		h2.5c-0.2,3.5-2.7,5.9-6.2,5.9c-4.4,0-7-3.5-7-7.7c0-4.2,2.6-7.7,7-7.7c3.3,0,5.9,1.8,6.2,5H847.3z"/>
	<path class="st4" d="M860.6,35.4c0,0.6,0.1,0.8,0.6,0.8c0.1,0,0.3,0,0.6,0v1.6c-0.3,0.1-1.1,0.3-1.5,0.3c-0.9,0-1.6-0.3-1.8-1.3
		c-0.9,0.9-2.4,1.3-3.7,1.3c-1.9,0-3.6-1-3.6-3.1c0-2.6,2.1-3.1,4.1-3.3c1.7-0.3,3.2-0.1,3.2-1.5c0-1.2-1.2-1.4-2.2-1.4
		c-1.3,0-2.2,0.5-2.3,1.7h-2.3c0.2-2.7,2.5-3.5,4.8-3.5c2.1,0,4.2,0.8,4.2,3.1V35.4z M858.2,32.5c-0.7,0.5-1.8,0.5-2.9,0.6
		c-1,0.2-1.9,0.5-1.9,1.8c0,1,1.3,1.4,2.2,1.4c1,0,2.6-0.5,2.6-2V32.5z"/>
	<path class="st4" d="M862.9,27.2h2.2v2h0c0.3-1.1,1.7-2.3,3.1-2.3c0.5,0,0.7,0,0.9,0.1v2.3c-0.3,0-0.7-0.1-1-0.1
		c-1.6,0-2.9,1.3-2.9,3.6v5h-2.3V27.2z"/>
	<path class="st4" d="M871.7,33.1c0,1.7,0.9,3.1,2.8,3.1c1.4,0,2.2-0.6,2.6-1.8h2.2c-0.5,2.3-2.5,3.6-4.8,3.6
		c-3.3,0-5.2-2.3-5.2-5.6c0-3,2-5.6,5.1-5.6c3.3,0,5.4,3,5,6.2H871.7z M877.2,31.5c-0.1-1.5-1.1-2.8-2.7-2.8c-1.6,0-2.7,1.2-2.8,2.8
		H877.2z"/>
</g>
<g>
	<path class="st0" d="M623.3,659.3c-0.3-1.5-1.5-2.3-3-2.3c-2.6,0-3.6,2.1-3.6,4.3c0,2.4,1.1,4.5,3.6,4.5c1.9,0,3-1.3,3.1-3.1h1.4
		c-0.3,2.7-1.9,4.3-4.6,4.3c-3.3,0-5-2.5-5-5.6c0-3.1,1.8-5.6,5.1-5.6c2.2,0,4.1,1.2,4.4,3.5H623.3z"/>
	<path class="st0" d="M626.4,656.1h1.3v4.1h0c0.4-0.9,1.5-1.3,2.4-1.3c2,0,2.7,1.2,2.7,2.8v5.1h-1.3v-5.2c0-0.9-0.6-1.6-1.6-1.6
		c-1.5,0-2.3,1-2.3,2.4v4.4h-1.3V656.1z"/>
	<path class="st0" d="M638.1,658.8c2.5,0,3.8,1.8,3.8,4.1c0,2.3-1.3,4-3.8,4s-3.8-1.8-3.8-4C634.3,660.6,635.6,658.8,638.1,658.8z
		 M638.1,665.8c1.3,0,2.4-1,2.4-2.9c0-1.9-1.1-2.9-2.4-2.9s-2.4,1-2.4,2.9C635.7,664.8,636.7,665.8,638.1,665.8z"/>
	<path class="st0" d="M646.7,658.8c2.5,0,3.8,1.8,3.8,4.1c0,2.3-1.3,4-3.8,4s-3.8-1.8-3.8-4C642.9,660.6,644.2,658.8,646.7,658.8z
		 M646.7,665.8c1.3,0,2.4-1,2.4-2.9c0-1.9-1.1-2.9-2.4-2.9s-2.4,1-2.4,2.9C644.3,664.8,645.3,665.8,646.7,665.8z"/>
	<path class="st0" d="M652.7,664.3c0,1.1,1,1.5,2.1,1.5c0.8,0,1.9-0.2,1.9-1.2c0-1-1.3-1.2-2.5-1.4c-1.3-0.3-2.5-0.7-2.5-2.2
		c0-1.6,1.5-2.2,2.9-2.2c1.7,0,3.1,0.5,3.2,2.4h-1.3c-0.1-1-1-1.3-1.8-1.3c-0.8,0-1.7,0.2-1.7,1c0,0.9,1.4,1.1,2.5,1.3
		c1.3,0.3,2.5,0.7,2.5,2.2c0,1.8-1.7,2.4-3.3,2.4c-1.7,0-3.2-0.7-3.3-2.6H652.7z"/>
	<path class="st0" d="M666.1,664.3c-0.3,1.7-1.6,2.6-3.3,2.6c-2.5,0-3.6-1.7-3.7-4.1c0-2.3,1.5-4,3.6-4c2.7,0,3.6,2.6,3.5,4.4h-5.8
		c0,1.4,0.7,2.5,2.4,2.5c1,0,1.8-0.5,2-1.5H666.1z M664.8,662.2c-0.1-1.2-1-2.2-2.2-2.2c-1.3,0-2.1,1-2.2,2.2H664.8z"/>
	<path class="st0" d="M678.5,666.7c-0.2,0.1-0.5,0.2-0.9,0.2c-0.7,0-1.1-0.4-1.1-1.2c-0.7,0.8-1.7,1.2-2.7,1.2
		c-1.4,0-2.6-0.6-2.6-2.2c0-1.8,1.3-2.1,2.6-2.4c1.4-0.3,2.6-0.2,2.6-1.1c0-1.1-0.9-1.3-1.7-1.3c-1.1,0-1.9,0.3-1.9,1.5h-1.3
		c0.1-1.9,1.6-2.6,3.3-2.6c1.4,0,2.9,0.3,2.9,2.1v4c0,0.6,0,0.9,0.4,0.9c0.1,0,0.2,0,0.4-0.1V666.7z M676.5,662.8
		c-0.5,0.4-1.5,0.4-2.3,0.5c-0.8,0.1-1.6,0.4-1.6,1.4c0,0.8,0.7,1.1,1.5,1.1c1.7,0,2.4-1,2.4-1.8V662.8z"/>
	<path class="st0" d="M685.7,659h1.5v1.1h-1.5v4.8c0,0.6,0.2,0.7,1,0.7h0.6v1.1h-1c-1.3,0-1.8-0.3-1.8-1.7v-4.9h-1.3V659h1.3v-2.3
		h1.3V659z"/>
	<path class="st0" d="M690,657.6h-1.3v-1.6h1.3V657.6z M688.7,659h1.3v7.8h-1.3V659z"/>
	<path class="st0" d="M692,659h1.2v1.1h0c0.6-0.9,1.4-1.3,2.5-1.3c0.9,0,1.8,0.4,2.1,1.3c0.5-0.8,1.4-1.3,2.4-1.3
		c1.5,0,2.6,0.6,2.6,2.2v5.7h-1.3v-5.1c0-1-0.3-1.7-1.5-1.7c-1.2,0-2,0.8-2,2v4.8h-1.3v-5.1c0-1-0.3-1.7-1.5-1.7
		c-1.5,0-2.1,1.4-2.1,2v4.8H692V659z"/>
	<path class="st0" d="M711.4,664.3c-0.3,1.7-1.6,2.6-3.3,2.6c-2.5,0-3.6-1.7-3.7-4.1c0-2.3,1.5-4,3.6-4c2.7,0,3.6,2.6,3.5,4.4h-5.8
		c0,1.4,0.7,2.5,2.4,2.5c1,0,1.8-0.5,2-1.5H711.4z M710.1,662.2c-0.1-1.2-1-2.2-2.2-2.2c-1.3,0-2.1,1-2.2,2.2H710.1z"/>
	<path class="st0" d="M717.8,659h1.5v1.1h-1.5v4.8c0,0.6,0.2,0.7,1,0.7h0.6v1.1h-1c-1.3,0-1.8-0.3-1.8-1.7v-4.9h-1.3V659h1.3v-2.3
		h1.3V659z"/>
	<path class="st0" d="M720.8,656.1h1.3v4.1h0c0.4-0.9,1.5-1.3,2.4-1.3c2,0,2.7,1.2,2.7,2.8v5.1h-1.3v-5.2c0-0.9-0.6-1.6-1.6-1.6
		c-1.5,0-2.3,1-2.3,2.4v4.4h-1.3V656.1z"/>
	<path class="st0" d="M736,666.7c-0.2,0.1-0.5,0.2-0.9,0.2c-0.7,0-1.1-0.4-1.1-1.2c-0.7,0.8-1.7,1.2-2.7,1.2c-1.4,0-2.6-0.6-2.6-2.2
		c0-1.8,1.3-2.1,2.6-2.4c1.4-0.3,2.6-0.2,2.6-1.1c0-1.1-0.9-1.3-1.7-1.3c-1.1,0-1.9,0.3-1.9,1.5H729c0.1-1.9,1.6-2.6,3.3-2.6
		c1.4,0,2.9,0.3,2.9,2.1v4c0,0.6,0,0.9,0.4,0.9c0.1,0,0.2,0,0.4-0.1V666.7z M733.9,662.8c-0.5,0.4-1.5,0.4-2.3,0.5
		c-0.8,0.1-1.6,0.4-1.6,1.4c0,0.8,0.7,1.1,1.5,1.1c1.7,0,2.4-1,2.4-1.8V662.8z"/>
	<path class="st0" d="M739,659h1.5v1.1H739v4.8c0,0.6,0.2,0.7,1,0.7h0.6v1.1h-1c-1.3,0-1.8-0.3-1.8-1.7v-4.9h-1.3V659h1.3v-2.3h1.3
		V659z"/>
	<path class="st0" d="M753.8,666.8h-1.3l-1.6-6.2h0l-1.6,6.2h-1.4l-2.5-7.8h1.4l1.8,6.3h0l1.6-6.3h1.4l1.6,6.3h0l1.7-6.3h1.3
		L753.8,666.8z"/>
	<path class="st0" d="M760.8,658.8c2.5,0,3.8,1.8,3.8,4.1c0,2.3-1.3,4-3.8,4s-3.8-1.8-3.8-4C757,660.6,758.3,658.8,760.8,658.8z
		 M760.8,665.8c1.3,0,2.4-1,2.4-2.9c0-1.9-1.1-2.9-2.4-2.9s-2.4,1-2.4,2.9C758.4,664.8,759.5,665.8,760.8,665.8z"/>
	<path class="st0" d="M766,659h1.2v1.6h0c0.6-1.2,1.5-1.9,2.9-1.8v1.3c-2.1,0-2.8,1.2-2.8,3.1v3.5H766V659z"/>
	<path class="st0" d="M771.1,656.1h1.3v6.3l3.5-3.4h1.7l-3.1,2.8l3.3,4.9h-1.6l-2.7-4l-1.2,1.1v2.9h-1.3V656.1z"/>
	<path class="st0" d="M779.6,664.3c0,1.1,1,1.5,2.1,1.5c0.8,0,1.9-0.2,1.9-1.2c0-1-1.3-1.2-2.5-1.4c-1.3-0.3-2.5-0.7-2.5-2.2
		c0-1.6,1.5-2.2,2.9-2.2c1.7,0,3.1,0.5,3.2,2.4h-1.3c-0.1-1-1-1.3-1.8-1.3c-0.8,0-1.7,0.2-1.7,1c0,0.9,1.4,1.1,2.5,1.3
		c1.3,0.3,2.5,0.7,2.5,2.2c0,1.8-1.7,2.4-3.3,2.4c-1.7,0-3.2-0.7-3.3-2.6H779.6z"/>
	<path class="st0" d="M791,660.1h-1.3V659h1.3v-1.2c0-1.3,0.8-1.9,2.1-1.9c0.2,0,0.6,0,0.8,0.1v1.1c-0.2-0.1-0.5-0.1-0.7-0.1
		c-0.6,0-1,0.2-1,0.9v1.1h1.5v1.1h-1.5v6.6H791V660.1z"/>
	<path class="st0" d="M798.3,658.8c2.5,0,3.8,1.8,3.8,4.1c0,2.3-1.3,4-3.8,4s-3.8-1.8-3.8-4C794.5,660.6,795.8,658.8,798.3,658.8z
		 M798.3,665.8c1.3,0,2.4-1,2.4-2.9c0-1.9-1.1-2.9-2.4-2.9s-2.4,1-2.4,2.9C795.9,664.8,797,665.8,798.3,665.8z"/>
	<path class="st0" d="M803.5,659h1.2v1.6h0c0.6-1.2,1.5-1.9,2.9-1.8v1.3c-2.1,0-2.8,1.2-2.8,3.1v3.5h-1.3V659z"/>
	<path class="st0" d="M815.8,667.8c-0.6,1.5-1.1,2.1-2.2,2.1c-0.3,0-0.6,0-0.9-0.1v-1.2c0.2,0.1,0.5,0.2,0.8,0.2
		c0.5,0,0.8-0.3,1-0.7l0.5-1.3l-3.1-7.7h1.4l2.3,6.3h0l2.2-6.3h1.4L815.8,667.8z"/>
	<path class="st0" d="M823.6,658.8c2.5,0,3.8,1.8,3.8,4.1c0,2.3-1.3,4-3.8,4s-3.8-1.8-3.8-4C819.8,660.6,821.1,658.8,823.6,658.8z
		 M823.6,665.8c1.3,0,2.4-1,2.4-2.9c0-1.9-1.1-2.9-2.4-2.9s-2.4,1-2.4,2.9C821.2,664.8,822.2,665.8,823.6,665.8z"/>
	<path class="st0" d="M835.3,666.8h-1.2v-1.2h0c-0.5,1-1.4,1.4-2.5,1.4c-2,0-2.7-1.2-2.7-2.8V659h1.3v5.2c0,0.9,0.6,1.6,1.6,1.6
		c1.5,0,2.3-1,2.3-2.4V659h1.3V666.8z"/>
	<path class="st0" d="M837.5,665.1h1.7v1.7h-1.7V665.1z"/>
</g>
<g>
	<path class="st5" d="M317.5,644.8c-1.3-2.2-2.1-4.2-2.1-6.9c0-2.5,0.8-4.9,2.1-6.9h0.8c-1.3,2.1-1.9,4.6-1.9,7.3
		c0,2.2,0.8,4.6,1.9,6.5H317.5z"/>
	<path class="st5" d="M319,631.2h0.9v4.4h0c0.4-1.1,1.5-1.7,2.7-1.7c2.4,0,3.5,1.9,3.5,4.1c0,2.2-1.1,4.1-3.5,4.1
		c-1.2,0-2.3-0.6-2.8-1.7h0v1.5H319V631.2z M322.6,634.8c-2,0-2.7,1.7-2.7,3.3c0,1.6,0.7,3.3,2.7,3.3c1.8,0,2.5-1.7,2.5-3.3
		C325.2,636.5,324.4,634.8,322.6,634.8z"/>
	<path class="st5" d="M328,638.3c0,1.4,0.7,3,2.5,3c1.4,0,2.1-0.8,2.4-2h0.9c-0.4,1.8-1.4,2.8-3.4,2.8c-2.5,0-3.5-1.9-3.5-4.1
		c0-2,1-4.1,3.5-4.1c2.5,0,3.5,2.2,3.4,4.3H328z M333,637.5c0-1.4-0.9-2.8-2.5-2.8c-1.5,0-2.4,1.4-2.5,2.8H333z"/>
	<path class="st5" d="M336.6,634.2h1.6v0.8h-1.6v5.2c0,0.6,0.1,1,0.8,1c0.3,0,0.5,0,0.8,0v0.8c-0.3,0-0.6,0-0.8,0
		c-1.3,0-1.7-0.4-1.7-1.7V635h-1.3v-0.8h1.3v-2.3h0.9V634.2z"/>
	<path class="st5" d="M338.6,634.2h1l2,6.6h0l1.9-6.6h1.1l1.9,6.6h0l2-6.6h1l-2.5,7.7h-1l-1.9-6.5h0l-1.9,6.5h-1L338.6,634.2z"/>
	<path class="st5" d="M350.9,638.3c0,1.4,0.7,3,2.5,3c1.4,0,2.1-0.8,2.4-2h0.9c-0.4,1.8-1.4,2.8-3.4,2.8c-2.5,0-3.5-1.9-3.5-4.1
		c0-2,1-4.1,3.5-4.1c2.5,0,3.5,2.2,3.4,4.3H350.9z M355.9,637.5c0-1.4-0.9-2.8-2.5-2.8c-1.5,0-2.4,1.4-2.5,2.8H355.9z"/>
	<path class="st5" d="M358.5,638.3c0,1.4,0.7,3,2.5,3c1.4,0,2.1-0.8,2.4-2h0.9c-0.4,1.8-1.4,2.8-3.4,2.8c-2.5,0-3.5-1.9-3.5-4.1
		c0-2,1-4.1,3.5-4.1c2.5,0,3.5,2.2,3.4,4.3H358.5z M363.5,637.5c0-1.4-0.9-2.8-2.5-2.8c-1.5,0-2.4,1.4-2.5,2.8H363.5z"/>
	<path class="st5" d="M365.6,634.2h0.9v1.3h0c0.3-0.9,1.4-1.6,2.5-1.6c2.2,0,2.8,1.1,2.8,3v5h-0.9v-4.8c0-1.3-0.4-2.3-2-2.3
		c-1.5,0-2.4,1.1-2.4,2.7v4.5h-0.9V634.2z"/>
	<path class="st5" d="M377.7,631.2h1v4.7h6.4v-4.7h1v10.7h-1v-5.2h-6.4v5.2h-1V631.2z"/>
	<path class="st5" d="M394.2,641.9h-0.9v-1.4h0c-0.5,1-1.5,1.6-2.7,1.6c-1.9,0-2.7-1.1-2.7-2.9v-5h0.9v5c0,1.4,0.6,2.1,2.1,2.1
		c1.6,0,2.3-1.5,2.3-3.1v-4.1h0.9V641.9z"/>
	<path class="st5" d="M395.8,634.2h0.9v1.8h0c0.5-1.2,1.5-2,2.9-1.9v0.9c-1.7-0.1-2.9,1.2-2.9,2.8v4.1h-0.9V634.2z"/>
	<path class="st5" d="M407.3,638.1c0,2.2-1.3,4.1-3.7,4.1s-3.7-1.9-3.7-4.1s1.3-4.1,3.7-4.1S407.3,635.8,407.3,638.1z M401,638.1
		c0,1.7,0.9,3.3,2.7,3.3c1.8,0,2.7-1.6,2.7-3.3c0-1.6-0.9-3.3-2.7-3.3C401.9,634.8,401,636.4,401,638.1z"/>
	<path class="st5" d="M408.6,634.2h0.9v1.3h0c0.3-0.9,1.4-1.6,2.5-1.6c2.2,0,2.8,1.1,2.8,3v5h-0.9v-4.8c0-1.3-0.4-2.3-2-2.3
		c-1.5,0-2.4,1.1-2.4,2.7v4.5h-0.9V634.2z"/>
	<path class="st5" d="M420.4,636.6c0.1-1.8,1.4-2.6,3.1-2.6c1.4,0,2.8,0.4,2.8,2.5v4.1c0,0.4,0.2,0.6,0.6,0.6c0.1,0,0.2,0,0.3-0.1
		v0.8c-0.2,0-0.4,0.1-0.6,0.1c-1,0-1.1-0.5-1.1-1.3h0c-0.7,1-1.3,1.6-2.8,1.6c-1.4,0-2.6-0.7-2.6-2.3c0-2.2,2.1-2.2,4.2-2.5
		c0.8-0.1,1.2-0.2,1.2-1c0-1.3-0.9-1.6-2-1.6c-1.2,0-2,0.5-2.1,1.8H420.4z M425.5,637.7L425.5,637.7c-0.1,0.2-0.6,0.3-0.8,0.3
		c-1.6,0.3-3.6,0.3-3.6,1.8c0,0.9,0.8,1.5,1.7,1.5c1.4,0,2.7-0.9,2.7-2.4V637.7z"/>
	<path class="st5" d="M428.1,634.2h0.9v1.3h0c0.3-0.9,1.4-1.6,2.5-1.6c2.2,0,2.8,1.1,2.8,3v5h-0.9v-4.8c0-1.3-0.4-2.3-2-2.3
		c-1.5,0-2.4,1.1-2.4,2.7v4.5h-0.9V634.2z"/>
	<path class="st5" d="M442.9,641.9H442v-1.5h0c-0.4,1-1.6,1.7-2.8,1.7c-2.4,0-3.5-1.9-3.5-4.1c0-2.2,1.1-4.1,3.5-4.1
		c1.2,0,2.3,0.6,2.7,1.7h0v-4.4h0.9V641.9z M439.2,641.4c2,0,2.7-1.7,2.7-3.3c0-1.6-0.7-3.3-2.7-3.3c-1.8,0-2.5,1.7-2.5,3.3
		C436.7,639.7,437.4,641.4,439.2,641.4z"/>
	<path class="st5" d="M448.7,631.2h7.4v0.9h-6.4v3.9h6v0.9h-6v4.2h6.5v0.9h-7.5V631.2z"/>
	<path class="st5" d="M457.3,634.2h0.9v1.8h0c0.5-1.2,1.5-2,2.9-1.9v0.9c-1.7-0.1-2.9,1.2-2.9,2.8v4.1h-0.9V634.2z"/>
	<path class="st5" d="M461.9,631.2h0.9v1.5h-0.9V631.2z M461.9,634.2h0.9v7.7h-0.9V634.2z"/>
	<path class="st5" d="M465,638.3c0,1.4,0.7,3,2.5,3c1.4,0,2.1-0.8,2.4-2h0.9c-0.4,1.8-1.4,2.8-3.4,2.8c-2.5,0-3.5-1.9-3.5-4.1
		c0-2,1-4.1,3.5-4.1c2.5,0,3.5,2.2,3.4,4.3H465z M470,637.5c0-1.4-0.9-2.8-2.5-2.8c-1.5,0-2.4,1.4-2.5,2.8H470z"/>
	<path class="st5" d="M471.9,631c1.3,2.2,2.1,4.2,2.1,6.9c0,2.5-0.8,4.9-2.1,6.9h-0.8c1.3-2.1,1.9-4.7,1.9-7.3
		c0-2.2-0.8-4.6-1.9-6.5H471.9z"/>
</g>
<g>
	<path class="st0" d="M25.3,579.3c-0.1-1.5-1.2-2.6-2.8-2.6c-3.3,0-3.7,4-3.9,6.5l0.1,0.1c0.8-1.5,2.4-2.2,4.1-2.2
		c3.8,0,6,2.7,6,6.3c0,3.7-2.5,6.5-6.3,6.5c-5.6,0-6.9-4.4-6.9-9.9c0-4.5,1.8-9.8,7.1-9.8c3,0,5.5,2.1,5.7,5.2H25.3z M25.6,587.3
		c0-2-1.1-3.9-3.3-3.9c-2.2,0-3.4,1.8-3.4,3.9c0,2.1,1.2,3.9,3.4,3.9C24.5,591.2,25.6,589.3,25.6,587.3z"/>
	<path class="st0" d="M30.2,587.8c0-2.4,1.3-4.1,3.5-4.6v-0.1v0c-1.7-0.7-2.7-2.1-2.7-3.9c0-3.2,2.1-5.2,5.9-5.2s5.9,1.9,5.9,5.2
		c0,1.8-1,3.2-2.7,3.9v0v0.1c2.1,0.5,3.5,2.2,3.5,4.6c0,3.7-2.8,5.9-6.7,5.9S30.2,591.5,30.2,587.8z M40.4,587.8
		c0-2.1-1.5-3.3-3.6-3.3s-3.6,1.2-3.6,3.3c0,2.2,1.5,3.5,3.6,3.5S40.4,590.1,40.4,587.8z M33.9,579.4c0,1.8,1.3,2.8,3,2.8s3-1,3-2.8
		c0-1.9-1.3-2.9-3-2.9S33.9,577.6,33.9,579.4z"/>
	<path class="st0" d="M58.1,584c0,4.3-1.1,9.8-6.5,9.8s-6.5-5.5-6.5-9.8s1.1-9.8,6.5-9.8S58.1,579.7,58.1,584z M55,584
		c0-3.9-0.8-7.3-3.5-7.3s-3.5,3.3-3.5,7.3c0,3.9,0.8,7.3,3.5,7.3S55,587.9,55,584z"/>
	<path class="st0" d="M68,574.1h3.6l8.8,14.2h0.1v-14.2h3.2v19.3H80l-8.8-14.2h-0.1v14.2H68V574.1z"/>
	<path class="st0" d="M87.1,589.8h3.8v3.6h-3.8V589.8z"/>
	<path class="st0" d="M101.8,574.1h3.4v16.4h9.8v2.9h-13.2V574.1z"/>
	<path class="st0" d="M128.3,590.3c0,0.8,0.2,1.1,0.7,1.1c0.2,0,0.4,0,0.8-0.1v2.1c-0.5,0.2-1.4,0.4-1.9,0.4c-1.2,0-2.1-0.4-2.4-1.7
		c-1.2,1.2-3.2,1.7-4.8,1.7c-2.5,0-4.8-1.3-4.8-4.1c0-3.5,2.8-4,5.4-4.3c2.2-0.4,4.2-0.2,4.2-2c0-1.6-1.6-1.9-2.9-1.9
		c-1.7,0-2.9,0.7-3.1,2.2h-3.1c0.2-3.6,3.3-4.6,6.3-4.6c2.7,0,5.6,1.1,5.6,4V590.3z M125.2,586.4c-0.9,0.6-2.4,0.6-3.8,0.8
		c-1.3,0.2-2.5,0.7-2.5,2.3c0,1.4,1.8,1.8,2.8,1.8c1.3,0,3.5-0.7,3.5-2.6V586.4z"/>
	<path class="st0" d="M131.4,574.1h3.1v11l5.6-5.6h3.8l-5.3,5.1l5.9,8.8h-3.8l-4.3-6.8l-1.8,1.8v5h-3.1V574.1z"/>
	<path class="st0" d="M148,587.2c0,2.2,1.2,4.1,3.8,4.1c1.8,0,2.9-0.8,3.4-2.3h2.9c-0.7,3.1-3.3,4.8-6.3,4.8c-4.4,0-6.8-3-6.8-7.3
		c0-4,2.6-7.4,6.7-7.4c4.4,0,7.1,4,6.6,8.2H148z M155.2,585.2c-0.1-1.9-1.4-3.7-3.5-3.7c-2.1,0-3.6,1.6-3.7,3.7H155.2z"/>
	<path class="st0" d="M18.9,616c0,3,2.2,4.1,4.9,4.1c3,0,4.1-1.5,4.1-2.9c0-1.5-0.8-2.1-1.6-2.4c-1.3-0.5-3.1-0.9-5.7-1.6
		c-3.3-0.9-4.3-2.9-4.3-4.9c0-3.9,3.6-5.7,7-5.7c4,0,7.4,2.1,7.4,6.2h-3.4c-0.2-2.5-1.8-3.4-4.2-3.4c-1.6,0-3.5,0.6-3.5,2.5
		c0,1.3,0.9,2.1,2.3,2.5c0.3,0.1,4.6,1.2,5.6,1.5c2.5,0.8,3.8,2.9,3.8,4.9c0,4.3-3.8,6-7.7,6c-4.4,0-8-2.1-8-6.9H18.9z"/>
	<path class="st0" d="M33.4,603.1h3.1v7.2h0.1c0.8-1.3,2.3-2.2,4.2-2.2c3,0,4.9,1.6,4.9,4.8v9.6h-3.1v-8.8c-0.1-2.2-0.9-3.1-2.7-3.1
		c-2.1,0-3.4,1.6-3.4,3.7v8.2h-3.1V603.1z"/>
	<path class="st0" d="M48,615.4c0-4.3,2.6-7.3,7-7.3c4.5,0,7,3.1,7,7.3c0,4.3-2.6,7.4-7,7.4C50.6,622.8,48,619.7,48,615.4z
		 M59,615.4c0-2.4-1.2-4.9-4-4.9c-2.8,0-4,2.5-4,4.9c0,2.4,1.2,4.9,4,4.9C57.8,620.3,59,617.8,59,615.4z"/>
	<path class="st0" d="M64.4,608.4h2.9v2.7h0.1c0.4-1.5,2.2-3.1,4.1-3.1c0.7,0,0.9,0.1,1.2,0.1v3c-0.4-0.1-0.9-0.1-1.3-0.1
		c-2.1,0-3.8,1.7-3.8,4.8v6.6h-3.1V608.4z"/>
	<path class="st0" d="M76,616.2c0,2.2,1.2,4.1,3.8,4.1c1.8,0,2.9-0.8,3.4-2.3h2.9c-0.7,3.1-3.3,4.8-6.3,4.8c-4.4,0-6.8-3-6.8-7.3
		c0-4,2.6-7.4,6.7-7.4c4.4,0,7.1,4,6.6,8.2H76z M83.2,614.2c-0.1-1.9-1.4-3.7-3.5-3.7c-2.1,0-3.6,1.6-3.7,3.7H83.2z"/>
	<path class="st0" d="M96.1,603.1h8c5.9,0,8.5,4.3,8.5,9.6c0,5.3-2.6,9.6-8.5,9.6h-8V603.1z M99.4,619.6h3.3c5.3,0,6.4-3,6.4-6.9
		c0-3.9-1.1-6.9-6.4-6.9h-3.3V619.6z"/>
	<path class="st0" d="M114.8,608.4h2.9v2.7h0.1c0.4-1.5,2.2-3.1,4.1-3.1c0.7,0,0.9,0.1,1.2,0.1v3c-0.4-0.1-0.9-0.1-1.3-0.1
		c-2.1,0-3.8,1.7-3.8,4.8v6.6h-3.1V608.4z"/>
	<path class="st0" d="M124.2,603.1h3.1v2.9h-3.1V603.1z M124.2,608.4h3.1v14h-3.1V608.4z"/>
	<path class="st0" d="M128.9,608.4h3.3l3.5,10.7h0.1l3.4-10.7h3.2l-5,14H134L128.9,608.4z"/>
	<path class="st0" d="M146.5,616.2c0,2.2,1.2,4.1,3.8,4.1c1.8,0,2.9-0.8,3.4-2.3h2.9c-0.7,3.1-3.3,4.8-6.3,4.8c-4.4,0-6.8-3-6.8-7.3
		c0-4,2.6-7.4,6.7-7.4c4.4,0,7.1,4,6.6,8.2H146.5z M153.6,614.2c-0.1-1.9-1.4-3.7-3.5-3.7c-2.1,0-3.6,1.6-3.7,3.7H153.6z"/>
</g>
</svg>
